<?xml version="1.0" encoding="utf-8" standalone="no"?>
<!DOCTYPE svg PUBLIC "-//W3C//DTD SVG 1.1//EN"
  "http://www.w3.org/Graphics/SVG/1.1/DTD/svg11.dtd">
<svg xmlns:xlink="http://www.w3.org/1999/xlink" width="460.8pt" height="345.6pt" viewBox="0 0 460.8 345.6" xmlns="http://www.w3.org/2000/svg" version="1.1">
 <metadata>
  <rdf:RDF xmlns:dc="http://purl.org/dc/elements/1.1/" xmlns:cc="http://creativecommons.org/ns#" xmlns:rdf="http://www.w3.org/1999/02/22-rdf-syntax-ns#">
   <cc:Work>
    <dc:type rdf:resource="http://purl.org/dc/dcmitype/StillImage"/>
    <dc:date>2022-03-08T01:49:40.452103</dc:date>
    <dc:format>image/svg+xml</dc:format>
    <dc:creator>
     <cc:Agent>
      <dc:title>Matplotlib v3.5.1, https://matplotlib.org/</dc:title>
     </cc:Agent>
    </dc:creator>
   </cc:Work>
  </rdf:RDF>
 </metadata>
 <defs>
  <style type="text/css">*{stroke-linejoin: round; stroke-linecap: butt}</style>
 </defs>
 <g id="figure_1">
  <g id="patch_1">
   <path d="M 0 345.6 
L 460.8 345.6 
L 460.8 0 
L 0 0 
z
" style="fill: #ffffff"/>
  </g>
  <g id="patch_2">
   <path d="M 103.104 307.584 
L 369.216 307.584 
L 369.216 41.472 
L 103.104 41.472 
z
" style="fill: #ffffff"/>
  </g>
  <g id="pane3d_1">
   <g id="patch_3">
    <path d="M 148.050435 237.388573 
L 159.45668 233.218004 
L 159.594544 112.067856 
L 148.227779 100.92008 
" style="fill: #f2f2f2; opacity: 0.5; stroke: #f2f2f2; stroke-linejoin: miter"/>
   </g>
  </g>
  <g id="pane3d_2">
   <g id="patch_4">
    <path d="M 159.45668 233.218004 
L 321.217357 233.243196 
L 321.077391 112.000504 
L 159.594544 112.067856 
" style="fill: #e6e6e6; opacity: 0.5; stroke: #e6e6e6; stroke-linejoin: miter"/>
   </g>
  </g>
  <g id="pane3d_3">
   <g id="patch_5">
    <path d="M 148.227779 100.92008 
L 330.125703 100.834621 
L 321.077391 112.000504 
L 159.594544 112.067856 
" style="fill: #ececec; opacity: 0.5; stroke: #ececec; stroke-linejoin: miter"/>
   </g>
  </g>
  <g id="axis3d_1">
   <g id="line2d_1">
    <path d="M 148.227779 100.92008 
L 330.125703 100.834621 
" style="fill: none; stroke: #000000; stroke-width: 0.8; stroke-linecap: square"/>
   </g>
   <g id="text_1">
    <!-- Time -->
    <g transform="translate(226.661609 76.174753)scale(0.1 -0.1)">
     <defs>
      <path id="DejaVuSans-54" d="M -19 4666 
L 3928 4666 
L 3928 4134 
L 2272 4134 
L 2272 0 
L 1638 0 
L 1638 4134 
L -19 4134 
L -19 4666 
z
" transform="scale(0.015625)"/>
      <path id="DejaVuSans-69" d="M 603 3500 
L 1178 3500 
L 1178 0 
L 603 0 
L 603 3500 
z
M 603 4863 
L 1178 4863 
L 1178 4134 
L 603 4134 
L 603 4863 
z
" transform="scale(0.015625)"/>
      <path id="DejaVuSans-6d" d="M 3328 2828 
Q 3544 3216 3844 3400 
Q 4144 3584 4550 3584 
Q 5097 3584 5394 3201 
Q 5691 2819 5691 2113 
L 5691 0 
L 5113 0 
L 5113 2094 
Q 5113 2597 4934 2840 
Q 4756 3084 4391 3084 
Q 3944 3084 3684 2787 
Q 3425 2491 3425 1978 
L 3425 0 
L 2847 0 
L 2847 2094 
Q 2847 2600 2669 2842 
Q 2491 3084 2119 3084 
Q 1678 3084 1418 2786 
Q 1159 2488 1159 1978 
L 1159 0 
L 581 0 
L 581 3500 
L 1159 3500 
L 1159 2956 
Q 1356 3278 1631 3431 
Q 1906 3584 2284 3584 
Q 2666 3584 2933 3390 
Q 3200 3197 3328 2828 
z
" transform="scale(0.015625)"/>
      <path id="DejaVuSans-65" d="M 3597 1894 
L 3597 1613 
L 953 1613 
Q 991 1019 1311 708 
Q 1631 397 2203 397 
Q 2534 397 2845 478 
Q 3156 559 3463 722 
L 3463 178 
Q 3153 47 2828 -22 
Q 2503 -91 2169 -91 
Q 1331 -91 842 396 
Q 353 884 353 1716 
Q 353 2575 817 3079 
Q 1281 3584 2069 3584 
Q 2775 3584 3186 3129 
Q 3597 2675 3597 1894 
z
M 3022 2063 
Q 3016 2534 2758 2815 
Q 2500 3097 2075 3097 
Q 1594 3097 1305 2825 
Q 1016 2553 972 2059 
L 3022 2063 
z
" transform="scale(0.015625)"/>
     </defs>
     <use xlink:href="#DejaVuSans-54"/>
     <use xlink:href="#DejaVuSans-69" x="57.958984"/>
     <use xlink:href="#DejaVuSans-6d" x="85.742188"/>
     <use xlink:href="#DejaVuSans-65" x="183.154297"/>
    </g>
   </g>
   <g id="Line3DCollection_1">
    <path d="M 159.793786 100.914646 
L 169.863384 112.063573 
L 169.743175 233.219606 
" style="fill: none; stroke: #b0b0b0; stroke-width: 0.8"/>
    <path d="M 181.827777 100.904294 
L 189.425837 112.055414 
L 189.339266 233.222658 
" style="fill: none; stroke: #b0b0b0; stroke-width: 0.8"/>
    <path d="M 203.86636 100.89394 
L 208.991909 112.047253 
L 208.938988 233.225711 
" style="fill: none; stroke: #b0b0b0; stroke-width: 0.8"/>
    <path d="M 225.909535 100.883583 
L 228.561602 112.039091 
L 228.542343 233.228763 
" style="fill: none; stroke: #b0b0b0; stroke-width: 0.8"/>
    <path d="M 247.957305 100.873225 
L 248.134915 112.030927 
L 248.149332 233.231817 
" style="fill: none; stroke: #b0b0b0; stroke-width: 0.8"/>
    <path d="M 270.00967 100.862864 
L 267.711851 112.022762 
L 267.759955 233.234871 
" style="fill: none; stroke: #b0b0b0; stroke-width: 0.8"/>
    <path d="M 292.066633 100.852502 
L 287.29241 112.014595 
L 287.374213 233.237926 
" style="fill: none; stroke: #b0b0b0; stroke-width: 0.8"/>
    <path d="M 314.128195 100.842137 
L 306.876592 112.006427 
L 306.992108 233.240981 
" style="fill: none; stroke: #b0b0b0; stroke-width: 0.8"/>
   </g>
   <g id="xtick_1">
    <g id="line2d_2">
     <path d="M 159.884432 101.015008 
L 159.611943 100.713312 
" style="fill: none; stroke: #000000; stroke-width: 0.8; stroke-linecap: square"/>
    </g>
    <g id="text_2">
     <!-- 0.00 -->
     <g transform="translate(147.723028 96.040466)scale(0.1 -0.1)">
      <defs>
       <path id="DejaVuSans-30" d="M 2034 4250 
Q 1547 4250 1301 3770 
Q 1056 3291 1056 2328 
Q 1056 1369 1301 889 
Q 1547 409 2034 409 
Q 2525 409 2770 889 
Q 3016 1369 3016 2328 
Q 3016 3291 2770 3770 
Q 2525 4250 2034 4250 
z
M 2034 4750 
Q 2819 4750 3233 4129 
Q 3647 3509 3647 2328 
Q 3647 1150 3233 529 
Q 2819 -91 2034 -91 
Q 1250 -91 836 529 
Q 422 1150 422 2328 
Q 422 3509 836 4129 
Q 1250 4750 2034 4750 
z
" transform="scale(0.015625)"/>
       <path id="DejaVuSans-2e" d="M 684 794 
L 1344 794 
L 1344 0 
L 684 0 
L 684 794 
z
" transform="scale(0.015625)"/>
      </defs>
      <use xlink:href="#DejaVuSans-30"/>
      <use xlink:href="#DejaVuSans-2e" x="63.623047"/>
      <use xlink:href="#DejaVuSans-30" x="95.410156"/>
      <use xlink:href="#DejaVuSans-30" x="159.033203"/>
     </g>
    </g>
   </g>
   <g id="xtick_2">
    <g id="line2d_3">
     <path d="M 181.896175 101.004677 
L 181.690565 100.702918 
" style="fill: none; stroke: #000000; stroke-width: 0.8; stroke-linecap: square"/>
    </g>
    <g id="text_3">
     <!-- 0.05 -->
     <g transform="translate(169.986835 96.028693)scale(0.1 -0.1)">
      <defs>
       <path id="DejaVuSans-35" d="M 691 4666 
L 3169 4666 
L 3169 4134 
L 1269 4134 
L 1269 2991 
Q 1406 3038 1543 3061 
Q 1681 3084 1819 3084 
Q 2600 3084 3056 2656 
Q 3513 2228 3513 1497 
Q 3513 744 3044 326 
Q 2575 -91 1722 -91 
Q 1428 -91 1123 -41 
Q 819 9 494 109 
L 494 744 
Q 775 591 1075 516 
Q 1375 441 1709 441 
Q 2250 441 2565 725 
Q 2881 1009 2881 1497 
Q 2881 1984 2565 2268 
Q 2250 2553 1709 2553 
Q 1456 2553 1204 2497 
Q 953 2441 691 2322 
L 691 4666 
z
" transform="scale(0.015625)"/>
      </defs>
      <use xlink:href="#DejaVuSans-30"/>
      <use xlink:href="#DejaVuSans-2e" x="63.623047"/>
      <use xlink:href="#DejaVuSans-30" x="95.410156"/>
      <use xlink:href="#DejaVuSans-35" x="159.033203"/>
     </g>
    </g>
   </g>
   <g id="xtick_3">
    <g id="line2d_4">
     <path d="M 203.912501 100.994344 
L 203.773797 100.692522 
" style="fill: none; stroke: #000000; stroke-width: 0.8; stroke-linecap: square"/>
    </g>
    <g id="text_4">
     <!-- 0.10 -->
     <g transform="translate(192.25533 96.016918)scale(0.1 -0.1)">
      <defs>
       <path id="DejaVuSans-31" d="M 794 531 
L 1825 531 
L 1825 4091 
L 703 3866 
L 703 4441 
L 1819 4666 
L 2450 4666 
L 2450 531 
L 3481 531 
L 3481 0 
L 794 0 
L 794 531 
z
" transform="scale(0.015625)"/>
      </defs>
      <use xlink:href="#DejaVuSans-30"/>
      <use xlink:href="#DejaVuSans-2e" x="63.623047"/>
      <use xlink:href="#DejaVuSans-31" x="95.410156"/>
      <use xlink:href="#DejaVuSans-30" x="159.033203"/>
     </g>
    </g>
   </g>
   <g id="xtick_4">
    <g id="line2d_5">
     <path d="M 225.93341 100.984008 
L 225.861641 100.682123 
" style="fill: none; stroke: #000000; stroke-width: 0.8; stroke-linecap: square"/>
    </g>
    <g id="text_5">
     <!-- 0.15 -->
     <g transform="translate(214.528514 96.00514)scale(0.1 -0.1)">
      <use xlink:href="#DejaVuSans-30"/>
      <use xlink:href="#DejaVuSans-2e" x="63.623047"/>
      <use xlink:href="#DejaVuSans-31" x="95.410156"/>
      <use xlink:href="#DejaVuSans-35" x="159.033203"/>
     </g>
    </g>
   </g>
   <g id="xtick_5">
    <g id="line2d_6">
     <path d="M 247.958904 100.973671 
L 247.954097 100.671723 
" style="fill: none; stroke: #000000; stroke-width: 0.8; stroke-linecap: square"/>
    </g>
    <g id="text_6">
     <!-- 0.20 -->
     <g transform="translate(236.806389 95.993359)scale(0.1 -0.1)">
      <defs>
       <path id="DejaVuSans-32" d="M 1228 531 
L 3431 531 
L 3431 0 
L 469 0 
L 469 531 
Q 828 903 1448 1529 
Q 2069 2156 2228 2338 
Q 2531 2678 2651 2914 
Q 2772 3150 2772 3378 
Q 2772 3750 2511 3984 
Q 2250 4219 1831 4219 
Q 1534 4219 1204 4116 
Q 875 4013 500 3803 
L 500 4441 
Q 881 4594 1212 4672 
Q 1544 4750 1819 4750 
Q 2544 4750 2975 4387 
Q 3406 4025 3406 3419 
Q 3406 3131 3298 2873 
Q 3191 2616 2906 2266 
Q 2828 2175 2409 1742 
Q 1991 1309 1228 531 
z
" transform="scale(0.015625)"/>
      </defs>
      <use xlink:href="#DejaVuSans-30"/>
      <use xlink:href="#DejaVuSans-2e" x="63.623047"/>
      <use xlink:href="#DejaVuSans-32" x="95.410156"/>
      <use xlink:href="#DejaVuSans-30" x="159.033203"/>
     </g>
    </g>
   </g>
   <g id="xtick_6">
    <g id="line2d_7">
     <path d="M 269.988984 100.963331 
L 270.051168 100.66132 
" style="fill: none; stroke: #000000; stroke-width: 0.8; stroke-linecap: square"/>
    </g>
    <g id="text_7">
     <!-- 0.25 -->
     <g transform="translate(259.088956 95.981576)scale(0.1 -0.1)">
      <use xlink:href="#DejaVuSans-30"/>
      <use xlink:href="#DejaVuSans-2e" x="63.623047"/>
      <use xlink:href="#DejaVuSans-32" x="95.410156"/>
      <use xlink:href="#DejaVuSans-35" x="159.033203"/>
     </g>
    </g>
   </g>
   <g id="xtick_7">
    <g id="line2d_8">
     <path d="M 292.023653 100.952989 
L 292.152855 100.650915 
" style="fill: none; stroke: #000000; stroke-width: 0.8; stroke-linecap: square"/>
    </g>
    <g id="text_8">
     <!-- 0.30 -->
     <g transform="translate(281.376217 95.969791)scale(0.1 -0.1)">
      <defs>
       <path id="DejaVuSans-33" d="M 2597 2516 
Q 3050 2419 3304 2112 
Q 3559 1806 3559 1356 
Q 3559 666 3084 287 
Q 2609 -91 1734 -91 
Q 1441 -91 1130 -33 
Q 819 25 488 141 
L 488 750 
Q 750 597 1062 519 
Q 1375 441 1716 441 
Q 2309 441 2620 675 
Q 2931 909 2931 1356 
Q 2931 1769 2642 2001 
Q 2353 2234 1838 2234 
L 1294 2234 
L 1294 2753 
L 1863 2753 
Q 2328 2753 2575 2939 
Q 2822 3125 2822 3475 
Q 2822 3834 2567 4026 
Q 2313 4219 1838 4219 
Q 1578 4219 1281 4162 
Q 984 4106 628 3988 
L 628 4550 
Q 988 4650 1302 4700 
Q 1616 4750 1894 4750 
Q 2613 4750 3031 4423 
Q 3450 4097 3450 3541 
Q 3450 3153 3228 2886 
Q 3006 2619 2597 2516 
z
" transform="scale(0.015625)"/>
      </defs>
      <use xlink:href="#DejaVuSans-30"/>
      <use xlink:href="#DejaVuSans-2e" x="63.623047"/>
      <use xlink:href="#DejaVuSans-33" x="95.410156"/>
      <use xlink:href="#DejaVuSans-30" x="159.033203"/>
     </g>
    </g>
   </g>
   <g id="xtick_8">
    <g id="line2d_9">
     <path d="M 314.062911 100.942645 
L 314.25916 100.640508 
" style="fill: none; stroke: #000000; stroke-width: 0.8; stroke-linecap: square"/>
    </g>
    <g id="text_9">
     <!-- 0.35 -->
     <g transform="translate(303.668173 95.958003)scale(0.1 -0.1)">
      <use xlink:href="#DejaVuSans-30"/>
      <use xlink:href="#DejaVuSans-2e" x="63.623047"/>
      <use xlink:href="#DejaVuSans-33" x="95.410156"/>
      <use xlink:href="#DejaVuSans-35" x="159.033203"/>
     </g>
    </g>
   </g>
  </g>
  <g id="axis3d_2">
   <g id="line2d_10">
    <path d="M 321.077391 112.000504 
L 330.125703 100.834621 
" style="fill: none; stroke: #000000; stroke-width: 0.8; stroke-linecap: square"/>
   </g>
   <g id="text_10">
    <!-- Consumers -->
    <g transform="translate(340.635337 107.180782)rotate(-50.980301)scale(0.1 -0.1)">
     <defs>
      <path id="DejaVuSans-43" d="M 4122 4306 
L 4122 3641 
Q 3803 3938 3442 4084 
Q 3081 4231 2675 4231 
Q 1875 4231 1450 3742 
Q 1025 3253 1025 2328 
Q 1025 1406 1450 917 
Q 1875 428 2675 428 
Q 3081 428 3442 575 
Q 3803 722 4122 1019 
L 4122 359 
Q 3791 134 3420 21 
Q 3050 -91 2638 -91 
Q 1578 -91 968 557 
Q 359 1206 359 2328 
Q 359 3453 968 4101 
Q 1578 4750 2638 4750 
Q 3056 4750 3426 4639 
Q 3797 4528 4122 4306 
z
" transform="scale(0.015625)"/>
      <path id="DejaVuSans-6f" d="M 1959 3097 
Q 1497 3097 1228 2736 
Q 959 2375 959 1747 
Q 959 1119 1226 758 
Q 1494 397 1959 397 
Q 2419 397 2687 759 
Q 2956 1122 2956 1747 
Q 2956 2369 2687 2733 
Q 2419 3097 1959 3097 
z
M 1959 3584 
Q 2709 3584 3137 3096 
Q 3566 2609 3566 1747 
Q 3566 888 3137 398 
Q 2709 -91 1959 -91 
Q 1206 -91 779 398 
Q 353 888 353 1747 
Q 353 2609 779 3096 
Q 1206 3584 1959 3584 
z
" transform="scale(0.015625)"/>
      <path id="DejaVuSans-6e" d="M 3513 2113 
L 3513 0 
L 2938 0 
L 2938 2094 
Q 2938 2591 2744 2837 
Q 2550 3084 2163 3084 
Q 1697 3084 1428 2787 
Q 1159 2491 1159 1978 
L 1159 0 
L 581 0 
L 581 3500 
L 1159 3500 
L 1159 2956 
Q 1366 3272 1645 3428 
Q 1925 3584 2291 3584 
Q 2894 3584 3203 3211 
Q 3513 2838 3513 2113 
z
" transform="scale(0.015625)"/>
      <path id="DejaVuSans-73" d="M 2834 3397 
L 2834 2853 
Q 2591 2978 2328 3040 
Q 2066 3103 1784 3103 
Q 1356 3103 1142 2972 
Q 928 2841 928 2578 
Q 928 2378 1081 2264 
Q 1234 2150 1697 2047 
L 1894 2003 
Q 2506 1872 2764 1633 
Q 3022 1394 3022 966 
Q 3022 478 2636 193 
Q 2250 -91 1575 -91 
Q 1294 -91 989 -36 
Q 684 19 347 128 
L 347 722 
Q 666 556 975 473 
Q 1284 391 1588 391 
Q 1994 391 2212 530 
Q 2431 669 2431 922 
Q 2431 1156 2273 1281 
Q 2116 1406 1581 1522 
L 1381 1569 
Q 847 1681 609 1914 
Q 372 2147 372 2553 
Q 372 3047 722 3315 
Q 1072 3584 1716 3584 
Q 2034 3584 2315 3537 
Q 2597 3491 2834 3397 
z
" transform="scale(0.015625)"/>
      <path id="DejaVuSans-75" d="M 544 1381 
L 544 3500 
L 1119 3500 
L 1119 1403 
Q 1119 906 1312 657 
Q 1506 409 1894 409 
Q 2359 409 2629 706 
Q 2900 1003 2900 1516 
L 2900 3500 
L 3475 3500 
L 3475 0 
L 2900 0 
L 2900 538 
Q 2691 219 2414 64 
Q 2138 -91 1772 -91 
Q 1169 -91 856 284 
Q 544 659 544 1381 
z
M 1991 3584 
L 1991 3584 
z
" transform="scale(0.015625)"/>
      <path id="DejaVuSans-72" d="M 2631 2963 
Q 2534 3019 2420 3045 
Q 2306 3072 2169 3072 
Q 1681 3072 1420 2755 
Q 1159 2438 1159 1844 
L 1159 0 
L 581 0 
L 581 3500 
L 1159 3500 
L 1159 2956 
Q 1341 3275 1631 3429 
Q 1922 3584 2338 3584 
Q 2397 3584 2469 3576 
Q 2541 3569 2628 3553 
L 2631 2963 
z
" transform="scale(0.015625)"/>
     </defs>
     <use xlink:href="#DejaVuSans-43"/>
     <use xlink:href="#DejaVuSans-6f" x="69.824219"/>
     <use xlink:href="#DejaVuSans-6e" x="131.005859"/>
     <use xlink:href="#DejaVuSans-73" x="194.384766"/>
     <use xlink:href="#DejaVuSans-75" x="246.484375"/>
     <use xlink:href="#DejaVuSans-6d" x="309.863281"/>
     <use xlink:href="#DejaVuSans-65" x="407.275391"/>
     <use xlink:href="#DejaVuSans-72" x="468.798828"/>
     <use xlink:href="#DejaVuSans-73" x="509.912109"/>
    </g>
   </g>
   <g id="Line3DCollection_2">
    <path d="M 150.073168 236.648983 
L 150.243151 102.896624 
L 328.521275 102.814533 
" style="fill: none; stroke: #b0b0b0; stroke-width: 0.8"/>
    <path d="M 152.410774 235.794263 
L 152.572442 105.18104 
L 326.667005 105.102756 
" style="fill: none; stroke: #b0b0b0; stroke-width: 0.8"/>
    <path d="M 154.641029 234.978795 
L 154.794958 107.360737 
L 324.897804 107.286002 
" style="fill: none; stroke: #b0b0b0; stroke-width: 0.8"/>
    <path d="M 156.771161 234.199935 
L 156.917875 109.442755 
L 323.207949 109.371333 
" style="fill: none; stroke: #b0b0b0; stroke-width: 0.8"/>
    <path d="M 158.807765 233.455273 
L 158.947742 111.433515 
L 321.59222 111.36519 
" style="fill: none; stroke: #b0b0b0; stroke-width: 0.8"/>
   </g>
   <g id="xtick_9">
    <g id="line2d_11">
     <path d="M 327.093857 102.81519 
L 331.376168 102.813218 
" style="fill: none; stroke: #000000; stroke-width: 0.8; stroke-linecap: square"/>
    </g>
    <g id="text_11">
     <!-- 2 -->
     <g transform="translate(340.129426 99.321054)scale(0.1 -0.1)">
      <use xlink:href="#DejaVuSans-32"/>
     </g>
    </g>
   </g>
   <g id="xtick_10">
    <g id="line2d_12">
     <path d="M 325.273111 105.103383 
L 329.454848 105.101503 
" style="fill: none; stroke: #000000; stroke-width: 0.8; stroke-linecap: square"/>
    </g>
    <g id="text_12">
     <!-- 4 -->
     <g transform="translate(337.92813 101.869468)scale(0.1 -0.1)">
      <defs>
       <path id="DejaVuSans-34" d="M 2419 4116 
L 825 1625 
L 2419 1625 
L 2419 4116 
z
M 2253 4666 
L 3047 4666 
L 3047 1625 
L 3713 1625 
L 3713 1100 
L 3047 1100 
L 3047 0 
L 2419 0 
L 2419 1100 
L 313 1100 
L 313 1709 
L 2253 4666 
z
" transform="scale(0.015625)"/>
      </defs>
      <use xlink:href="#DejaVuSans-34"/>
     </g>
    </g>
   </g>
   <g id="xtick_11">
    <g id="line2d_13">
     <path d="M 323.535895 107.286601 
L 327.621673 107.284806 
" style="fill: none; stroke: #000000; stroke-width: 0.8; stroke-linecap: square"/>
    </g>
    <g id="text_13">
     <!-- 6 -->
     <g transform="translate(335.827814 104.300977)scale(0.1 -0.1)">
      <defs>
       <path id="DejaVuSans-36" d="M 2113 2584 
Q 1688 2584 1439 2293 
Q 1191 2003 1191 1497 
Q 1191 994 1439 701 
Q 1688 409 2113 409 
Q 2538 409 2786 701 
Q 3034 994 3034 1497 
Q 3034 2003 2786 2293 
Q 2538 2584 2113 2584 
z
M 3366 4563 
L 3366 3988 
Q 3128 4100 2886 4159 
Q 2644 4219 2406 4219 
Q 1781 4219 1451 3797 
Q 1122 3375 1075 2522 
Q 1259 2794 1537 2939 
Q 1816 3084 2150 3084 
Q 2853 3084 3261 2657 
Q 3669 2231 3669 1497 
Q 3669 778 3244 343 
Q 2819 -91 2113 -91 
Q 1303 -91 875 529 
Q 447 1150 447 2328 
Q 447 3434 972 4092 
Q 1497 4750 2381 4750 
Q 2619 4750 2861 4703 
Q 3103 4656 3366 4563 
z
" transform="scale(0.015625)"/>
      </defs>
      <use xlink:href="#DejaVuSans-36"/>
     </g>
    </g>
   </g>
   <g id="xtick_12">
    <g id="line2d_14">
     <path d="M 321.876591 109.371905 
L 325.870716 109.370189 
" style="fill: none; stroke: #000000; stroke-width: 0.8; stroke-linecap: square"/>
    </g>
    <g id="text_14">
     <!-- 8 -->
     <g transform="translate(333.821688 106.623445)scale(0.1 -0.1)">
      <defs>
       <path id="DejaVuSans-38" d="M 2034 2216 
Q 1584 2216 1326 1975 
Q 1069 1734 1069 1313 
Q 1069 891 1326 650 
Q 1584 409 2034 409 
Q 2484 409 2743 651 
Q 3003 894 3003 1313 
Q 3003 1734 2745 1975 
Q 2488 2216 2034 2216 
z
M 1403 2484 
Q 997 2584 770 2862 
Q 544 3141 544 3541 
Q 544 4100 942 4425 
Q 1341 4750 2034 4750 
Q 2731 4750 3128 4425 
Q 3525 4100 3525 3541 
Q 3525 3141 3298 2862 
Q 3072 2584 2669 2484 
Q 3125 2378 3379 2068 
Q 3634 1759 3634 1313 
Q 3634 634 3220 271 
Q 2806 -91 2034 -91 
Q 1263 -91 848 271 
Q 434 634 434 1313 
Q 434 1759 690 2068 
Q 947 2378 1403 2484 
z
M 1172 3481 
Q 1172 3119 1398 2916 
Q 1625 2713 2034 2713 
Q 2441 2713 2670 2916 
Q 2900 3119 2900 3481 
Q 2900 3844 2670 4047 
Q 2441 4250 2034 4250 
Q 1625 4250 1398 4047 
Q 1172 3844 1172 3481 
z
" transform="scale(0.015625)"/>
      </defs>
      <use xlink:href="#DejaVuSans-38"/>
     </g>
    </g>
   </g>
   <g id="xtick_13">
    <g id="line2d_15">
     <path d="M 320.290071 111.365737 
L 324.196565 111.364096 
" style="fill: none; stroke: #000000; stroke-width: 0.8; stroke-linecap: square"/>
    </g>
    <g id="text_15">
     <!-- 10 -->
     <g transform="translate(328.722303 108.844046)scale(0.1 -0.1)">
      <use xlink:href="#DejaVuSans-31"/>
      <use xlink:href="#DejaVuSans-30" x="63.623047"/>
     </g>
    </g>
   </g>
  </g>
  <g id="axis3d_3">
   <g id="line2d_16">
    <path d="M 321.077391 112.000504 
L 321.217357 233.243196 
" style="fill: none; stroke: #000000; stroke-width: 0.8; stroke-linecap: square"/>
   </g>
   <g id="text_16">
    <!-- Products -->
    <g transform="translate(345.53921 151.533073)rotate(-270.066143)scale(0.1 -0.1)">
     <defs>
      <path id="DejaVuSans-50" d="M 1259 4147 
L 1259 2394 
L 2053 2394 
Q 2494 2394 2734 2622 
Q 2975 2850 2975 3272 
Q 2975 3691 2734 3919 
Q 2494 4147 2053 4147 
L 1259 4147 
z
M 628 4666 
L 2053 4666 
Q 2838 4666 3239 4311 
Q 3641 3956 3641 3272 
Q 3641 2581 3239 2228 
Q 2838 1875 2053 1875 
L 1259 1875 
L 1259 0 
L 628 0 
L 628 4666 
z
" transform="scale(0.015625)"/>
      <path id="DejaVuSans-64" d="M 2906 2969 
L 2906 4863 
L 3481 4863 
L 3481 0 
L 2906 0 
L 2906 525 
Q 2725 213 2448 61 
Q 2172 -91 1784 -91 
Q 1150 -91 751 415 
Q 353 922 353 1747 
Q 353 2572 751 3078 
Q 1150 3584 1784 3584 
Q 2172 3584 2448 3432 
Q 2725 3281 2906 2969 
z
M 947 1747 
Q 947 1113 1208 752 
Q 1469 391 1925 391 
Q 2381 391 2643 752 
Q 2906 1113 2906 1747 
Q 2906 2381 2643 2742 
Q 2381 3103 1925 3103 
Q 1469 3103 1208 2742 
Q 947 2381 947 1747 
z
" transform="scale(0.015625)"/>
      <path id="DejaVuSans-63" d="M 3122 3366 
L 3122 2828 
Q 2878 2963 2633 3030 
Q 2388 3097 2138 3097 
Q 1578 3097 1268 2742 
Q 959 2388 959 1747 
Q 959 1106 1268 751 
Q 1578 397 2138 397 
Q 2388 397 2633 464 
Q 2878 531 3122 666 
L 3122 134 
Q 2881 22 2623 -34 
Q 2366 -91 2075 -91 
Q 1284 -91 818 406 
Q 353 903 353 1747 
Q 353 2603 823 3093 
Q 1294 3584 2113 3584 
Q 2378 3584 2631 3529 
Q 2884 3475 3122 3366 
z
" transform="scale(0.015625)"/>
      <path id="DejaVuSans-74" d="M 1172 4494 
L 1172 3500 
L 2356 3500 
L 2356 3053 
L 1172 3053 
L 1172 1153 
Q 1172 725 1289 603 
Q 1406 481 1766 481 
L 2356 481 
L 2356 0 
L 1766 0 
Q 1100 0 847 248 
Q 594 497 594 1153 
L 594 3053 
L 172 3053 
L 172 3500 
L 594 3500 
L 594 4494 
L 1172 4494 
z
" transform="scale(0.015625)"/>
     </defs>
     <use xlink:href="#DejaVuSans-50"/>
     <use xlink:href="#DejaVuSans-72" x="58.552734"/>
     <use xlink:href="#DejaVuSans-6f" x="97.416016"/>
     <use xlink:href="#DejaVuSans-64" x="158.597656"/>
     <use xlink:href="#DejaVuSans-75" x="222.074219"/>
     <use xlink:href="#DejaVuSans-63" x="285.453125"/>
     <use xlink:href="#DejaVuSans-74" x="340.433594"/>
     <use xlink:href="#DejaVuSans-73" x="379.642578"/>
    </g>
   </g>
   <g id="Line3DCollection_3">
    <path d="M 321.200462 218.608481 
L 159.473321 218.594476 
L 148.071845 220.912883 
" style="fill: none; stroke: #b0b0b0; stroke-width: 0.8"/>
    <path d="M 321.182856 203.357203 
L 159.490663 203.354852 
L 148.094157 203.743985 
" style="fill: none; stroke: #b0b0b0; stroke-width: 0.8"/>
    <path d="M 321.165257 188.112518 
L 159.507998 188.121811 
L 148.116457 186.583441 
" style="fill: none; stroke: #b0b0b0; stroke-width: 0.8"/>
    <path d="M 321.147666 172.874421 
L 159.525325 172.895348 
L 148.138747 169.431245 
" style="fill: none; stroke: #b0b0b0; stroke-width: 0.8"/>
    <path d="M 321.130082 157.642908 
L 159.542644 157.675459 
L 148.161026 152.28739 
" style="fill: none; stroke: #b0b0b0; stroke-width: 0.8"/>
    <path d="M 321.112506 142.417975 
L 159.559957 142.462139 
L 148.183294 135.151872 
" style="fill: none; stroke: #b0b0b0; stroke-width: 0.8"/>
    <path d="M 321.094938 127.199617 
L 159.577261 127.255385 
L 148.205551 118.024683 
" style="fill: none; stroke: #b0b0b0; stroke-width: 0.8"/>
   </g>
   <g id="xtick_14">
    <g id="line2d_17">
     <path d="M 319.905663 218.608369 
L 323.790107 218.608705 
" style="fill: none; stroke: #000000; stroke-width: 0.8; stroke-linecap: square"/>
    </g>
    <g id="text_17">
     <!-- 20 -->
     <g transform="translate(327.481354 226.03863)scale(0.1 -0.1)">
      <use xlink:href="#DejaVuSans-32"/>
      <use xlink:href="#DejaVuSans-30" x="63.623047"/>
     </g>
    </g>
   </g>
   <g id="xtick_15">
    <g id="line2d_18">
     <path d="M 319.888337 203.357184 
L 323.77194 203.357241 
" style="fill: none; stroke: #000000; stroke-width: 0.8; stroke-linecap: square"/>
    </g>
    <g id="text_18">
     <!-- 25 -->
     <g transform="translate(327.461201 210.927394)scale(0.1 -0.1)">
      <use xlink:href="#DejaVuSans-32"/>
      <use xlink:href="#DejaVuSans-35" x="63.623047"/>
     </g>
    </g>
   </g>
   <g id="xtick_16">
    <g id="line2d_19">
     <path d="M 319.871018 188.112592 
L 323.753782 188.112369 
" style="fill: none; stroke: #000000; stroke-width: 0.8; stroke-linecap: square"/>
    </g>
    <g id="text_19">
     <!-- 30 -->
     <g transform="translate(327.441057 195.822629)scale(0.1 -0.1)">
      <use xlink:href="#DejaVuSans-33"/>
      <use xlink:href="#DejaVuSans-30" x="63.623047"/>
     </g>
    </g>
   </g>
   <g id="xtick_17">
    <g id="line2d_20">
     <path d="M 319.853707 172.874588 
L 323.735631 172.874086 
" style="fill: none; stroke: #000000; stroke-width: 0.8; stroke-linecap: square"/>
    </g>
    <g id="text_20">
     <!-- 35 -->
     <g transform="translate(327.420921 180.724332)scale(0.1 -0.1)">
      <use xlink:href="#DejaVuSans-33"/>
      <use xlink:href="#DejaVuSans-35" x="63.623047"/>
     </g>
    </g>
   </g>
   <g id="xtick_18">
    <g id="line2d_21">
     <path d="M 319.836403 157.643168 
L 323.717488 157.642387 
" style="fill: none; stroke: #000000; stroke-width: 0.8; stroke-linecap: square"/>
    </g>
    <g id="text_21">
     <!-- 40 -->
     <g transform="translate(327.400794 165.632498)scale(0.1 -0.1)">
      <use xlink:href="#DejaVuSans-34"/>
      <use xlink:href="#DejaVuSans-30" x="63.623047"/>
     </g>
    </g>
   </g>
   <g id="xtick_19">
    <g id="line2d_22">
     <path d="M 319.819106 142.418328 
L 323.699353 142.417267 
" style="fill: none; stroke: #000000; stroke-width: 0.8; stroke-linecap: square"/>
    </g>
    <g id="text_22">
     <!-- 45 -->
     <g transform="translate(327.380676 150.547125)scale(0.1 -0.1)">
      <use xlink:href="#DejaVuSans-34"/>
      <use xlink:href="#DejaVuSans-35" x="63.623047"/>
     </g>
    </g>
   </g>
   <g id="xtick_20">
    <g id="line2d_23">
     <path d="M 319.801817 127.200063 
L 323.681226 127.198724 
" style="fill: none; stroke: #000000; stroke-width: 0.8; stroke-linecap: square"/>
    </g>
    <g id="text_23">
     <!-- 50 -->
     <g transform="translate(327.360566 135.468207)scale(0.1 -0.1)">
      <use xlink:href="#DejaVuSans-35"/>
      <use xlink:href="#DejaVuSans-30" x="63.623047"/>
     </g>
    </g>
   </g>
  </g>
  <g id="axes_1">
   <g id="Poly3DCollection_1">
    <path d="M 169.279997 121.826581 
L 168.398758 112.908101 
L 185.042602 124.270814 
z
" clip-path="url(#pcd820513cb)" style="fill: #f8e621"/>
    <path d="M 200.263318 135.192617 
L 200.804929 133.455151 
L 185.042602 124.270814 
z
" clip-path="url(#pcd820513cb)" style="fill: #b5de2b"/>
    <path d="M 216.199724 167.422837 
L 216.563633 173.304208 
L 200.804929 133.455151 
z
" clip-path="url(#pcd820513cb)" style="fill: #2fb47c"/>
    <path d="M 232.343302 205.834374 
L 216.563633 173.304208 
L 216.199724 167.422837 
z
" clip-path="url(#pcd820513cb)" style="fill: #26818e"/>
    <path d="M 248.120523 206.517406 
L 248.136102 206.448938 
L 232.343302 205.834374 
z
" clip-path="url(#pcd820513cb)" style="fill: #3e4989"/>
    <path d="M 263.932798 210.749063 
L 248.136102 206.448938 
L 248.120523 206.517406 
z
" clip-path="url(#pcd820513cb)" style="fill: #404588"/>
    <path d="M 264.091284 207.138901 
L 279.742833 231.028267 
L 263.932798 210.749063 
z
" clip-path="url(#pcd820513cb)" style="fill: #472e7c"/>
    <path d="M 296.059228 231.372062 
L 295.548279 231.030563 
L 279.742833 231.028267 
z
" clip-path="url(#pcd820513cb)" style="fill: #440154"/>
    <path d="M 311.356087 231.03286 
L 295.548279 231.030563 
L 296.059228 231.372062 
z
" clip-path="url(#pcd820513cb)" style="fill: #440154"/>
    <path d="M 168.398758 112.908101 
L 184.326342 125.286445 
L 185.042602 124.270814 
z
" clip-path="url(#pcd820513cb)" style="fill: #f1e51d"/>
    <path d="M 185.042602 124.270814 
L 184.326342 125.286445 
L 200.263318 135.192617 
z
" clip-path="url(#pcd820513cb)" style="fill: #c5e021"/>
    <path d="M 216.199724 167.422837 
L 200.804929 133.455151 
L 200.263318 135.192617 
z
" clip-path="url(#pcd820513cb)" style="fill: #63cb5f"/>
    <path d="M 232.152789 202.791584 
L 232.343302 205.834374 
L 216.199724 167.422837 
z
" clip-path="url(#pcd820513cb)" style="fill: #2f6b8e"/>
    <path d="M 248.120523 206.517406 
L 232.343302 205.834374 
L 232.152789 202.791584 
z
" clip-path="url(#pcd820513cb)" style="fill: #3d4d8a"/>
    <path d="M 248.120523 206.517406 
L 264.091284 207.138901 
L 263.932798 210.749063 
z
" clip-path="url(#pcd820513cb)" style="fill: #404588"/>
    <path d="M 264.091284 207.138901 
L 280.078229 231.369714 
L 279.742833 231.028267 
z
" clip-path="url(#pcd820513cb)" style="fill: #481b6d"/>
    <path d="M 279.742833 231.028267 
L 280.078229 231.369714 
L 296.059228 231.372062 
z
" clip-path="url(#pcd820513cb)" style="fill: #440154"/>
    <path d="M 296.059228 231.372062 
L 312.042641 231.37441 
L 311.356087 231.03286 
z
" clip-path="url(#pcd820513cb)" style="fill: #440154"/>
    <path d="M 184.326342 125.286445 
L 168.398758 112.908101 
L 167.486419 115.059391 
z
" clip-path="url(#pcd820513cb)" style="fill: #fde725"/>
    <path d="M 199.710237 135.716064 
L 200.263318 135.192617 
L 184.326342 125.286445 
z
" clip-path="url(#pcd820513cb)" style="fill: #aadc32"/>
    <path d="M 216.199724 167.422837 
L 200.263318 135.192617 
L 199.710237 135.716064 
z
" clip-path="url(#pcd820513cb)" style="fill: #5cc863"/>
    <path d="M 216.199724 167.422837 
L 231.957253 206.586929 
L 232.152789 202.791584 
z
" clip-path="url(#pcd820513cb)" style="fill: #2f6b8e"/>
    <path d="M 232.152789 202.791584 
L 231.957253 206.586929 
L 248.120523 206.517406 
z
" clip-path="url(#pcd820513cb)" style="fill: #3e4c8a"/>
    <path d="M 264.091284 207.138901 
L 248.120523 206.517406 
L 264.254402 206.587892 
z
" clip-path="url(#pcd820513cb)" style="fill: #3f4889"/>
    <path d="M 280.078229 231.369714 
L 264.091284 207.138901 
L 264.254402 206.587892 
z
" clip-path="url(#pcd820513cb)" style="fill: #46327e"/>
    <path d="M 280.421157 231.71883 
L 296.059228 231.372062 
L 280.078229 231.369714 
z
" clip-path="url(#pcd820513cb)" style="fill: #440154"/>
    <path d="M 312.744616 231.723633 
L 312.042641 231.37441 
L 296.059228 231.372062 
z
" clip-path="url(#pcd820513cb)" style="fill: #440154"/>
    <path d="M 167.486419 115.059391 
L 183.595486 124.445979 
L 184.326342 125.286445 
z
" clip-path="url(#pcd820513cb)" style="fill: #e7e419"/>
    <path d="M 184.326342 125.286445 
L 183.595486 124.445979 
L 199.710237 135.716064 
z
" clip-path="url(#pcd820513cb)" style="fill: #c0df25"/>
    <path d="M 199.710237 135.716064 
L 215.823666 173.326303 
L 216.199724 167.422837 
z
" clip-path="url(#pcd820513cb)" style="fill: #2cb17e"/>
    <path d="M 215.823666 173.326303 
L 231.957253 206.586929 
L 216.199724 167.422837 
z
" clip-path="url(#pcd820513cb)" style="fill: #27808e"/>
    <path d="M 248.120523 206.517406 
L 231.957253 206.586929 
L 248.104595 206.587411 
z
" clip-path="url(#pcd820513cb)" style="fill: #3e4989"/>
    <path d="M 264.254402 206.587892 
L 248.120523 206.517406 
L 248.104595 206.587411 
z
" clip-path="url(#pcd820513cb)" style="fill: #3e4989"/>
    <path d="M 264.254402 206.587892 
L 280.421157 231.71883 
L 280.078229 231.369714 
z
" clip-path="url(#pcd820513cb)" style="fill: #481b6d"/>
    <path d="M 296.581652 231.721231 
L 296.059228 231.372062 
L 280.421157 231.71883 
z
" clip-path="url(#pcd820513cb)" style="fill: #440154"/>
    <path d="M 296.059228 231.372062 
L 296.581652 231.721231 
L 312.744616 231.723633 
z
" clip-path="url(#pcd820513cb)" style="fill: #440154"/>
    <path d="M 166.554636 115.99322 
L 183.595486 124.445979 
L 167.486419 115.059391 
z
" clip-path="url(#pcd820513cb)" style="fill: #f6e620"/>
    <path d="M 199.710237 135.716064 
L 183.595486 124.445979 
L 199.147152 131.816083 
z
" clip-path="url(#pcd820513cb)" style="fill: #b0dd2f"/>
    <path d="M 199.147152 131.816083 
L 215.823666 173.326303 
L 199.710237 135.716064 
z
" clip-path="url(#pcd820513cb)" style="fill: #56c667"/>
    <path d="M 215.441195 173.020542 
L 231.957253 206.586929 
L 215.823666 173.326303 
z
" clip-path="url(#pcd820513cb)" style="fill: #297b8e"/>
    <path d="M 231.957253 206.586929 
L 248.088305 206.659005 
L 248.104595 206.587411 
z
" clip-path="url(#pcd820513cb)" style="fill: #3e4989"/>
    <path d="M 248.104595 206.587411 
L 248.088305 206.659005 
L 264.254402 206.587892 
z
" clip-path="url(#pcd820513cb)" style="fill: #3e4989"/>
    <path d="M 264.254402 206.587892 
L 280.771874 232.075876 
L 280.421157 231.71883 
z
" clip-path="url(#pcd820513cb)" style="fill: #481b6d"/>
    <path d="M 296.581652 231.721231 
L 280.421157 231.71883 
L 280.771874 232.075876 
z
" clip-path="url(#pcd820513cb)" style="fill: #440154"/>
    <path d="M 312.744616 231.723633 
L 296.581652 231.721231 
L 313.462538 232.080788 
z
" clip-path="url(#pcd820513cb)" style="fill: #440154"/>
    <path d="M 182.851132 119.786388 
L 183.595486 124.445979 
L 166.554636 115.99322 
z
" clip-path="url(#pcd820513cb)" style="fill: #ece51b"/>
    <path d="M 199.147152 131.816083 
L 183.595486 124.445979 
L 182.851132 119.786388 
z
" clip-path="url(#pcd820513cb)" style="fill: #cde11d"/>
    <path d="M 199.147152 131.816083 
L 215.441195 173.020542 
L 215.823666 173.326303 
z
" clip-path="url(#pcd820513cb)" style="fill: #28ae80"/>
    <path d="M 231.757978 204.118519 
L 231.957253 206.586929 
L 215.441195 173.020542 
z
" clip-path="url(#pcd820513cb)" style="fill: #32658e"/>
    <path d="M 231.957253 206.586929 
L 231.757978 204.118519 
L 248.088305 206.659005 
z
" clip-path="url(#pcd820513cb)" style="fill: #3e4a89"/>
    <path d="M 248.088305 206.659005 
L 264.422109 208.564907 
L 264.254402 206.587892 
z
" clip-path="url(#pcd820513cb)" style="fill: #3f4788"/>
    <path d="M 264.422109 208.564907 
L 280.771874 232.075876 
L 264.254402 206.587892 
z
" clip-path="url(#pcd820513cb)" style="fill: #46307e"/>
    <path d="M 280.771874 232.075876 
L 297.115944 232.078332 
L 296.581652 231.721231 
z
" clip-path="url(#pcd820513cb)" style="fill: #440154"/>
    <path d="M 296.581652 231.721231 
L 297.115944 232.078332 
L 313.462538 232.080788 
z
" clip-path="url(#pcd820513cb)" style="fill: #440154"/>
    <path d="M 166.554636 115.99322 
L 182.08927 115.66098 
L 182.851132 119.786388 
z
" clip-path="url(#pcd820513cb)" style="fill: #f8e621"/>
    <path d="M 182.851132 119.786388 
L 182.08927 115.66098 
L 199.147152 131.816083 
z
" clip-path="url(#pcd820513cb)" style="fill: #dae319"/>
    <path d="M 215.052421 165.650402 
L 215.441195 173.020542 
L 199.147152 131.816083 
z
" clip-path="url(#pcd820513cb)" style="fill: #2eb37c"/>
    <path d="M 231.553693 205.447138 
L 231.757978 204.118519 
L 215.441195 173.020542 
z
" clip-path="url(#pcd820513cb)" style="fill: #31668e"/>
    <path d="M 248.071642 206.732243 
L 248.088305 206.659005 
L 231.757978 204.118519 
z
" clip-path="url(#pcd820513cb)" style="fill: #3e4a89"/>
    <path d="M 264.422109 208.564907 
L 248.088305 206.659005 
L 248.071642 206.732243 
z
" clip-path="url(#pcd820513cb)" style="fill: #3f4788"/>
    <path d="M 280.771874 232.075876 
L 264.422109 208.564907 
L 264.592319 206.732747 
z
" clip-path="url(#pcd820513cb)" style="fill: #46307e"/>
    <path d="M 297.662512 232.443637 
L 297.115944 232.078332 
L 280.771874 232.075876 
z
" clip-path="url(#pcd820513cb)" style="fill: #440154"/>
    <path d="M 313.462538 232.080788 
L 297.115944 232.078332 
L 297.662512 232.443637 
z
" clip-path="url(#pcd820513cb)" style="fill: #440154"/>
    <path d="M 165.603464 115.027126 
L 182.08927 115.66098 
L 166.554636 115.99322 
z
" clip-path="url(#pcd820513cb)" style="fill: #fde725"/>
    <path d="M 199.147152 131.816083 
L 182.08927 115.66098 
L 198.567085 134.876265 
z
" clip-path="url(#pcd820513cb)" style="fill: #bade28"/>
    <path d="M 198.567085 134.876265 
L 215.052421 165.650402 
L 199.147152 131.816083 
z
" clip-path="url(#pcd820513cb)" style="fill: #60ca60"/>
    <path d="M 215.441195 173.020542 
L 215.052421 165.650402 
L 231.553693 205.447138 
z
" clip-path="url(#pcd820513cb)" style="fill: #26818e"/>
    <path d="M 231.757978 204.118519 
L 231.553693 205.447138 
L 248.071642 206.732243 
z
" clip-path="url(#pcd820513cb)" style="fill: #3e4c8a"/>
    <path d="M 248.071642 206.732243 
L 264.592319 206.732747 
L 264.422109 208.564907 
z
" clip-path="url(#pcd820513cb)" style="fill: #3f4788"/>
    <path d="M 280.771874 232.075876 
L 264.592319 206.732747 
L 281.130649 232.441125 
z
" clip-path="url(#pcd820513cb)" style="fill: #481b6d"/>
    <path d="M 281.130649 232.441125 
L 297.662512 232.443637 
L 280.771874 232.075876 
z
" clip-path="url(#pcd820513cb)" style="fill: #440154"/>
    <path d="M 313.462538 232.080788 
L 297.662512 232.443637 
L 314.196957 232.44615 
z
" clip-path="url(#pcd820513cb)" style="fill: #440154"/>
    <path d="M 182.08927 115.66098 
L 165.603464 115.027126 
L 164.62747 116.630164 
z
" clip-path="url(#pcd820513cb)" style="fill: #fbe723"/>
    <path d="M 182.08927 115.66098 
L 197.97734 131.524348 
L 198.567085 134.876265 
z
" clip-path="url(#pcd820513cb)" style="fill: #b8de29"/>
    <path d="M 198.567085 134.876265 
L 197.97734 131.524348 
L 215.052421 165.650402 
z
" clip-path="url(#pcd820513cb)" style="fill: #5ec962"/>
    <path d="M 231.344889 204.857403 
L 231.553693 205.447138 
L 215.052421 165.650402 
z
" clip-path="url(#pcd820513cb)" style="fill: #2f6b8e"/>
    <path d="M 248.071642 206.732243 
L 231.553693 205.447138 
L 248.054591 206.807183 
z
" clip-path="url(#pcd820513cb)" style="fill: #3e4989"/>
    <path d="M 248.054591 206.807183 
L 264.592319 206.732747 
L 248.071642 206.732243 
z
" clip-path="url(#pcd820513cb)" style="fill: #3e4989"/>
    <path d="M 281.130649 232.441125 
L 264.592319 206.732747 
L 281.497763 232.814863 
z
" clip-path="url(#pcd820513cb)" style="fill: #481b6d"/>
    <path d="M 281.497763 232.814863 
L 297.662512 232.443637 
L 281.130649 232.441125 
z
" clip-path="url(#pcd820513cb)" style="fill: #440154"/>
    <path d="M 314.196957 232.44615 
L 297.662512 232.443637 
L 298.221784 232.817434 
z
" clip-path="url(#pcd820513cb)" style="fill: #440154"/>
    <path d="M 164.62747 116.630164 
L 181.300133 123.10375 
L 182.08927 115.66098 
z
" clip-path="url(#pcd820513cb)" style="fill: #eae51a"/>
    <path d="M 182.08927 115.66098 
L 181.300133 123.10375 
L 197.97734 131.524348 
z
" clip-path="url(#pcd820513cb)" style="fill: #cde11d"/>
    <path d="M 197.97734 131.524348 
L 214.651698 166.546423 
L 215.052421 165.650402 
z
" clip-path="url(#pcd820513cb)" style="fill: #34b679"/>
    <path d="M 215.052421 165.650402 
L 214.651698 166.546423 
L 231.344889 204.857403 
z
" clip-path="url(#pcd820513cb)" style="fill: #25858e"/>
    <path d="M 248.054591 206.807183 
L 231.553693 205.447138 
L 231.344889 204.857403 
z
" clip-path="url(#pcd820513cb)" style="fill: #3e4c8a"/>
    <path d="M 248.054591 206.807183 
L 264.770161 215.257089 
L 264.592319 206.732747 
z
" clip-path="url(#pcd820513cb)" style="fill: #424186"/>
    <path d="M 264.592319 206.732747 
L 264.770161 215.257089 
L 281.497763 232.814863 
z
" clip-path="url(#pcd820513cb)" style="fill: #472c7a"/>
    <path d="M 281.497763 232.814863 
L 298.221784 232.817434 
L 297.662512 232.443637 
z
" clip-path="url(#pcd820513cb)" style="fill: #440154"/>
    <path d="M 298.221784 232.817434 
L 314.948448 232.820005 
L 314.196957 232.44615 
z
" clip-path="url(#pcd820513cb)" style="fill: #440154"/>
    <path d="M 180.496697 125.476733 
L 181.300133 123.10375 
L 164.62747 116.630164 
z
" clip-path="url(#pcd820513cb)" style="fill: #d5e21a"/>
    <path d="M 197.97734 131.524348 
L 181.300133 123.10375 
L 180.496697 125.476733 
z
" clip-path="url(#pcd820513cb)" style="fill: #b8de29"/>
    <path d="M 214.241549 167.463522 
L 214.651698 166.546423 
L 197.97734 131.524348 
z
" clip-path="url(#pcd820513cb)" style="fill: #31b57b"/>
    <path d="M 231.344889 204.857403 
L 214.651698 166.546423 
L 214.241549 167.463522 
z
" clip-path="url(#pcd820513cb)" style="fill: #25838e"/>
    <path d="M 231.344889 204.857403 
L 231.13086 206.883356 
L 248.054591 206.807183 
z
" clip-path="url(#pcd820513cb)" style="fill: #3e4a89"/>
    <path d="M 264.947294 210.172131 
L 264.770161 215.257089 
L 248.054591 206.807183 
z
" clip-path="url(#pcd820513cb)" style="fill: #423f85"/>
    <path d="M 281.497763 232.814863 
L 264.770161 215.257089 
L 264.947294 210.172131 
z
" clip-path="url(#pcd820513cb)" style="fill: #482878"/>
    <path d="M 298.794208 233.200021 
L 298.221784 232.817434 
L 281.497763 232.814863 
z
" clip-path="url(#pcd820513cb)" style="fill: #440154"/>
    <path d="M 315.717613 233.202653 
L 314.948448 232.820005 
L 298.221784 232.817434 
z
" clip-path="url(#pcd820513cb)" style="fill: #440154"/>
    <path d="M 164.62747 116.630164 
L 163.636295 111.060642 
L 180.496697 125.476733 
z
" clip-path="url(#pcd820513cb)" style="fill: #eae51a"/>
    <path d="M 180.496697 125.476733 
L 197.373009 129.405705 
L 197.97734 131.524348 
z
" clip-path="url(#pcd820513cb)" style="fill: #aadc32"/>
    <path d="M 197.97734 131.524348 
L 197.373009 129.405705 
L 214.241549 167.463522 
z
" clip-path="url(#pcd820513cb)" style="fill: #60ca60"/>
    <path d="M 214.241549 167.463522 
L 231.13086 206.883356 
L 231.344889 204.857403 
z
" clip-path="url(#pcd820513cb)" style="fill: #31688e"/>
    <path d="M 231.13086 206.883356 
L 248.037139 206.883883 
L 248.054591 206.807183 
z
" clip-path="url(#pcd820513cb)" style="fill: #3e4989"/>
    <path d="M 248.054591 206.807183 
L 248.037139 206.883883 
L 264.947294 210.172131 
z
" clip-path="url(#pcd820513cb)" style="fill: #404688"/>
    <path d="M 264.947294 210.172131 
L 281.873509 233.197389 
L 281.497763 232.814863 
z
" clip-path="url(#pcd820513cb)" style="fill: #48186a"/>
    <path d="M 281.497763 232.814863 
L 281.873509 233.197389 
L 298.794208 233.200021 
z
" clip-path="url(#pcd820513cb)" style="fill: #440154"/>
    <path d="M 298.221784 232.817434 
L 298.794208 233.200021 
L 315.717613 233.202653 
z
" clip-path="url(#pcd820513cb)" style="fill: #440154"/>
    <path d="M 179.6775 123.92507 
L 180.496697 125.476733 
L 163.636295 111.060642 
z
" clip-path="url(#pcd820513cb)" style="fill: #d8e219"/>
    <path d="M 197.373009 129.405705 
L 180.496697 125.476733 
L 179.6775 123.92507 
z
" clip-path="url(#pcd820513cb)" style="fill: #b5de2b"/>
    <path d="M 214.241549 167.463522 
L 197.373009 129.405705 
L 196.753537 128.564082 
z
" clip-path="url(#pcd820513cb)" style="fill: #63cb5f"/>
    <path d="M 230.912063 206.296648 
L 231.13086 206.883356 
L 214.241549 167.463522 
z
" clip-path="url(#pcd820513cb)" style="fill: #31678e"/>
    <path d="M 248.019272 206.962408 
L 248.037139 206.883883 
L 231.13086 206.883356 
z
" clip-path="url(#pcd820513cb)" style="fill: #3e4989"/>
    <path d="M 264.947294 210.172131 
L 248.037139 206.883883 
L 265.129571 207.628288 
z
" clip-path="url(#pcd820513cb)" style="fill: #404688"/>
    <path d="M 265.129571 207.628288 
L 281.873509 233.197389 
L 264.947294 210.172131 
z
" clip-path="url(#pcd820513cb)" style="fill: #472f7d"/>
    <path d="M 298.794208 233.200021 
L 281.873509 233.197389 
L 299.380254 233.591712 
z
" clip-path="url(#pcd820513cb)" style="fill: #440154"/>
    <path d="M 315.717613 233.202653 
L 298.794208 233.200021 
L 299.380254 233.591712 
z
" clip-path="url(#pcd820513cb)" style="fill: #440154"/>
    <path d="M 179.6775 123.92507 
L 163.636295 111.060642 
L 162.61446 111.991231 
z
" clip-path="url(#pcd820513cb)" style="fill: #efe51c"/>
    <path d="M 196.753537 128.564082 
L 197.373009 129.405705 
L 179.6775 123.92507 
z
" clip-path="url(#pcd820513cb)" style="fill: #addc30"/>
    <path d="M 196.753537 128.564082 
L 213.819926 173.05387 
L 214.241549 167.463522 
z
" clip-path="url(#pcd820513cb)" style="fill: #2cb17e"/>
    <path d="M 214.241549 167.463522 
L 213.819926 173.05387 
L 230.912063 206.296648 
z
" clip-path="url(#pcd820513cb)" style="fill: #277e8e"/>
    <path d="M 248.019272 206.962408 
L 231.13086 206.883356 
L 230.912063 206.296648 
z
" clip-path="url(#pcd820513cb)" style="fill: #3e4989"/>
    <path d="M 248.037139 206.883883 
L 248.019272 206.962408 
L 265.129571 207.628288 
z
" clip-path="url(#pcd820513cb)" style="fill: #3f4889"/>
    <path d="M 282.258196 233.589017 
L 281.873509 233.197389 
L 265.129571 207.628288 
z
" clip-path="url(#pcd820513cb)" style="fill: #481b6d"/>
    <path d="M 299.380254 233.591712 
L 281.873509 233.197389 
L 282.258196 233.589017 
z
" clip-path="url(#pcd820513cb)" style="fill: #440154"/>
    <path d="M 299.380254 233.591712 
L 316.505083 233.594408 
L 315.717613 233.202653 
z
" clip-path="url(#pcd820513cb)" style="fill: #440154"/>
    <path d="M 162.61446 111.991231 
L 161.570996 110.259469 
L 179.6775 123.92507 
z
" clip-path="url(#pcd820513cb)" style="fill: #ece51b"/>
    <path d="M 196.116681 131.732106 
L 196.753537 128.564082 
L 179.6775 123.92507 
z
" clip-path="url(#pcd820513cb)" style="fill: #a5db36"/>
    <path d="M 213.819926 173.05387 
L 196.753537 128.564082 
L 196.116681 131.732106 
z
" clip-path="url(#pcd820513cb)" style="fill: #54c568"/>
    <path d="M 213.819926 173.05387 
L 230.688004 205.695833 
L 230.912063 206.296648 
z
" clip-path="url(#pcd820513cb)" style="fill: #32648e"/>
    <path d="M 248.000976 207.042823 
L 248.019272 206.962408 
L 230.912063 206.296648 
z
" clip-path="url(#pcd820513cb)" style="fill: #3e4989"/>
    <path d="M 248.000976 207.042823 
L 265.129571 207.628288 
L 248.019272 206.962408 
z
" clip-path="url(#pcd820513cb)" style="fill: #3f4889"/>
    <path d="M 265.129571 207.628288 
L 282.652147 233.990076 
L 282.258196 233.589017 
z
" clip-path="url(#pcd820513cb)" style="fill: #481b6d"/>
    <path d="M 282.258196 233.589017 
L 282.652147 233.990076 
L 299.380254 233.591712 
z
" clip-path="url(#pcd820513cb)" style="fill: #440154"/>
    <path d="M 317.311519 233.995597 
L 316.505083 233.594408 
L 299.380254 233.591712 
z
" clip-path="url(#pcd820513cb)" style="fill: #440154"/>
    <path d="M 161.570996 110.259469 
L 178.84792 111.594581 
L 179.6775 123.92507 
z
" clip-path="url(#pcd820513cb)" style="fill: #ece51b"/>
    <path d="M 179.6775 123.92507 
L 178.84792 111.594581 
L 196.116681 131.732106 
z
" clip-path="url(#pcd820513cb)" style="fill: #c5e021"/>
    <path d="M 196.116681 131.732106 
L 213.389095 176.089207 
L 213.819926 173.05387 
z
" clip-path="url(#pcd820513cb)" style="fill: #22a884"/>
    <path d="M 213.819926 173.05387 
L 213.389095 176.089207 
L 230.688004 205.695833 
z
" clip-path="url(#pcd820513cb)" style="fill: #2a788e"/>
    <path d="M 230.912063 206.296648 
L 230.688004 205.695833 
L 248.000976 207.042823 
z
" clip-path="url(#pcd820513cb)" style="fill: #3e4a89"/>
    <path d="M 265.316954 207.043376 
L 265.129571 207.628288 
L 248.000976 207.042823 
z
" clip-path="url(#pcd820513cb)" style="fill: #3f4889"/>
    <path d="M 265.129571 207.628288 
L 265.316954 207.043376 
L 282.652147 233.990076 
z
" clip-path="url(#pcd820513cb)" style="fill: #46327e"/>
    <path d="M 282.652147 233.990076 
L 299.980414 233.992837 
L 299.380254 233.591712 
z
" clip-path="url(#pcd820513cb)" style="fill: #440154"/>
    <path d="M 299.380254 233.591712 
L 299.980414 233.992837 
L 317.311519 233.995597 
z
" clip-path="url(#pcd820513cb)" style="fill: #440154"/>
    <path d="M 177.982357 117.310803 
L 178.84792 111.594581 
L 161.570996 110.259469 
z
" clip-path="url(#pcd820513cb)" style="fill: #f4e61e"/>
    <path d="M 196.116681 131.732106 
L 178.84792 111.594581 
L 177.982357 117.310803 
z
" clip-path="url(#pcd820513cb)" style="fill: #cde11d"/>
    <path d="M 212.948509 177.156293 
L 213.389095 176.089207 
L 196.116681 131.732106 
z
" clip-path="url(#pcd820513cb)" style="fill: #21a585"/>
    <path d="M 230.688004 205.695833 
L 213.389095 176.089207 
L 212.948509 177.156293 
z
" clip-path="url(#pcd820513cb)" style="fill: #2b758e"/>
    <path d="M 230.688004 205.695833 
L 230.458223 207.12463 
L 248.000976 207.042823 
z
" clip-path="url(#pcd820513cb)" style="fill: #3e4989"/>
    <path d="M 265.510142 209.852047 
L 265.316954 207.043376 
L 248.000976 207.042823 
z
" clip-path="url(#pcd820513cb)" style="fill: #3f4788"/>
    <path d="M 265.316954 207.043376 
L 283.0557 234.400911 
L 282.652147 233.990076 
z
" clip-path="url(#pcd820513cb)" style="fill: #481b6d"/>
    <path d="M 300.595204 234.403739 
L 299.980414 233.992837 
L 282.652147 233.990076 
z
" clip-path="url(#pcd820513cb)" style="fill: #440154"/>
    <path d="M 317.311519 233.995597 
L 299.980414 233.992837 
L 300.595204 234.403739 
z
" clip-path="url(#pcd820513cb)" style="fill: #440154"/>
    <path d="M 177.982357 117.310803 
L 161.570996 110.259469 
L 160.499121 111.202942 
z
" clip-path="url(#pcd820513cb)" style="fill: #f1e51d"/>
    <path d="M 177.982357 117.310803 
L 195.468102 128.858776 
L 196.116681 131.732106 
z
" clip-path="url(#pcd820513cb)" style="fill: #aadc32"/>
    <path d="M 196.116681 131.732106 
L 195.468102 128.858776 
L 212.948509 177.156293 
z
" clip-path="url(#pcd820513cb)" style="fill: #4ac16d"/>
    <path d="M 212.948509 177.156293 
L 230.458223 207.12463 
L 230.688004 205.695833 
z
" clip-path="url(#pcd820513cb)" style="fill: #34608d"/>
    <path d="M 230.458223 207.12463 
L 247.982233 207.125196 
L 248.000976 207.042823 
z
" clip-path="url(#pcd820513cb)" style="fill: #3e4989"/>
    <path d="M 248.000976 207.042823 
L 247.982233 207.125196 
L 265.510142 209.852047 
z
" clip-path="url(#pcd820513cb)" style="fill: #3f4788"/>
    <path d="M 265.510142 209.852047 
L 283.0557 234.400911 
L 265.316954 207.043376 
z
" clip-path="url(#pcd820513cb)" style="fill: #46307e"/>
    <path d="M 282.652147 233.990076 
L 283.0557 234.400911 
L 300.595204 234.403739 
z
" clip-path="url(#pcd820513cb)" style="fill: #440154"/>
    <path d="M 318.137615 234.406568 
L 317.311519 233.995597 
L 300.595204 234.403739 
z
" clip-path="url(#pcd820513cb)" style="fill: #440154"/>
   </g>
  </g>
 </g>
 <defs>
  <clipPath id="pcd820513cb">
   <rect x="103.104" y="41.472" width="266.112" height="266.112"/>
  </clipPath>
 </defs>
</svg>
