<?xml version="1.0" encoding="utf-8" standalone="no"?>
<!DOCTYPE svg PUBLIC "-//W3C//DTD SVG 1.1//EN"
  "http://www.w3.org/Graphics/SVG/1.1/DTD/svg11.dtd">
<svg xmlns:xlink="http://www.w3.org/1999/xlink" width="460.8pt" height="345.6pt" viewBox="0 0 460.8 345.6" xmlns="http://www.w3.org/2000/svg" version="1.1">
 <metadata>
  <rdf:RDF xmlns:dc="http://purl.org/dc/elements/1.1/" xmlns:cc="http://creativecommons.org/ns#" xmlns:rdf="http://www.w3.org/1999/02/22-rdf-syntax-ns#">
   <cc:Work>
    <dc:type rdf:resource="http://purl.org/dc/dcmitype/StillImage"/>
    <dc:date>2022-03-08T01:50:36.462864</dc:date>
    <dc:format>image/svg+xml</dc:format>
    <dc:creator>
     <cc:Agent>
      <dc:title>Matplotlib v3.5.1, https://matplotlib.org/</dc:title>
     </cc:Agent>
    </dc:creator>
   </cc:Work>
  </rdf:RDF>
 </metadata>
 <defs>
  <style type="text/css">*{stroke-linejoin: round; stroke-linecap: butt}</style>
 </defs>
 <g id="figure_1">
  <g id="patch_1">
   <path d="M 0 345.6 
L 460.8 345.6 
L 460.8 0 
L 0 0 
z
" style="fill: #ffffff"/>
  </g>
  <g id="patch_2">
   <path d="M 103.104 307.584 
L 369.216 307.584 
L 369.216 41.472 
L 103.104 41.472 
z
" style="fill: #ffffff"/>
  </g>
  <g id="pane3d_1">
   <g id="patch_3">
    <path d="M 161.175635 234.323545 
L 322.986164 234.367858 
L 322.747707 113.021115 
L 161.400085 113.346451 
" style="fill: #f2f2f2; opacity: 0.5; stroke: #f2f2f2; stroke-linejoin: miter"/>
   </g>
  </g>
  <g id="pane3d_2">
   <g id="patch_4">
    <path d="M 161.175635 234.323545 
L 146.288654 236.152625 
L 146.589274 99.922351 
L 161.400085 113.346451 
" style="fill: #e6e6e6; opacity: 0.5; stroke: #e6e6e6; stroke-linejoin: miter"/>
   </g>
  </g>
  <g id="pane3d_3">
   <g id="patch_5">
    <path d="M 161.400085 113.346451 
L 146.589274 99.922351 
L 328.291285 99.50968 
L 322.747707 113.021115 
" style="fill: #ececec; opacity: 0.5; stroke: #ececec; stroke-linejoin: miter"/>
   </g>
  </g>
  <g id="axis3d_1">
   <g id="line2d_1">
    <path d="M 322.747707 113.021115 
L 328.291285 99.50968 
" style="fill: none; stroke: #000000; stroke-width: 0.8; stroke-linecap: square"/>
   </g>
   <g id="text_1">
    <!-- Time -->
    <g transform="translate(344.004976 86.239874)scale(0.1 -0.1)">
     <defs>
      <path id="DejaVuSans-54" d="M -19 4666 
L 3928 4666 
L 3928 4134 
L 2272 4134 
L 2272 0 
L 1638 0 
L 1638 4134 
L -19 4134 
L -19 4666 
z
" transform="scale(0.015625)"/>
      <path id="DejaVuSans-69" d="M 603 3500 
L 1178 3500 
L 1178 0 
L 603 0 
L 603 3500 
z
M 603 4863 
L 1178 4863 
L 1178 4134 
L 603 4134 
L 603 4863 
z
" transform="scale(0.015625)"/>
      <path id="DejaVuSans-6d" d="M 3328 2828 
Q 3544 3216 3844 3400 
Q 4144 3584 4550 3584 
Q 5097 3584 5394 3201 
Q 5691 2819 5691 2113 
L 5691 0 
L 5113 0 
L 5113 2094 
Q 5113 2597 4934 2840 
Q 4756 3084 4391 3084 
Q 3944 3084 3684 2787 
Q 3425 2491 3425 1978 
L 3425 0 
L 2847 0 
L 2847 2094 
Q 2847 2600 2669 2842 
Q 2491 3084 2119 3084 
Q 1678 3084 1418 2786 
Q 1159 2488 1159 1978 
L 1159 0 
L 581 0 
L 581 3500 
L 1159 3500 
L 1159 2956 
Q 1356 3278 1631 3431 
Q 1906 3584 2284 3584 
Q 2666 3584 2933 3390 
Q 3200 3197 3328 2828 
z
" transform="scale(0.015625)"/>
      <path id="DejaVuSans-65" d="M 3597 1894 
L 3597 1613 
L 953 1613 
Q 991 1019 1311 708 
Q 1631 397 2203 397 
Q 2534 397 2845 478 
Q 3156 559 3463 722 
L 3463 178 
Q 3153 47 2828 -22 
Q 2503 -91 2169 -91 
Q 1331 -91 842 396 
Q 353 884 353 1716 
Q 353 2575 817 3079 
Q 1281 3584 2069 3584 
Q 2775 3584 3186 3129 
Q 3597 2675 3597 1894 
z
M 3022 2063 
Q 3016 2534 2758 2815 
Q 2500 3097 2075 3097 
Q 1594 3097 1305 2825 
Q 1016 2553 972 2059 
L 3022 2063 
z
" transform="scale(0.015625)"/>
     </defs>
     <use xlink:href="#DejaVuSans-54"/>
     <use xlink:href="#DejaVuSans-69" x="57.958984"/>
     <use xlink:href="#DejaVuSans-6d" x="85.742188"/>
     <use xlink:href="#DejaVuSans-65" x="183.154297"/>
    </g>
   </g>
   <g id="Line3DCollection_1">
    <path d="M 323.063128 112.252335 
L 160.557067 112.582363 
L 160.32857 234.427619 
" style="fill: none; stroke: #b0b0b0; stroke-width: 0.8"/>
    <path d="M 323.676663 110.75696 
L 158.917394 111.09621 
L 158.680926 234.630056 
" style="fill: none; stroke: #b0b0b0; stroke-width: 0.8"/>
    <path d="M 324.30749 109.219437 
L 157.231652 109.568301 
L 156.986851 234.838197 
" style="fill: none; stroke: #b0b0b0; stroke-width: 0.8"/>
    <path d="M 324.956351 107.637959 
L 155.497871 107.996852 
L 155.244356 235.052288 
" style="fill: none; stroke: #b0b0b0; stroke-width: 0.8"/>
    <path d="M 325.624031 106.010613 
L 153.71397 106.379973 
L 153.451333 235.272587 
" style="fill: none; stroke: #b0b0b0; stroke-width: 0.8"/>
    <path d="M 326.31136 104.335376 
L 151.877741 104.715668 
L 151.605553 235.499367 
" style="fill: none; stroke: #b0b0b0; stroke-width: 0.8"/>
    <path d="M 327.01922 102.6101 
L 149.986849 103.001817 
L 149.704653 235.73292 
" style="fill: none; stroke: #b0b0b0; stroke-width: 0.8"/>
    <path d="M 327.748543 100.832511 
L 148.038816 101.236175 
L 147.746126 235.973553 
" style="fill: none; stroke: #b0b0b0; stroke-width: 0.8"/>
   </g>
   <g id="xtick_1">
    <g id="line2d_2">
     <path d="M 321.759112 112.254983 
L 325.671353 112.247038 
" style="fill: none; stroke: #000000; stroke-width: 0.8; stroke-linecap: square"/>
    </g>
    <g id="text_2">
     <!-- 0.00 -->
     <g transform="translate(325.435613 109.711479)scale(0.1 -0.1)">
      <defs>
       <path id="DejaVuSans-30" d="M 2034 4250 
Q 1547 4250 1301 3770 
Q 1056 3291 1056 2328 
Q 1056 1369 1301 889 
Q 1547 409 2034 409 
Q 2525 409 2770 889 
Q 3016 1369 3016 2328 
Q 3016 3291 2770 3770 
Q 2525 4250 2034 4250 
z
M 2034 4750 
Q 2819 4750 3233 4129 
Q 3647 3509 3647 2328 
Q 3647 1150 3233 529 
Q 2819 -91 2034 -91 
Q 1250 -91 836 529 
Q 422 1150 422 2328 
Q 422 3509 836 4129 
Q 1250 4750 2034 4750 
z
" transform="scale(0.015625)"/>
       <path id="DejaVuSans-2e" d="M 684 794 
L 1344 794 
L 1344 0 
L 684 0 
L 684 794 
z
" transform="scale(0.015625)"/>
      </defs>
      <use xlink:href="#DejaVuSans-30"/>
      <use xlink:href="#DejaVuSans-2e" x="63.623047"/>
      <use xlink:href="#DejaVuSans-30" x="95.410156"/>
      <use xlink:href="#DejaVuSans-30" x="159.033203"/>
     </g>
    </g>
   </g>
   <g id="xtick_2">
    <g id="line2d_3">
     <path d="M 322.35451 110.759682 
L 326.321166 110.751515 
" style="fill: none; stroke: #000000; stroke-width: 0.8; stroke-linecap: square"/>
    </g>
    <g id="text_3">
     <!-- 0.05 -->
     <g transform="translate(326.236841 108.075173)scale(0.1 -0.1)">
      <defs>
       <path id="DejaVuSans-35" d="M 691 4666 
L 3169 4666 
L 3169 4134 
L 1269 4134 
L 1269 2991 
Q 1406 3038 1543 3061 
Q 1681 3084 1819 3084 
Q 2600 3084 3056 2656 
Q 3513 2228 3513 1497 
Q 3513 744 3044 326 
Q 2575 -91 1722 -91 
Q 1428 -91 1123 -41 
Q 819 9 494 109 
L 494 744 
Q 775 591 1075 516 
Q 1375 441 1709 441 
Q 2250 441 2565 725 
Q 2881 1009 2881 1497 
Q 2881 1984 2565 2268 
Q 2250 2553 1709 2553 
Q 1456 2553 1204 2497 
Q 953 2441 691 2322 
L 691 4666 
z
" transform="scale(0.015625)"/>
      </defs>
      <use xlink:href="#DejaVuSans-30"/>
      <use xlink:href="#DejaVuSans-2e" x="63.623047"/>
      <use xlink:href="#DejaVuSans-30" x="95.410156"/>
      <use xlink:href="#DejaVuSans-35" x="159.033203"/>
     </g>
    </g>
   </g>
   <g id="xtick_3">
    <g id="line2d_4">
     <path d="M 322.966689 109.222236 
L 326.989295 109.213837 
" style="fill: none; stroke: #000000; stroke-width: 0.8; stroke-linecap: square"/>
    </g>
    <g id="text_4">
     <!-- 0.10 -->
     <g transform="translate(327.060652 106.392747)scale(0.1 -0.1)">
      <defs>
       <path id="DejaVuSans-31" d="M 794 531 
L 1825 531 
L 1825 4091 
L 703 3866 
L 703 4441 
L 1819 4666 
L 2450 4666 
L 2450 531 
L 3481 531 
L 3481 0 
L 794 0 
L 794 531 
z
" transform="scale(0.015625)"/>
      </defs>
      <use xlink:href="#DejaVuSans-30"/>
      <use xlink:href="#DejaVuSans-2e" x="63.623047"/>
      <use xlink:href="#DejaVuSans-31" x="95.410156"/>
      <use xlink:href="#DejaVuSans-30" x="159.033203"/>
     </g>
    </g>
   </g>
   <g id="xtick_4">
    <g id="line2d_5">
     <path d="M 323.596368 107.640839 
L 327.676525 107.632198 
" style="fill: none; stroke: #000000; stroke-width: 0.8; stroke-linecap: square"/>
    </g>
    <g id="text_5">
     <!-- 0.15 -->
     <g transform="translate(327.908016 104.662222)scale(0.1 -0.1)">
      <use xlink:href="#DejaVuSans-30"/>
      <use xlink:href="#DejaVuSans-2e" x="63.623047"/>
      <use xlink:href="#DejaVuSans-31" x="95.410156"/>
      <use xlink:href="#DejaVuSans-35" x="159.033203"/>
     </g>
    </g>
   </g>
   <g id="xtick_5">
    <g id="line2d_6">
     <path d="M 324.24431 106.013578 
L 328.383688 106.004684 
" style="fill: none; stroke: #000000; stroke-width: 0.8; stroke-linecap: square"/>
    </g>
    <g id="text_6">
     <!-- 0.20 -->
     <g transform="translate(328.779955 102.881506)scale(0.1 -0.1)">
      <defs>
       <path id="DejaVuSans-32" d="M 1228 531 
L 3431 531 
L 3431 0 
L 469 0 
L 469 531 
Q 828 903 1448 1529 
Q 2069 2156 2228 2338 
Q 2531 2678 2651 2914 
Q 2772 3150 2772 3378 
Q 2772 3750 2511 3984 
Q 2250 4219 1831 4219 
Q 1534 4219 1204 4116 
Q 875 4013 500 3803 
L 500 4441 
Q 881 4594 1212 4672 
Q 1544 4750 1819 4750 
Q 2544 4750 2975 4387 
Q 3406 4025 3406 3419 
Q 3406 3131 3298 2873 
Q 3191 2616 2906 2266 
Q 2828 2175 2409 1742 
Q 1991 1309 1228 531 
z
" transform="scale(0.015625)"/>
      </defs>
      <use xlink:href="#DejaVuSans-30"/>
      <use xlink:href="#DejaVuSans-2e" x="63.623047"/>
      <use xlink:href="#DejaVuSans-32" x="95.410156"/>
      <use xlink:href="#DejaVuSans-30" x="159.033203"/>
     </g>
    </g>
   </g>
   <g id="xtick_6">
    <g id="line2d_7">
     <path d="M 324.91132 104.338428 
L 329.111664 104.329271 
" style="fill: none; stroke: #000000; stroke-width: 0.8; stroke-linecap: square"/>
    </g>
    <g id="text_7">
     <!-- 0.25 -->
     <g transform="translate(329.677556 101.048384)scale(0.1 -0.1)">
      <use xlink:href="#DejaVuSans-30"/>
      <use xlink:href="#DejaVuSans-2e" x="63.623047"/>
      <use xlink:href="#DejaVuSans-32" x="95.410156"/>
      <use xlink:href="#DejaVuSans-35" x="159.033203"/>
     </g>
    </g>
   </g>
   <g id="xtick_7">
    <g id="line2d_8">
     <path d="M 325.598252 102.613244 
L 329.861385 102.603811 
" style="fill: none; stroke: #000000; stroke-width: 0.8; stroke-linecap: square"/>
    </g>
    <g id="text_8">
     <!-- 0.30 -->
     <g transform="translate(330.601968 99.160506)scale(0.1 -0.1)">
      <defs>
       <path id="DejaVuSans-33" d="M 2597 2516 
Q 3050 2419 3304 2112 
Q 3559 1806 3559 1356 
Q 3559 666 3084 287 
Q 2609 -91 1734 -91 
Q 1441 -91 1130 -33 
Q 819 25 488 141 
L 488 750 
Q 750 597 1062 519 
Q 1375 441 1716 441 
Q 2309 441 2620 675 
Q 2931 909 2931 1356 
Q 2931 1769 2642 2001 
Q 2353 2234 1838 2234 
L 1294 2234 
L 1294 2753 
L 1863 2753 
Q 2328 2753 2575 2939 
Q 2822 3125 2822 3475 
Q 2822 3834 2567 4026 
Q 2313 4219 1838 4219 
Q 1578 4219 1281 4162 
Q 984 4106 628 3988 
L 628 4550 
Q 988 4650 1302 4700 
Q 1616 4750 1894 4750 
Q 2613 4750 3031 4423 
Q 3450 4097 3450 3541 
Q 3450 3153 3228 2886 
Q 3006 2619 2597 2516 
z
" transform="scale(0.015625)"/>
      </defs>
      <use xlink:href="#DejaVuSans-30"/>
      <use xlink:href="#DejaVuSans-2e" x="63.623047"/>
      <use xlink:href="#DejaVuSans-33" x="95.410156"/>
      <use xlink:href="#DejaVuSans-30" x="159.033203"/>
     </g>
    </g>
   </g>
   <g id="xtick_8">
    <g id="line2d_9">
     <path d="M 326.306012 100.835751 
L 330.633841 100.82603 
" style="fill: none; stroke: #000000; stroke-width: 0.8; stroke-linecap: square"/>
    </g>
    <g id="text_9">
     <!-- 0.35 -->
     <g transform="translate(331.55441 97.215384)scale(0.1 -0.1)">
      <use xlink:href="#DejaVuSans-30"/>
      <use xlink:href="#DejaVuSans-2e" x="63.623047"/>
      <use xlink:href="#DejaVuSans-33" x="95.410156"/>
      <use xlink:href="#DejaVuSans-35" x="159.033203"/>
     </g>
    </g>
   </g>
  </g>
  <g id="axis3d_2">
   <g id="line2d_10">
    <path d="M 146.589274 99.922351 
L 328.291285 99.50968 
" style="fill: none; stroke: #000000; stroke-width: 0.8; stroke-linecap: square"/>
   </g>
   <g id="text_10">
    <!-- Consumers -->
    <g transform="translate(208.222527 74.649232)rotate(-0.130127)scale(0.1 -0.1)">
     <defs>
      <path id="DejaVuSans-43" d="M 4122 4306 
L 4122 3641 
Q 3803 3938 3442 4084 
Q 3081 4231 2675 4231 
Q 1875 4231 1450 3742 
Q 1025 3253 1025 2328 
Q 1025 1406 1450 917 
Q 1875 428 2675 428 
Q 3081 428 3442 575 
Q 3803 722 4122 1019 
L 4122 359 
Q 3791 134 3420 21 
Q 3050 -91 2638 -91 
Q 1578 -91 968 557 
Q 359 1206 359 2328 
Q 359 3453 968 4101 
Q 1578 4750 2638 4750 
Q 3056 4750 3426 4639 
Q 3797 4528 4122 4306 
z
" transform="scale(0.015625)"/>
      <path id="DejaVuSans-6f" d="M 1959 3097 
Q 1497 3097 1228 2736 
Q 959 2375 959 1747 
Q 959 1119 1226 758 
Q 1494 397 1959 397 
Q 2419 397 2687 759 
Q 2956 1122 2956 1747 
Q 2956 2369 2687 2733 
Q 2419 3097 1959 3097 
z
M 1959 3584 
Q 2709 3584 3137 3096 
Q 3566 2609 3566 1747 
Q 3566 888 3137 398 
Q 2709 -91 1959 -91 
Q 1206 -91 779 398 
Q 353 888 353 1747 
Q 353 2609 779 3096 
Q 1206 3584 1959 3584 
z
" transform="scale(0.015625)"/>
      <path id="DejaVuSans-6e" d="M 3513 2113 
L 3513 0 
L 2938 0 
L 2938 2094 
Q 2938 2591 2744 2837 
Q 2550 3084 2163 3084 
Q 1697 3084 1428 2787 
Q 1159 2491 1159 1978 
L 1159 0 
L 581 0 
L 581 3500 
L 1159 3500 
L 1159 2956 
Q 1366 3272 1645 3428 
Q 1925 3584 2291 3584 
Q 2894 3584 3203 3211 
Q 3513 2838 3513 2113 
z
" transform="scale(0.015625)"/>
      <path id="DejaVuSans-73" d="M 2834 3397 
L 2834 2853 
Q 2591 2978 2328 3040 
Q 2066 3103 1784 3103 
Q 1356 3103 1142 2972 
Q 928 2841 928 2578 
Q 928 2378 1081 2264 
Q 1234 2150 1697 2047 
L 1894 2003 
Q 2506 1872 2764 1633 
Q 3022 1394 3022 966 
Q 3022 478 2636 193 
Q 2250 -91 1575 -91 
Q 1294 -91 989 -36 
Q 684 19 347 128 
L 347 722 
Q 666 556 975 473 
Q 1284 391 1588 391 
Q 1994 391 2212 530 
Q 2431 669 2431 922 
Q 2431 1156 2273 1281 
Q 2116 1406 1581 1522 
L 1381 1569 
Q 847 1681 609 1914 
Q 372 2147 372 2553 
Q 372 3047 722 3315 
Q 1072 3584 1716 3584 
Q 2034 3584 2315 3537 
Q 2597 3491 2834 3397 
z
" transform="scale(0.015625)"/>
      <path id="DejaVuSans-75" d="M 544 1381 
L 544 3500 
L 1119 3500 
L 1119 1403 
Q 1119 906 1312 657 
Q 1506 409 1894 409 
Q 2359 409 2629 706 
Q 2900 1003 2900 1516 
L 2900 3500 
L 3475 3500 
L 3475 0 
L 2900 0 
L 2900 538 
Q 2691 219 2414 64 
Q 2138 -91 1772 -91 
Q 1169 -91 856 284 
Q 544 659 544 1381 
z
M 1991 3584 
L 1991 3584 
z
" transform="scale(0.015625)"/>
      <path id="DejaVuSans-72" d="M 2631 2963 
Q 2534 3019 2420 3045 
Q 2306 3072 2169 3072 
Q 1681 3072 1420 2755 
Q 1159 2438 1159 1844 
L 1159 0 
L 581 0 
L 581 3500 
L 1159 3500 
L 1159 2956 
Q 1341 3275 1631 3429 
Q 1922 3584 2338 3584 
Q 2397 3584 2469 3576 
Q 2541 3569 2628 3553 
L 2631 2963 
z
" transform="scale(0.015625)"/>
     </defs>
     <use xlink:href="#DejaVuSans-43"/>
     <use xlink:href="#DejaVuSans-6f" x="69.824219"/>
     <use xlink:href="#DejaVuSans-6e" x="131.005859"/>
     <use xlink:href="#DejaVuSans-73" x="194.384766"/>
     <use xlink:href="#DejaVuSans-75" x="246.484375"/>
     <use xlink:href="#DejaVuSans-6d" x="309.863281"/>
     <use xlink:href="#DejaVuSans-65" x="407.275391"/>
     <use xlink:href="#DejaVuSans-72" x="468.798828"/>
     <use xlink:href="#DejaVuSans-73" x="509.912109"/>
    </g>
   </g>
   <g id="Line3DCollection_2">
    <path d="M 187.096736 234.330644 
L 187.247221 113.294334 
L 175.687677 99.856264 
" style="fill: none; stroke: #b0b0b0; stroke-width: 0.8"/>
    <path d="M 218.431616 234.339225 
L 218.492592 113.231332 
L 210.868141 99.776364 
" style="fill: none; stroke: #b0b0b0; stroke-width: 0.8"/>
    <path d="M 249.803677 234.347816 
L 249.77493 113.168255 
L 246.095485 99.696358 
" style="fill: none; stroke: #b0b0b0; stroke-width: 0.8"/>
    <path d="M 281.212983 234.356418 
L 281.094301 113.105103 
L 281.369801 99.616245 
" style="fill: none; stroke: #b0b0b0; stroke-width: 0.8"/>
    <path d="M 312.659601 234.36503 
L 312.450771 113.041877 
L 316.691184 99.536025 
" style="fill: none; stroke: #b0b0b0; stroke-width: 0.8"/>
   </g>
   <g id="xtick_9">
    <g id="line2d_11">
     <path d="M 175.79171 99.977203 
L 175.47898 99.613652 
" style="fill: none; stroke: #000000; stroke-width: 0.8; stroke-linecap: square"/>
    </g>
    <g id="text_11">
     <!-- 2 -->
     <g transform="translate(171.432509 94.79683)scale(0.1 -0.1)">
      <use xlink:href="#DejaVuSans-32"/>
     </g>
    </g>
   </g>
   <g id="xtick_10">
    <g id="line2d_12">
     <path d="M 210.936764 99.897465 
L 210.730478 99.533429 
" style="fill: none; stroke: #000000; stroke-width: 0.8; stroke-linecap: square"/>
    </g>
    <g id="text_12">
     <!-- 4 -->
     <g transform="translate(206.974896 94.707592)scale(0.1 -0.1)">
      <defs>
       <path id="DejaVuSans-34" d="M 2419 4116 
L 825 1625 
L 2419 1625 
L 2419 4116 
z
M 2253 4666 
L 3047 4666 
L 3047 1625 
L 3713 1625 
L 3713 1100 
L 3047 1100 
L 3047 0 
L 2419 0 
L 2419 1100 
L 313 1100 
L 313 1709 
L 2253 4666 
z
" transform="scale(0.015625)"/>
      </defs>
      <use xlink:href="#DejaVuSans-34"/>
     </g>
    </g>
   </g>
   <g id="xtick_11">
    <g id="line2d_13">
     <path d="M 246.128604 99.81762 
L 246.029046 99.453098 
" style="fill: none; stroke: #000000; stroke-width: 0.8; stroke-linecap: square"/>
    </g>
    <g id="text_13">
     <!-- 6 -->
     <g transform="translate(242.565132 94.618234)scale(0.1 -0.1)">
      <defs>
       <path id="DejaVuSans-36" d="M 2113 2584 
Q 1688 2584 1439 2293 
Q 1191 2003 1191 1497 
Q 1191 994 1439 701 
Q 1688 409 2113 409 
Q 2538 409 2786 701 
Q 3034 994 3034 1497 
Q 3034 2003 2786 2293 
Q 2538 2584 2113 2584 
z
M 3366 4563 
L 3366 3988 
Q 3128 4100 2886 4159 
Q 2644 4219 2406 4219 
Q 1781 4219 1451 3797 
Q 1122 3375 1075 2522 
Q 1259 2794 1537 2939 
Q 1816 3084 2150 3084 
Q 2853 3084 3261 2657 
Q 3669 2231 3669 1497 
Q 3669 778 3244 343 
Q 2819 -91 2113 -91 
Q 1303 -91 875 529 
Q 447 1150 447 2328 
Q 447 3434 972 4092 
Q 1497 4750 2381 4750 
Q 2619 4750 2861 4703 
Q 3103 4656 3366 4563 
z
" transform="scale(0.015625)"/>
      </defs>
      <use xlink:href="#DejaVuSans-36"/>
     </g>
    </g>
   </g>
   <g id="xtick_12">
    <g id="line2d_14">
     <path d="M 281.367321 99.737668 
L 281.374776 99.37266 
" style="fill: none; stroke: #000000; stroke-width: 0.8; stroke-linecap: square"/>
    </g>
    <g id="text_14">
     <!-- 8 -->
     <g transform="translate(278.203316 94.528755)scale(0.1 -0.1)">
      <defs>
       <path id="DejaVuSans-38" d="M 2034 2216 
Q 1584 2216 1326 1975 
Q 1069 1734 1069 1313 
Q 1069 891 1326 650 
Q 1584 409 2034 409 
Q 2484 409 2743 651 
Q 3003 894 3003 1313 
Q 3003 1734 2745 1975 
Q 2488 2216 2034 2216 
z
M 1403 2484 
Q 997 2584 770 2862 
Q 544 3141 544 3541 
Q 544 4100 942 4425 
Q 1341 4750 2034 4750 
Q 2731 4750 3128 4425 
Q 3525 4100 3525 3541 
Q 3525 3141 3298 2862 
Q 3072 2584 2669 2484 
Q 3125 2378 3379 2068 
Q 3634 1759 3634 1313 
Q 3634 634 3220 271 
Q 2806 -91 2034 -91 
Q 1263 -91 848 271 
Q 434 634 434 1313 
Q 434 1759 690 2068 
Q 947 2378 1403 2484 
z
M 1172 3481 
Q 1172 3119 1398 2916 
Q 1625 2713 2034 2713 
Q 2441 2713 2670 2916 
Q 2900 3119 2900 3481 
Q 2900 3844 2670 4047 
Q 2441 4250 2034 4250 
Q 1625 4250 1398 4047 
Q 1172 3844 1172 3481 
z
" transform="scale(0.015625)"/>
      </defs>
      <use xlink:href="#DejaVuSans-38"/>
     </g>
    </g>
   </g>
   <g id="xtick_13">
    <g id="line2d_15">
     <path d="M 316.65301 99.657611 
L 316.767764 99.292115 
" style="fill: none; stroke: #000000; stroke-width: 0.8; stroke-linecap: square"/>
    </g>
    <g id="text_15">
     <!-- 10 -->
     <g transform="translate(310.708292 94.439156)scale(0.1 -0.1)">
      <use xlink:href="#DejaVuSans-31"/>
      <use xlink:href="#DejaVuSans-30" x="63.623047"/>
     </g>
    </g>
   </g>
  </g>
  <g id="axis3d_3">
   <g id="line2d_16">
    <path d="M 146.589274 99.922351 
L 146.288654 236.152625 
" style="fill: none; stroke: #000000; stroke-width: 0.8; stroke-linecap: square"/>
   </g>
   <g id="text_16">
    <!-- Products -->
    <g transform="translate(112.610409 188.34419)rotate(-89.873565)scale(0.1 -0.1)">
     <defs>
      <path id="DejaVuSans-50" d="M 1259 4147 
L 1259 2394 
L 2053 2394 
Q 2494 2394 2734 2622 
Q 2975 2850 2975 3272 
Q 2975 3691 2734 3919 
Q 2494 4147 2053 4147 
L 1259 4147 
z
M 628 4666 
L 2053 4666 
Q 2838 4666 3239 4311 
Q 3641 3956 3641 3272 
Q 3641 2581 3239 2228 
Q 2838 1875 2053 1875 
L 1259 1875 
L 1259 0 
L 628 0 
L 628 4666 
z
" transform="scale(0.015625)"/>
      <path id="DejaVuSans-64" d="M 2906 2969 
L 2906 4863 
L 3481 4863 
L 3481 0 
L 2906 0 
L 2906 525 
Q 2725 213 2448 61 
Q 2172 -91 1784 -91 
Q 1150 -91 751 415 
Q 353 922 353 1747 
Q 353 2572 751 3078 
Q 1150 3584 1784 3584 
Q 2172 3584 2448 3432 
Q 2725 3281 2906 2969 
z
M 947 1747 
Q 947 1113 1208 752 
Q 1469 391 1925 391 
Q 2381 391 2643 752 
Q 2906 1113 2906 1747 
Q 2906 2381 2643 2742 
Q 2381 3103 1925 3103 
Q 1469 3103 1208 2742 
Q 947 2381 947 1747 
z
" transform="scale(0.015625)"/>
      <path id="DejaVuSans-63" d="M 3122 3366 
L 3122 2828 
Q 2878 2963 2633 3030 
Q 2388 3097 2138 3097 
Q 1578 3097 1268 2742 
Q 959 2388 959 1747 
Q 959 1106 1268 751 
Q 1578 397 2138 397 
Q 2388 397 2633 464 
Q 2878 531 3122 666 
L 3122 134 
Q 2881 22 2623 -34 
Q 2366 -91 2075 -91 
Q 1284 -91 818 406 
Q 353 903 353 1747 
Q 353 2603 823 3093 
Q 1294 3584 2113 3584 
Q 2378 3584 2631 3529 
Q 2884 3475 3122 3366 
z
" transform="scale(0.015625)"/>
      <path id="DejaVuSans-74" d="M 1172 4494 
L 1172 3500 
L 2356 3500 
L 2356 3053 
L 1172 3053 
L 1172 1153 
Q 1172 725 1289 603 
Q 1406 481 1766 481 
L 2356 481 
L 2356 0 
L 1766 0 
Q 1100 0 847 248 
Q 594 497 594 1153 
L 594 3053 
L 172 3053 
L 172 3500 
L 594 3500 
L 594 4494 
L 1172 4494 
z
" transform="scale(0.015625)"/>
     </defs>
     <use xlink:href="#DejaVuSans-50"/>
     <use xlink:href="#DejaVuSans-72" x="58.552734"/>
     <use xlink:href="#DejaVuSans-6f" x="97.416016"/>
     <use xlink:href="#DejaVuSans-64" x="158.597656"/>
     <use xlink:href="#DejaVuSans-75" x="222.074219"/>
     <use xlink:href="#DejaVuSans-63" x="285.453125"/>
     <use xlink:href="#DejaVuSans-74" x="340.433594"/>
     <use xlink:href="#DejaVuSans-73" x="379.642578"/>
    </g>
   </g>
   <g id="Line3DCollection_3">
    <path d="M 146.324989 219.687091 
L 161.202755 219.706236 
L 322.957352 219.705772 
" style="fill: none; stroke: #b0b0b0; stroke-width: 0.8"/>
    <path d="M 146.36284 202.534218 
L 161.231009 204.477382 
L 322.927334 204.430301 
" style="fill: none; stroke: #b0b0b0; stroke-width: 0.8"/>
    <path d="M 146.400661 185.395237 
L 161.259243 189.259479 
L 322.897338 189.165849 
" style="fill: none; stroke: #b0b0b0; stroke-width: 0.8"/>
    <path d="M 146.438451 168.270132 
L 161.287456 174.052515 
L 322.867364 173.912403 
" style="fill: none; stroke: #b0b0b0; stroke-width: 0.8"/>
    <path d="M 146.47621 151.158886 
L 161.31565 158.85648 
L 322.837411 158.669951 
" style="fill: none; stroke: #b0b0b0; stroke-width: 0.8"/>
    <path d="M 146.513939 134.061482 
L 161.343823 143.671359 
L 322.80748 143.438482 
" style="fill: none; stroke: #b0b0b0; stroke-width: 0.8"/>
    <path d="M 146.551637 116.977902 
L 161.371976 128.497143 
L 322.777571 128.217984 
" style="fill: none; stroke: #b0b0b0; stroke-width: 0.8"/>
   </g>
   <g id="xtick_14">
    <g id="line2d_17">
     <path d="M 146.458919 219.687264 
L 146.056314 219.686746 
" style="fill: none; stroke: #000000; stroke-width: 0.8; stroke-linecap: square"/>
    </g>
    <g id="text_17">
     <!-- 20 -->
     <g transform="translate(123.335257 227.283771)scale(0.1 -0.1)">
      <use xlink:href="#DejaVuSans-32"/>
      <use xlink:href="#DejaVuSans-30" x="63.623047"/>
     </g>
    </g>
   </g>
   <g id="xtick_15">
    <g id="line2d_18">
     <path d="M 146.496678 202.55171 
L 146.094351 202.499129 
" style="fill: none; stroke: #000000; stroke-width: 0.8; stroke-linecap: square"/>
    </g>
    <g id="text_18">
     <!-- 25 -->
     <g transform="translate(123.380304 209.954177)scale(0.1 -0.1)">
      <use xlink:href="#DejaVuSans-32"/>
      <use xlink:href="#DejaVuSans-35" x="63.623047"/>
     </g>
    </g>
   </g>
   <g id="xtick_16">
    <g id="line2d_19">
     <path d="M 146.534406 185.43002 
L 146.132357 185.32546 
" style="fill: none; stroke: #000000; stroke-width: 0.8; stroke-linecap: square"/>
    </g>
    <g id="text_19">
     <!-- 30 -->
     <g transform="translate(123.425314 192.638764)scale(0.1 -0.1)">
      <use xlink:href="#DejaVuSans-33"/>
      <use xlink:href="#DejaVuSans-30" x="63.623047"/>
     </g>
    </g>
   </g>
   <g id="xtick_17">
    <g id="line2d_20">
     <path d="M 146.572104 168.322179 
L 146.170333 168.165724 
" style="fill: none; stroke: #000000; stroke-width: 0.8; stroke-linecap: square"/>
    </g>
    <g id="text_20">
     <!-- 35 -->
     <g transform="translate(123.470287 175.337514)scale(0.1 -0.1)">
      <use xlink:href="#DejaVuSans-33"/>
      <use xlink:href="#DejaVuSans-35" x="63.623047"/>
     </g>
    </g>
   </g>
   <g id="xtick_18">
    <g id="line2d_21">
     <path d="M 146.609771 151.228168 
L 146.208277 151.019902 
" style="fill: none; stroke: #000000; stroke-width: 0.8; stroke-linecap: square"/>
    </g>
    <g id="text_21">
     <!-- 40 -->
     <g transform="translate(123.515223 158.050409)scale(0.1 -0.1)">
      <use xlink:href="#DejaVuSans-34"/>
      <use xlink:href="#DejaVuSans-30" x="63.623047"/>
     </g>
    </g>
   </g>
   <g id="xtick_19">
    <g id="line2d_22">
     <path d="M 146.647408 134.147971 
L 146.246191 133.887979 
" style="fill: none; stroke: #000000; stroke-width: 0.8; stroke-linecap: square"/>
    </g>
    <g id="text_22">
     <!-- 45 -->
     <g transform="translate(123.560123 140.777432)scale(0.1 -0.1)">
      <use xlink:href="#DejaVuSans-34"/>
      <use xlink:href="#DejaVuSans-35" x="63.623047"/>
     </g>
    </g>
   </g>
   <g id="xtick_20">
    <g id="line2d_23">
     <path d="M 146.685015 117.081571 
L 146.284074 116.769936 
" style="fill: none; stroke: #000000; stroke-width: 0.8; stroke-linecap: square"/>
    </g>
    <g id="text_23">
     <!-- 50 -->
     <g transform="translate(123.604986 123.518566)scale(0.1 -0.1)">
      <use xlink:href="#DejaVuSans-35"/>
      <use xlink:href="#DejaVuSans-30" x="63.623047"/>
     </g>
    </g>
   </g>
  </g>
  <g id="axes_1">
   <g id="Poly3DCollection_1">
    <path d="M 169.650719 125.569896 
L 186.580855 119.23833 
L 170.854728 121.101247 
z
" clip-path="url(#pec34b2c7fc)" style="fill: #f1e51d"/>
    <path d="M 202.312812 119.819716 
L 186.580855 119.23833 
L 201.45528 129.841628 
z
" clip-path="url(#pec34b2c7fc)" style="fill: #ece51b"/>
    <path d="M 201.45528 129.841628 
L 218.05585 117.955418 
L 202.312812 119.819716 
z
" clip-path="url(#pec34b2c7fc)" style="fill: #efe51c"/>
    <path d="M 233.806037 122.207104 
L 218.05585 117.955418 
L 217.375193 130.433134 
z
" clip-path="url(#pec34b2c7fc)" style="fill: #eae51a"/>
    <path d="M 249.242424 119.240238 
L 249.567243 119.730293 
L 233.806037 122.207104 
z
" clip-path="url(#pec34b2c7fc)" style="fill: #fbe723"/>
    <path d="M 249.567243 119.730293 
L 249.242424 119.240238 
L 265.337499 119.70045 
z
" clip-path="url(#pec34b2c7fc)" style="fill: #fde725"/>
    <path d="M 265.337499 119.70045 
L 281.148849 125.99014 
L 281.11536 117.833899 
z
" clip-path="url(#pec34b2c7fc)" style="fill: #f6e620"/>
    <path d="M 297.11573 125.961831 
L 296.899601 114.741767 
L 281.11536 117.833899 
z
" clip-path="url(#pec34b2c7fc)" style="fill: #fde725"/>
    <path d="M 312.710012 122.674143 
L 296.899601 114.741767 
L 313.089018 124.074742 
z
" clip-path="url(#pec34b2c7fc)" style="fill: #f8e621"/>
    <path d="M 169.650719 125.569896 
L 185.558105 119.361342 
L 186.580855 119.23833 
z
" clip-path="url(#pec34b2c7fc)" style="fill: #f4e61e"/>
    <path d="M 186.580855 119.23833 
L 185.558105 119.361342 
L 201.45528 129.841628 
z
" clip-path="url(#pec34b2c7fc)" style="fill: #ece51b"/>
    <path d="M 201.45528 129.841628 
L 217.375193 130.433134 
L 218.05585 117.955418 
z
" clip-path="url(#pec34b2c7fc)" style="fill: #d8e219"/>
    <path d="M 217.375193 130.433134 
L 233.305731 127.312369 
L 233.806037 122.207104 
z
" clip-path="url(#pec34b2c7fc)" style="fill: #d5e21a"/>
    <path d="M 233.806037 122.207104 
L 233.305731 127.312369 
L 249.242424 119.240238 
z
" clip-path="url(#pec34b2c7fc)" style="fill: #eae51a"/>
    <path d="M 265.337499 119.70045 
L 249.242424 119.240238 
L 265.189356 122.304424 
z
" clip-path="url(#pec34b2c7fc)" style="fill: #f8e621"/>
    <path d="M 265.189356 122.304424 
L 281.148849 125.99014 
L 265.337499 119.70045 
z
" clip-path="url(#pec34b2c7fc)" style="fill: #ece51b"/>
    <path d="M 281.11536 117.833899 
L 281.148849 125.99014 
L 297.11573 125.961831 
z
" clip-path="url(#pec34b2c7fc)" style="fill: #e7e419"/>
    <path d="M 296.899601 114.741767 
L 297.11573 125.961831 
L 313.089018 124.074742 
z
" clip-path="url(#pec34b2c7fc)" style="fill: #f1e51d"/>
    <path d="M 184.489526 136.990397 
L 185.558105 119.361342 
L 169.650719 125.569896 
z
" clip-path="url(#pec34b2c7fc)" style="fill: #cde11d"/>
    <path d="M 201.45528 129.841628 
L 185.558105 119.361342 
L 184.489526 136.990397 
z
" clip-path="url(#pec34b2c7fc)" style="fill: #c5e021"/>
    <path d="M 216.684317 133.18571 
L 217.375193 130.433134 
L 201.45528 129.841628 
z
" clip-path="url(#pec34b2c7fc)" style="fill: #b5de2b"/>
    <path d="M 232.793763 134.411014 
L 233.305731 127.312369 
L 217.375193 130.433134 
z
" clip-path="url(#pec34b2c7fc)" style="fill: #b8de29"/>
    <path d="M 249.242424 119.240238 
L 233.305731 127.312369 
L 232.793763 134.411014 
z
" clip-path="url(#pec34b2c7fc)" style="fill: #cde11d"/>
    <path d="M 265.189356 122.304424 
L 249.242424 119.240238 
L 265.042739 133.106447 
z
" clip-path="url(#pec34b2c7fc)" style="fill: #dae319"/>
    <path d="M 265.042739 133.106447 
L 281.148849 125.99014 
L 265.189356 122.304424 
z
" clip-path="url(#pec34b2c7fc)" style="fill: #cde11d"/>
    <path d="M 297.11573 125.961831 
L 281.148849 125.99014 
L 281.184946 136.212261 
z
" clip-path="url(#pec34b2c7fc)" style="fill: #c0df25"/>
    <path d="M 313.089018 124.074742 
L 297.11573 125.961831 
L 297.333418 134.933401 
z
" clip-path="url(#pec34b2c7fc)" style="fill: #c5e021"/>
    <path d="M 169.650719 125.569896 
L 168.411017 135.140138 
L 184.489526 136.990397 
z
" clip-path="url(#pec34b2c7fc)" style="fill: #aadc32"/>
    <path d="M 184.489526 136.990397 
L 200.584475 133.212099 
L 201.45528 129.841628 
z
" clip-path="url(#pec34b2c7fc)" style="fill: #a5db36"/>
    <path d="M 200.584475 133.212099 
L 216.684317 133.18571 
L 201.45528 129.841628 
z
" clip-path="url(#pec34b2c7fc)" style="fill: #addc30"/>
    <path d="M 217.375193 130.433134 
L 216.684317 133.18571 
L 232.793763 134.411014 
z
" clip-path="url(#pec34b2c7fc)" style="fill: #aadc32"/>
    <path d="M 249.242424 119.240238 
L 232.793763 134.411014 
L 248.914255 136.889374 
z
" clip-path="url(#pec34b2c7fc)" style="fill: #b8de29"/>
    <path d="M 265.042739 133.106447 
L 249.242424 119.240238 
L 248.914255 136.889374 
z
" clip-path="url(#pec34b2c7fc)" style="fill: #bade28"/>
    <path d="M 281.184946 136.212261 
L 281.148849 125.99014 
L 265.042739 133.106447 
z
" clip-path="url(#pec34b2c7fc)" style="fill: #b0dd2f"/>
    <path d="M 281.184946 136.212261 
L 297.333418 134.933401 
L 297.11573 125.961831 
z
" clip-path="url(#pec34b2c7fc)" style="fill: #aadc32"/>
    <path d="M 297.333418 134.933401 
L 313.488598 132.40026 
L 313.089018 124.074742 
z
" clip-path="url(#pec34b2c7fc)" style="fill: #b5de2b"/>
    <path d="M 184.489526 136.990397 
L 168.411017 135.140138 
L 167.083903 179.114929 
z
" clip-path="url(#pec34b2c7fc)" style="fill: #4ac16d"/>
    <path d="M 199.657754 174.652815 
L 200.584475 133.212099 
L 184.489526 136.990397 
z
" clip-path="url(#pec34b2c7fc)" style="fill: #54c568"/>
    <path d="M 215.959141 168.933781 
L 216.684317 133.18571 
L 200.584475 133.212099 
z
" clip-path="url(#pec34b2c7fc)" style="fill: #63cb5f"/>
    <path d="M 232.793763 134.411014 
L 216.684317 133.18571 
L 215.959141 168.933781 
z
" clip-path="url(#pec34b2c7fc)" style="fill: #60ca60"/>
    <path d="M 248.914255 136.889374 
L 232.793763 134.411014 
L 248.580733 166.365697 
z
" clip-path="url(#pec34b2c7fc)" style="fill: #5ec962"/>
    <path d="M 248.914255 136.889374 
L 248.580733 166.365697 
L 265.042739 133.106447 
z
" clip-path="url(#pec34b2c7fc)" style="fill: #60ca60"/>
    <path d="M 265.042739 133.106447 
L 281.248018 173.313545 
L 281.184946 136.212261 
z
" clip-path="url(#pec34b2c7fc)" style="fill: #56c667"/>
    <path d="M 297.587381 166.950878 
L 297.333418 134.933401 
L 281.184946 136.212261 
z
" clip-path="url(#pec34b2c7fc)" style="fill: #5cc863"/>
    <path d="M 297.587381 166.950878 
L 313.488598 132.40026 
L 297.333418 134.933401 
z
" clip-path="url(#pec34b2c7fc)" style="fill: #63cb5f"/>
    <path d="M 167.083903 179.114929 
L 183.365397 177.834956 
L 184.489526 136.990397 
z
" clip-path="url(#pec34b2c7fc)" style="fill: #21a585"/>
    <path d="M 184.489526 136.990397 
L 183.365397 177.834956 
L 199.657754 174.652815 
z
" clip-path="url(#pec34b2c7fc)" style="fill: #22a884"/>
    <path d="M 200.584475 133.212099 
L 199.657754 174.652815 
L 215.959141 168.933781 
z
" clip-path="url(#pec34b2c7fc)" style="fill: #2cb17e"/>
    <path d="M 215.959141 168.933781 
L 232.265396 167.650096 
L 232.793763 134.411014 
z
" clip-path="url(#pec34b2c7fc)" style="fill: #31b57b"/>
    <path d="M 232.793763 134.411014 
L 232.265396 167.650096 
L 248.580733 166.365697 
z
" clip-path="url(#pec34b2c7fc)" style="fill: #34b679"/>
    <path d="M 248.580733 166.365697 
L 264.910063 173.327909 
L 265.042739 133.106447 
z
" clip-path="url(#pec34b2c7fc)" style="fill: #2eb37c"/>
    <path d="M 265.042739 133.106447 
L 264.910063 173.327909 
L 281.248018 173.313545 
z
" clip-path="url(#pec34b2c7fc)" style="fill: #28ae80"/>
    <path d="M 281.184946 136.212261 
L 281.248018 173.313545 
L 297.587381 166.950878 
z
" clip-path="url(#pec34b2c7fc)" style="fill: #2cb17e"/>
    <path d="M 297.587381 166.950878 
L 313.953093 172.649681 
L 313.488598 132.40026 
z
" clip-path="url(#pec34b2c7fc)" style="fill: #2fb47c"/>
    <path d="M 182.23243 205.573809 
L 183.365397 177.834956 
L 167.083903 179.114929 
z
" clip-path="url(#pec34b2c7fc)" style="fill: #2b758e"/>
    <path d="M 199.657754 174.652815 
L 183.365397 177.834956 
L 182.23243 205.573809 
z
" clip-path="url(#pec34b2c7fc)" style="fill: #2a788e"/>
    <path d="M 215.959141 168.933781 
L 199.657754 174.652815 
L 198.718473 206.21136 
z
" clip-path="url(#pec34b2c7fc)" style="fill: #277e8e"/>
    <path d="M 231.723429 204.918043 
L 232.265396 167.650096 
L 215.959141 168.933781 
z
" clip-path="url(#pec34b2c7fc)" style="fill: #25838e"/>
    <path d="M 248.580733 166.365697 
L 232.265396 167.650096 
L 231.723429 204.918043 
z
" clip-path="url(#pec34b2c7fc)" style="fill: #25858e"/>
    <path d="M 264.910063 173.327909 
L 248.580733 166.365697 
L 248.240873 205.555967 
z
" clip-path="url(#pec34b2c7fc)" style="fill: #26818e"/>
    <path d="M 264.910063 173.327909 
L 281.308235 206.833069 
L 281.248018 173.313545 
z
" clip-path="url(#pec34b2c7fc)" style="fill: #297b8e"/>
    <path d="M 281.248018 173.313545 
L 281.308235 206.833069 
L 297.587381 166.950878 
z
" clip-path="url(#pec34b2c7fc)" style="fill: #27808e"/>
    <path d="M 314.415562 206.181492 
L 313.953093 172.649681 
L 297.587381 166.950878 
z
" clip-path="url(#pec34b2c7fc)" style="fill: #26818e"/>
    <path d="M 167.083903 179.114929 
L 165.753802 206.861497 
L 182.23243 205.573809 
z
" clip-path="url(#pec34b2c7fc)" style="fill: #34608d"/>
    <path d="M 199.657754 174.652815 
L 182.23243 205.573809 
L 198.718473 206.21136 
z
" clip-path="url(#pec34b2c7fc)" style="fill: #32648e"/>
    <path d="M 198.718473 206.21136 
L 215.215307 206.849329 
L 215.959141 168.933781 
z
" clip-path="url(#pec34b2c7fc)" style="fill: #31678e"/>
    <path d="M 215.959141 168.933781 
L 215.215307 206.849329 
L 231.723429 204.918043 
z
" clip-path="url(#pec34b2c7fc)" style="fill: #31688e"/>
    <path d="M 231.723429 204.918043 
L 248.240873 205.555967 
L 248.580733 166.365697 
z
" clip-path="url(#pec34b2c7fc)" style="fill: #2f6b8e"/>
    <path d="M 248.240873 205.555967 
L 264.767998 204.265939 
L 264.910063 173.327909 
z
" clip-path="url(#pec34b2c7fc)" style="fill: #31668e"/>
    <path d="M 264.767998 204.265939 
L 281.308235 206.833069 
L 264.910063 173.327909 
z
" clip-path="url(#pec34b2c7fc)" style="fill: #32658e"/>
    <path d="M 297.587381 166.950878 
L 281.308235 206.833069 
L 297.851994 202.969906 
z
" clip-path="url(#pec34b2c7fc)" style="fill: #2f6b8e"/>
    <path d="M 297.851994 202.969906 
L 314.415562 206.181492 
L 297.587381 166.950878 
z
" clip-path="url(#pec34b2c7fc)" style="fill: #2f6b8e"/>
    <path d="M 182.23243 205.573809 
L 165.753802 206.861497 
L 181.109447 206.706679 
z
" clip-path="url(#pec34b2c7fc)" style="fill: #3e4989"/>
    <path d="M 198.718473 206.21136 
L 182.23243 205.573809 
L 181.109447 206.706679 
z
" clip-path="url(#pec34b2c7fc)" style="fill: #3e4a89"/>
    <path d="M 197.787521 206.702528 
L 215.215307 206.849329 
L 198.718473 206.21136 
z
" clip-path="url(#pec34b2c7fc)" style="fill: #3e4989"/>
    <path d="M 231.723429 204.918043 
L 215.215307 206.849329 
L 231.175271 206.694219 
z
" clip-path="url(#pec34b2c7fc)" style="fill: #3e4a89"/>
    <path d="M 231.175271 206.694219 
L 248.240873 205.555967 
L 231.723429 204.918043 
z
" clip-path="url(#pec34b2c7fc)" style="fill: #3e4c8a"/>
    <path d="M 264.767998 204.265939 
L 248.240873 205.555967 
L 247.884968 206.690061 
z
" clip-path="url(#pec34b2c7fc)" style="fill: #3e4c8a"/>
    <path d="M 281.308235 206.833069 
L 264.767998 204.265939 
L 264.605225 206.685899 
z
" clip-path="url(#pec34b2c7fc)" style="fill: #3e4a89"/>
    <path d="M 297.851994 202.969906 
L 281.308235 206.833069 
L 298.077464 206.677569 
z
" clip-path="url(#pec34b2c7fc)" style="fill: #3e4c8a"/>
    <path d="M 298.077464 206.677569 
L 314.415562 206.181492 
L 297.851994 202.969906 
z
" clip-path="url(#pec34b2c7fc)" style="fill: #3d4d8a"/>
    <path d="M 165.753802 206.861497 
L 164.441894 206.710827 
L 181.109447 206.706679 
z
" clip-path="url(#pec34b2c7fc)" style="fill: #3e4989"/>
    <path d="M 181.109447 206.706679 
L 197.787521 206.702528 
L 198.718473 206.21136 
z
" clip-path="url(#pec34b2c7fc)" style="fill: #3e4989"/>
    <path d="M 197.787521 206.702528 
L 214.476125 206.698375 
L 215.215307 206.849329 
z
" clip-path="url(#pec34b2c7fc)" style="fill: #3e4989"/>
    <path d="M 215.215307 206.849329 
L 214.476125 206.698375 
L 231.175271 206.694219 
z
" clip-path="url(#pec34b2c7fc)" style="fill: #3e4989"/>
    <path d="M 247.884968 206.690061 
L 248.240873 205.555967 
L 231.175271 206.694219 
z
" clip-path="url(#pec34b2c7fc)" style="fill: #3e4989"/>
    <path d="M 247.884968 206.690061 
L 264.605225 206.685899 
L 264.767998 204.265939 
z
" clip-path="url(#pec34b2c7fc)" style="fill: #3e4a89"/>
    <path d="M 281.308235 206.833069 
L 264.605225 206.685899 
L 281.336054 206.681736 
z
" clip-path="url(#pec34b2c7fc)" style="fill: #3e4989"/>
    <path d="M 298.077464 206.677569 
L 281.308235 206.833069 
L 281.336054 206.681736 
z
" clip-path="url(#pec34b2c7fc)" style="fill: #3e4989"/>
    <path d="M 298.077464 206.677569 
L 314.829465 206.6734 
L 314.415562 206.181492 
z
" clip-path="url(#pec34b2c7fc)" style="fill: #3e4989"/>
    <path d="M 181.109447 206.706679 
L 164.441894 206.710827 
L 163.094454 209.183521 
z
" clip-path="url(#pec34b2c7fc)" style="fill: #3f4788"/>
    <path d="M 181.109447 206.706679 
L 196.834686 207.205241 
L 197.787521 206.702528 
z
" clip-path="url(#pec34b2c7fc)" style="fill: #3f4889"/>
    <path d="M 214.476125 206.698375 
L 197.787521 206.702528 
L 196.834686 207.205241 
z
" clip-path="url(#pec34b2c7fc)" style="fill: #3f4889"/>
    <path d="M 231.175271 206.694219 
L 214.476125 206.698375 
L 213.717565 209.830696 
z
" clip-path="url(#pec34b2c7fc)" style="fill: #404688"/>
    <path d="M 231.175271 206.694219 
L 247.520436 206.535366 
L 247.884968 206.690061 
z
" clip-path="url(#pec34b2c7fc)" style="fill: #3e4989"/>
    <path d="M 264.438222 208.505028 
L 264.605225 206.685899 
L 247.884968 206.690061 
z
" clip-path="url(#pec34b2c7fc)" style="fill: #3f4788"/>
    <path d="M 281.336054 206.681736 
L 264.605225 206.685899 
L 281.364527 206.526844 
z
" clip-path="url(#pec34b2c7fc)" style="fill: #3e4989"/>
    <path d="M 281.364527 206.526844 
L 298.077464 206.677569 
L 281.336054 206.681736 
z
" clip-path="url(#pec34b2c7fc)" style="fill: #3e4989"/>
    <path d="M 315.260168 211.128836 
L 314.829465 206.6734 
L 298.077464 206.677569 
z
" clip-path="url(#pec34b2c7fc)" style="fill: #404588"/>
    <path d="M 163.094454 209.183521 
L 179.961897 206.552377 
L 181.109447 206.706679 
z
" clip-path="url(#pec34b2c7fc)" style="fill: #3f4788"/>
    <path d="M 179.961897 206.552377 
L 196.834686 207.205241 
L 181.109447 206.706679 
z
" clip-path="url(#pec34b2c7fc)" style="fill: #3f4889"/>
    <path d="M 213.717565 209.830696 
L 214.476125 206.698375 
L 196.834686 207.205241 
z
" clip-path="url(#pec34b2c7fc)" style="fill: #404688"/>
    <path d="M 213.717565 209.830696 
L 230.612765 215.089146 
L 231.175271 206.694219 
z
" clip-path="url(#pec34b2c7fc)" style="fill: #423f85"/>
    <path d="M 231.175271 206.694219 
L 230.612765 215.089146 
L 247.520436 206.535366 
z
" clip-path="url(#pec34b2c7fc)" style="fill: #424186"/>
    <path d="M 247.884968 206.690061 
L 247.520436 206.535366 
L 264.438222 208.505028 
z
" clip-path="url(#pec34b2c7fc)" style="fill: #3f4788"/>
    <path d="M 264.605225 206.685899 
L 264.438222 208.505028 
L 281.364527 206.526844 
z
" clip-path="url(#pec34b2c7fc)" style="fill: #3f4788"/>
    <path d="M 298.303725 207.180953 
L 298.077464 206.677569 
L 281.364527 206.526844 
z
" clip-path="url(#pec34b2c7fc)" style="fill: #3f4889"/>
    <path d="M 298.077464 206.677569 
L 298.303725 207.180953 
L 315.260168 211.128836 
z
" clip-path="url(#pec34b2c7fc)" style="fill: #404588"/>
    <path d="M 163.094454 209.183521 
L 161.675625 232.994466 
L 179.961897 206.552377 
z
" clip-path="url(#pec34b2c7fc)" style="fill: #46307e"/>
    <path d="M 196.834686 207.205241 
L 179.961897 206.552377 
L 178.748777 232.998712 
z
" clip-path="url(#pec34b2c7fc)" style="fill: #46327e"/>
    <path d="M 196.834686 207.205241 
L 212.92821 233.007213 
L 213.717565 209.830696 
z
" clip-path="url(#pec34b2c7fc)" style="fill: #472f7d"/>
    <path d="M 230.034513 233.011467 
L 230.612765 215.089146 
L 213.717565 209.830696 
z
" clip-path="url(#pec34b2c7fc)" style="fill: #482878"/>
    <path d="M 247.520436 206.535366 
L 230.612765 215.089146 
L 230.034513 233.011467 
z
" clip-path="url(#pec34b2c7fc)" style="fill: #472c7a"/>
    <path d="M 264.280348 233.019983 
L 264.438222 208.505028 
L 247.520436 206.535366 
z
" clip-path="url(#pec34b2c7fc)" style="fill: #46307e"/>
    <path d="M 264.438222 208.505028 
L 264.280348 233.019983 
L 281.364527 206.526844 
z
" clip-path="url(#pec34b2c7fc)" style="fill: #46307e"/>
    <path d="M 298.570557 233.028511 
L 298.303725 207.180953 
L 281.364527 206.526844 
z
" clip-path="url(#pec34b2c7fc)" style="fill: #46327e"/>
    <path d="M 298.303725 207.180953 
L 315.732329 233.032779 
L 315.260168 211.128836 
z
" clip-path="url(#pec34b2c7fc)" style="fill: #472e7c"/>
    <path d="M 179.961897 206.552377 
L 161.675625 232.994466 
L 178.748777 232.998712 
z
" clip-path="url(#pec34b2c7fc)" style="fill: #481b6d"/>
    <path d="M 196.834686 207.205241 
L 178.748777 232.998712 
L 195.832968 233.002961 
z
" clip-path="url(#pec34b2c7fc)" style="fill: #481b6d"/>
    <path d="M 195.832968 233.002961 
L 212.92821 233.007213 
L 196.834686 207.205241 
z
" clip-path="url(#pec34b2c7fc)" style="fill: #481b6d"/>
    <path d="M 213.717565 209.830696 
L 212.92821 233.007213 
L 230.034513 233.011467 
z
" clip-path="url(#pec34b2c7fc)" style="fill: #48186a"/>
    <path d="M 247.151889 233.015724 
L 247.520436 206.535366 
L 230.034513 233.011467 
z
" clip-path="url(#pec34b2c7fc)" style="fill: #481b6d"/>
    <path d="M 264.280348 233.019983 
L 247.520436 206.535366 
L 247.151889 233.015724 
z
" clip-path="url(#pec34b2c7fc)" style="fill: #481b6d"/>
    <path d="M 281.364527 206.526844 
L 264.280348 233.019983 
L 281.4199 233.024246 
z
" clip-path="url(#pec34b2c7fc)" style="fill: #481b6d"/>
    <path d="M 281.364527 206.526844 
L 281.4199 233.024246 
L 298.570557 233.028511 
z
" clip-path="url(#pec34b2c7fc)" style="fill: #481b6d"/>
    <path d="M 298.303725 207.180953 
L 298.570557 233.028511 
L 315.732329 233.032779 
z
" clip-path="url(#pec34b2c7fc)" style="fill: #481b6d"/>
    <path d="M 178.748777 232.998712 
L 161.675625 232.994466 
L 160.266566 233.152354 
z
" clip-path="url(#pec34b2c7fc)" style="fill: #440154"/>
    <path d="M 195.832968 233.002961 
L 178.748777 232.998712 
L 194.833784 233.161054 
z
" clip-path="url(#pec34b2c7fc)" style="fill: #440154"/>
    <path d="M 194.833784 233.161054 
L 212.92821 233.007213 
L 195.832968 233.002961 
z
" clip-path="url(#pec34b2c7fc)" style="fill: #440154"/>
    <path d="M 230.034513 233.011467 
L 212.92821 233.007213 
L 212.134364 233.165408 
z
" clip-path="url(#pec34b2c7fc)" style="fill: #440154"/>
    <path d="M 230.034513 233.011467 
L 246.769523 233.174126 
L 247.151889 233.015724 
z
" clip-path="url(#pec34b2c7fc)" style="fill: #440154"/>
    <path d="M 247.151889 233.015724 
L 246.769523 233.174126 
L 264.280348 233.019983 
z
" clip-path="url(#pec34b2c7fc)" style="fill: #440154"/>
    <path d="M 281.450088 233.182854 
L 281.4199 233.024246 
L 264.280348 233.019983 
z
" clip-path="url(#pec34b2c7fc)" style="fill: #440154"/>
    <path d="M 281.4199 233.024246 
L 298.807425 233.187223 
L 298.570557 233.028511 
z
" clip-path="url(#pec34b2c7fc)" style="fill: #440154"/>
    <path d="M 315.732329 233.032779 
L 298.570557 233.028511 
L 298.807425 233.187223 
z
" clip-path="url(#pec34b2c7fc)" style="fill: #440154"/>
    <path d="M 160.266566 233.152354 
L 177.544522 233.156703 
L 178.748777 232.998712 
z
" clip-path="url(#pec34b2c7fc)" style="fill: #440154"/>
    <path d="M 178.748777 232.998712 
L 177.544522 233.156703 
L 194.833784 233.161054 
z
" clip-path="url(#pec34b2c7fc)" style="fill: #440154"/>
    <path d="M 212.134364 233.165408 
L 212.92821 233.007213 
L 194.833784 233.161054 
z
" clip-path="url(#pec34b2c7fc)" style="fill: #440154"/>
    <path d="M 212.134364 233.165408 
L 229.446274 233.169766 
L 230.034513 233.011467 
z
" clip-path="url(#pec34b2c7fc)" style="fill: #440154"/>
    <path d="M 230.034513 233.011467 
L 229.446274 233.169766 
L 246.769523 233.174126 
z
" clip-path="url(#pec34b2c7fc)" style="fill: #440154"/>
    <path d="M 246.769523 233.174126 
L 264.104124 233.178489 
L 264.280348 233.019983 
z
" clip-path="url(#pec34b2c7fc)" style="fill: #440154"/>
    <path d="M 264.280348 233.019983 
L 264.104124 233.178489 
L 281.450088 233.182854 
z
" clip-path="url(#pec34b2c7fc)" style="fill: #440154"/>
    <path d="M 281.450088 233.182854 
L 298.807425 233.187223 
L 281.4199 233.024246 
z
" clip-path="url(#pec34b2c7fc)" style="fill: #440154"/>
    <path d="M 298.807425 233.187223 
L 316.176147 233.191594 
L 315.732329 233.032779 
z
" clip-path="url(#pec34b2c7fc)" style="fill: #440154"/>
    <path d="M 176.310958 233.318538 
L 177.544522 233.156703 
L 160.266566 233.152354 
z
" clip-path="url(#pec34b2c7fc)" style="fill: #440154"/>
    <path d="M 194.833784 233.161054 
L 177.544522 233.156703 
L 176.310958 233.318538 
z
" clip-path="url(#pec34b2c7fc)" style="fill: #440154"/>
    <path d="M 211.321186 233.327457 
L 212.134364 233.165408 
L 194.833784 233.161054 
z
" clip-path="url(#pec34b2c7fc)" style="fill: #440154"/>
    <path d="M 229.446274 233.169766 
L 212.134364 233.165408 
L 211.321186 233.327457 
z
" clip-path="url(#pec34b2c7fc)" style="fill: #440154"/>
    <path d="M 246.377839 233.336388 
L 246.769523 233.174126 
L 229.446274 233.169766 
z
" clip-path="url(#pec34b2c7fc)" style="fill: #440154"/>
    <path d="M 263.923605 233.340858 
L 264.104124 233.178489 
L 246.769523 233.174126 
z
" clip-path="url(#pec34b2c7fc)" style="fill: #440154"/>
    <path d="M 281.450088 233.182854 
L 264.104124 233.178489 
L 263.923605 233.340858 
z
" clip-path="url(#pec34b2c7fc)" style="fill: #440154"/>
    <path d="M 298.807425 233.187223 
L 281.450088 233.182854 
L 281.481011 233.345331 
z
" clip-path="url(#pec34b2c7fc)" style="fill: #440154"/>
    <path d="M 316.630794 233.354285 
L 316.176147 233.191594 
L 298.807425 233.187223 
z
" clip-path="url(#pec34b2c7fc)" style="fill: #440154"/>
    <path d="M 158.823225 233.314083 
L 176.310958 233.318538 
L 160.266566 233.152354 
z
" clip-path="url(#pec34b2c7fc)" style="fill: #440154"/>
    <path d="M 176.310958 233.318538 
L 193.810274 233.322996 
L 194.833784 233.161054 
z
" clip-path="url(#pec34b2c7fc)" style="fill: #440154"/>
    <path d="M 194.833784 233.161054 
L 193.810274 233.322996 
L 211.321186 233.327457 
z
" clip-path="url(#pec34b2c7fc)" style="fill: #440154"/>
    <path d="M 211.321186 233.327457 
L 228.843703 233.331921 
L 229.446274 233.169766 
z
" clip-path="url(#pec34b2c7fc)" style="fill: #440154"/>
    <path d="M 229.446274 233.169766 
L 228.843703 233.331921 
L 246.377839 233.336388 
z
" clip-path="url(#pec34b2c7fc)" style="fill: #440154"/>
    <path d="M 263.923605 233.340858 
L 246.769523 233.174126 
L 246.377839 233.336388 
z
" clip-path="url(#pec34b2c7fc)" style="fill: #440154"/>
    <path d="M 281.481011 233.345331 
L 281.450088 233.182854 
L 263.923605 233.340858 
z
" clip-path="url(#pec34b2c7fc)" style="fill: #440154"/>
    <path d="M 281.481011 233.345331 
L 299.05007 233.349807 
L 298.807425 233.187223 
z
" clip-path="url(#pec34b2c7fc)" style="fill: #440154"/>
    <path d="M 298.807425 233.187223 
L 299.05007 233.349807 
L 316.630794 233.354285 
z
" clip-path="url(#pec34b2c7fc)" style="fill: #440154"/>
   </g>
  </g>
 </g>
 <defs>
  <clipPath id="pec34b2c7fc">
   <rect x="103.104" y="41.472" width="266.112" height="266.112"/>
  </clipPath>
 </defs>
</svg>
