<?xml version="1.0" encoding="utf-8" standalone="no"?>
<!DOCTYPE svg PUBLIC "-//W3C//DTD SVG 1.1//EN"
  "http://www.w3.org/Graphics/SVG/1.1/DTD/svg11.dtd">
<svg xmlns:xlink="http://www.w3.org/1999/xlink" width="460.8pt" height="345.6pt" viewBox="0 0 460.8 345.6" xmlns="http://www.w3.org/2000/svg" version="1.1">
 <metadata>
  <rdf:RDF xmlns:dc="http://purl.org/dc/elements/1.1/" xmlns:cc="http://creativecommons.org/ns#" xmlns:rdf="http://www.w3.org/1999/02/22-rdf-syntax-ns#">
   <cc:Work>
    <dc:type rdf:resource="http://purl.org/dc/dcmitype/StillImage"/>
    <dc:date>2022-03-08T01:51:00.978521</dc:date>
    <dc:format>image/svg+xml</dc:format>
    <dc:creator>
     <cc:Agent>
      <dc:title>Matplotlib v3.5.1, https://matplotlib.org/</dc:title>
     </cc:Agent>
    </dc:creator>
   </cc:Work>
  </rdf:RDF>
 </metadata>
 <defs>
  <style type="text/css">*{stroke-linejoin: round; stroke-linecap: butt}</style>
 </defs>
 <g id="figure_1">
  <g id="patch_1">
   <path d="M 0 345.6 
L 460.8 345.6 
L 460.8 0 
L 0 0 
z
" style="fill: #ffffff"/>
  </g>
  <g id="patch_2">
   <path d="M 103.104 307.584 
L 369.216 307.584 
L 369.216 41.472 
L 103.104 41.472 
z
" style="fill: #ffffff"/>
  </g>
  <g id="pane3d_1">
   <g id="patch_3">
    <path d="M 156.749569 90.995793 
L 320.533332 88.770115 
L 328.075397 79.272111 
L 148.999176 81.705383 
" style="fill: #f2f2f2; opacity: 0.5; stroke: #f2f2f2; stroke-linejoin: miter"/>
   </g>
  </g>
  <g id="pane3d_2">
   <g id="patch_4">
    <path d="M 320.533332 88.770115 
L 322.889628 252.663541 
L 330.664861 258.477899 
L 328.075397 79.272111 
" style="fill: #e6e6e6; opacity: 0.5; stroke: #e6e6e6; stroke-linejoin: miter"/>
   </g>
  </g>
  <g id="pane3d_3">
   <g id="patch_5">
    <path d="M 156.749569 90.995793 
L 158.851904 254.896128 
L 322.889628 252.663541 
L 320.533332 88.770115 
" style="fill: #ececec; opacity: 0.5; stroke: #ececec; stroke-linejoin: miter"/>
   </g>
  </g>
  <g id="axis3d_1">
   <g id="line2d_1">
    <path d="M 156.749569 90.995793 
L 158.851904 254.896128 
" style="fill: none; stroke: #000000; stroke-width: 0.8; stroke-linecap: square"/>
   </g>
   <g id="text_1">
    <!-- Time -->
    <g transform="translate(117.693258 176.30522)scale(0.1 -0.1)">
     <defs>
      <path id="DejaVuSans-54" d="M -19 4666 
L 3928 4666 
L 3928 4134 
L 2272 4134 
L 2272 0 
L 1638 0 
L 1638 4134 
L -19 4134 
L -19 4666 
z
" transform="scale(0.015625)"/>
      <path id="DejaVuSans-69" d="M 603 3500 
L 1178 3500 
L 1178 0 
L 603 0 
L 603 3500 
z
M 603 4863 
L 1178 4863 
L 1178 4134 
L 603 4134 
L 603 4863 
z
" transform="scale(0.015625)"/>
      <path id="DejaVuSans-6d" d="M 3328 2828 
Q 3544 3216 3844 3400 
Q 4144 3584 4550 3584 
Q 5097 3584 5394 3201 
Q 5691 2819 5691 2113 
L 5691 0 
L 5113 0 
L 5113 2094 
Q 5113 2597 4934 2840 
Q 4756 3084 4391 3084 
Q 3944 3084 3684 2787 
Q 3425 2491 3425 1978 
L 3425 0 
L 2847 0 
L 2847 2094 
Q 2847 2600 2669 2842 
Q 2491 3084 2119 3084 
Q 1678 3084 1418 2786 
Q 1159 2488 1159 1978 
L 1159 0 
L 581 0 
L 581 3500 
L 1159 3500 
L 1159 2956 
Q 1356 3278 1631 3431 
Q 1906 3584 2284 3584 
Q 2666 3584 2933 3390 
Q 3200 3197 3328 2828 
z
" transform="scale(0.015625)"/>
      <path id="DejaVuSans-65" d="M 3597 1894 
L 3597 1613 
L 953 1613 
Q 991 1019 1311 708 
Q 1631 397 2203 397 
Q 2534 397 2845 478 
Q 3156 559 3463 722 
L 3463 178 
Q 3153 47 2828 -22 
Q 2503 -91 2169 -91 
Q 1331 -91 842 396 
Q 353 884 353 1716 
Q 353 2575 817 3079 
Q 1281 3584 2069 3584 
Q 2775 3584 3186 3129 
Q 3597 2675 3597 1894 
z
M 3022 2063 
Q 3016 2534 2758 2815 
Q 2500 3097 2075 3097 
Q 1594 3097 1305 2825 
Q 1016 2553 972 2059 
L 3022 2063 
z
" transform="scale(0.015625)"/>
     </defs>
     <use xlink:href="#DejaVuSans-54"/>
     <use xlink:href="#DejaVuSans-69" x="57.958984"/>
     <use xlink:href="#DejaVuSans-6d" x="85.742188"/>
     <use xlink:href="#DejaVuSans-65" x="183.154297"/>
    </g>
   </g>
   <g id="Line3DCollection_1">
    <path d="M 156.88316 101.41069 
L 320.68306 99.184573 
L 328.23992 90.658035 
" style="fill: none; stroke: #b0b0b0; stroke-width: 0.8"/>
    <path d="M 157.137692 121.254268 
L 320.968339 119.027316 
L 328.553395 112.352299 
" style="fill: none; stroke: #b0b0b0; stroke-width: 0.8"/>
    <path d="M 157.392319 141.1053 
L 321.253726 138.877511 
L 328.866999 134.055471 
" style="fill: none; stroke: #b0b0b0; stroke-width: 0.8"/>
    <path d="M 157.647042 160.963788 
L 321.539219 158.735162 
L 329.180731 155.767558 
" style="fill: none; stroke: #b0b0b0; stroke-width: 0.8"/>
    <path d="M 157.901861 180.829737 
L 321.82482 178.600274 
L 329.494592 177.488564 
" style="fill: none; stroke: #b0b0b0; stroke-width: 0.8"/>
    <path d="M 158.156776 200.703151 
L 322.110528 198.47285 
L 329.808583 199.218495 
" style="fill: none; stroke: #b0b0b0; stroke-width: 0.8"/>
    <path d="M 158.411786 220.584035 
L 322.396343 218.352896 
L 330.122702 220.957357 
" style="fill: none; stroke: #b0b0b0; stroke-width: 0.8"/>
    <path d="M 158.666892 240.472393 
L 322.682266 238.240414 
L 330.43695 242.705155 
" style="fill: none; stroke: #b0b0b0; stroke-width: 0.8"/>
   </g>
   <g id="xtick_1">
    <g id="line2d_2">
     <path d="M 158.193586 101.39288 
L 154.262305 101.446308 
" style="fill: none; stroke: #000000; stroke-width: 0.8; stroke-linecap: square"/>
    </g>
    <g id="text_2">
     <!-- 0.00 -->
     <g transform="translate(132.837904 109.819384)scale(0.1 -0.1)">
      <defs>
       <path id="DejaVuSans-30" d="M 2034 4250 
Q 1547 4250 1301 3770 
Q 1056 3291 1056 2328 
Q 1056 1369 1301 889 
Q 1547 409 2034 409 
Q 2525 409 2770 889 
Q 3016 1369 3016 2328 
Q 3016 3291 2770 3770 
Q 2525 4250 2034 4250 
z
M 2034 4750 
Q 2819 4750 3233 4129 
Q 3647 3509 3647 2328 
Q 3647 1150 3233 529 
Q 2819 -91 2034 -91 
Q 1250 -91 836 529 
Q 422 1150 422 2328 
Q 422 3509 836 4129 
Q 1250 4750 2034 4750 
z
" transform="scale(0.015625)"/>
       <path id="DejaVuSans-2e" d="M 684 794 
L 1344 794 
L 1344 0 
L 684 0 
L 684 794 
z
" transform="scale(0.015625)"/>
      </defs>
      <use xlink:href="#DejaVuSans-30"/>
      <use xlink:href="#DejaVuSans-2e" x="63.623047"/>
      <use xlink:href="#DejaVuSans-30" x="95.410156"/>
      <use xlink:href="#DejaVuSans-30" x="159.033203"/>
     </g>
    </g>
   </g>
   <g id="xtick_2">
    <g id="line2d_3">
     <path d="M 158.448364 121.236452 
L 154.516345 121.2899 
" style="fill: none; stroke: #000000; stroke-width: 0.8; stroke-linecap: square"/>
    </g>
    <g id="text_3">
     <!-- 0.05 -->
     <g transform="translate(133.088238 129.523494)scale(0.1 -0.1)">
      <defs>
       <path id="DejaVuSans-35" d="M 691 4666 
L 3169 4666 
L 3169 4134 
L 1269 4134 
L 1269 2991 
Q 1406 3038 1543 3061 
Q 1681 3084 1819 3084 
Q 2600 3084 3056 2656 
Q 3513 2228 3513 1497 
Q 3513 744 3044 326 
Q 2575 -91 1722 -91 
Q 1428 -91 1123 -41 
Q 819 9 494 109 
L 494 744 
Q 775 591 1075 516 
Q 1375 441 1709 441 
Q 2250 441 2565 725 
Q 2881 1009 2881 1497 
Q 2881 1984 2565 2268 
Q 2250 2553 1709 2553 
Q 1456 2553 1204 2497 
Q 953 2441 691 2322 
L 691 4666 
z
" transform="scale(0.015625)"/>
      </defs>
      <use xlink:href="#DejaVuSans-30"/>
      <use xlink:href="#DejaVuSans-2e" x="63.623047"/>
      <use xlink:href="#DejaVuSans-30" x="95.410156"/>
      <use xlink:href="#DejaVuSans-35" x="159.033203"/>
     </g>
    </g>
   </g>
   <g id="xtick_3">
    <g id="line2d_4">
     <path d="M 158.703238 141.087477 
L 154.770481 141.140945 
" style="fill: none; stroke: #000000; stroke-width: 0.8; stroke-linecap: square"/>
    </g>
    <g id="text_4">
     <!-- 0.10 -->
     <g transform="translate(133.338665 149.234951)scale(0.1 -0.1)">
      <defs>
       <path id="DejaVuSans-31" d="M 794 531 
L 1825 531 
L 1825 4091 
L 703 3866 
L 703 4441 
L 1819 4666 
L 2450 4666 
L 2450 531 
L 3481 531 
L 3481 0 
L 794 0 
L 794 531 
z
" transform="scale(0.015625)"/>
      </defs>
      <use xlink:href="#DejaVuSans-30"/>
      <use xlink:href="#DejaVuSans-2e" x="63.623047"/>
      <use xlink:href="#DejaVuSans-31" x="95.410156"/>
      <use xlink:href="#DejaVuSans-30" x="159.033203"/>
     </g>
    </g>
   </g>
   <g id="xtick_4">
    <g id="line2d_5">
     <path d="M 158.958207 160.945958 
L 155.024711 160.999447 
" style="fill: none; stroke: #000000; stroke-width: 0.8; stroke-linecap: square"/>
    </g>
    <g id="text_5">
     <!-- 0.15 -->
     <g transform="translate(133.589186 168.953761)scale(0.1 -0.1)">
      <use xlink:href="#DejaVuSans-30"/>
      <use xlink:href="#DejaVuSans-2e" x="63.623047"/>
      <use xlink:href="#DejaVuSans-31" x="95.410156"/>
      <use xlink:href="#DejaVuSans-35" x="159.033203"/>
     </g>
    </g>
   </g>
   <g id="xtick_5">
    <g id="line2d_6">
     <path d="M 159.213272 180.811901 
L 155.279038 180.865409 
" style="fill: none; stroke: #000000; stroke-width: 0.8; stroke-linecap: square"/>
    </g>
    <g id="text_6">
     <!-- 0.20 -->
     <g transform="translate(133.8398 188.679927)scale(0.1 -0.1)">
      <defs>
       <path id="DejaVuSans-32" d="M 1228 531 
L 3431 531 
L 3431 0 
L 469 0 
L 469 531 
Q 828 903 1448 1529 
Q 2069 2156 2228 2338 
Q 2531 2678 2651 2914 
Q 2772 3150 2772 3378 
Q 2772 3750 2511 3984 
Q 2250 4219 1831 4219 
Q 1534 4219 1204 4116 
Q 875 4013 500 3803 
L 500 4441 
Q 881 4594 1212 4672 
Q 1544 4750 1819 4750 
Q 2544 4750 2975 4387 
Q 3406 4025 3406 3419 
Q 3406 3131 3298 2873 
Q 3191 2616 2906 2266 
Q 2828 2175 2409 1742 
Q 1991 1309 1228 531 
z
" transform="scale(0.015625)"/>
      </defs>
      <use xlink:href="#DejaVuSans-30"/>
      <use xlink:href="#DejaVuSans-2e" x="63.623047"/>
      <use xlink:href="#DejaVuSans-32" x="95.410156"/>
      <use xlink:href="#DejaVuSans-30" x="159.033203"/>
     </g>
    </g>
   </g>
   <g id="xtick_6">
    <g id="line2d_7">
     <path d="M 159.468433 200.685309 
L 155.533459 200.738837 
" style="fill: none; stroke: #000000; stroke-width: 0.8; stroke-linecap: square"/>
    </g>
    <g id="text_7">
     <!-- 0.25 -->
     <g transform="translate(134.090507 208.413453)scale(0.1 -0.1)">
      <use xlink:href="#DejaVuSans-30"/>
      <use xlink:href="#DejaVuSans-2e" x="63.623047"/>
      <use xlink:href="#DejaVuSans-32" x="95.410156"/>
      <use xlink:href="#DejaVuSans-35" x="159.033203"/>
     </g>
    </g>
   </g>
   <g id="xtick_7">
    <g id="line2d_8">
     <path d="M 159.72369 220.566186 
L 155.787977 220.619734 
" style="fill: none; stroke: #000000; stroke-width: 0.8; stroke-linecap: square"/>
    </g>
    <g id="text_8">
     <!-- 0.30 -->
     <g transform="translate(134.341308 228.154345)scale(0.1 -0.1)">
      <defs>
       <path id="DejaVuSans-33" d="M 2597 2516 
Q 3050 2419 3304 2112 
Q 3559 1806 3559 1356 
Q 3559 666 3084 287 
Q 2609 -91 1734 -91 
Q 1441 -91 1130 -33 
Q 819 25 488 141 
L 488 750 
Q 750 597 1062 519 
Q 1375 441 1716 441 
Q 2309 441 2620 675 
Q 2931 909 2931 1356 
Q 2931 1769 2642 2001 
Q 2353 2234 1838 2234 
L 1294 2234 
L 1294 2753 
L 1863 2753 
Q 2328 2753 2575 2939 
Q 2822 3125 2822 3475 
Q 2822 3834 2567 4026 
Q 2313 4219 1838 4219 
Q 1578 4219 1281 4162 
Q 984 4106 628 3988 
L 628 4550 
Q 988 4650 1302 4700 
Q 1616 4750 1894 4750 
Q 2613 4750 3031 4423 
Q 3450 4097 3450 3541 
Q 3450 3153 3228 2886 
Q 3006 2619 2597 2516 
z
" transform="scale(0.015625)"/>
      </defs>
      <use xlink:href="#DejaVuSans-30"/>
      <use xlink:href="#DejaVuSans-2e" x="63.623047"/>
      <use xlink:href="#DejaVuSans-33" x="95.410156"/>
      <use xlink:href="#DejaVuSans-30" x="159.033203"/>
     </g>
    </g>
   </g>
   <g id="xtick_8">
    <g id="line2d_9">
     <path d="M 159.979043 240.454536 
L 156.04259 240.508105 
" style="fill: none; stroke: #000000; stroke-width: 0.8; stroke-linecap: square"/>
    </g>
    <g id="text_9">
     <!-- 0.35 -->
     <g transform="translate(134.592203 247.902605)scale(0.1 -0.1)">
      <use xlink:href="#DejaVuSans-30"/>
      <use xlink:href="#DejaVuSans-2e" x="63.623047"/>
      <use xlink:href="#DejaVuSans-33" x="95.410156"/>
      <use xlink:href="#DejaVuSans-35" x="159.033203"/>
     </g>
    </g>
   </g>
  </g>
  <g id="axis3d_2">
   <g id="line2d_10">
    <path d="M 322.889628 252.663541 
L 158.851904 254.896128 
" style="fill: none; stroke: #000000; stroke-width: 0.8; stroke-linecap: square"/>
   </g>
   <g id="text_10">
    <!-- Consumers -->
    <g transform="translate(213.191561 285.126593)rotate(-0.779759)scale(0.1 -0.1)">
     <defs>
      <path id="DejaVuSans-43" d="M 4122 4306 
L 4122 3641 
Q 3803 3938 3442 4084 
Q 3081 4231 2675 4231 
Q 1875 4231 1450 3742 
Q 1025 3253 1025 2328 
Q 1025 1406 1450 917 
Q 1875 428 2675 428 
Q 3081 428 3442 575 
Q 3803 722 4122 1019 
L 4122 359 
Q 3791 134 3420 21 
Q 3050 -91 2638 -91 
Q 1578 -91 968 557 
Q 359 1206 359 2328 
Q 359 3453 968 4101 
Q 1578 4750 2638 4750 
Q 3056 4750 3426 4639 
Q 3797 4528 4122 4306 
z
" transform="scale(0.015625)"/>
      <path id="DejaVuSans-6f" d="M 1959 3097 
Q 1497 3097 1228 2736 
Q 959 2375 959 1747 
Q 959 1119 1226 758 
Q 1494 397 1959 397 
Q 2419 397 2687 759 
Q 2956 1122 2956 1747 
Q 2956 2369 2687 2733 
Q 2419 3097 1959 3097 
z
M 1959 3584 
Q 2709 3584 3137 3096 
Q 3566 2609 3566 1747 
Q 3566 888 3137 398 
Q 2709 -91 1959 -91 
Q 1206 -91 779 398 
Q 353 888 353 1747 
Q 353 2609 779 3096 
Q 1206 3584 1959 3584 
z
" transform="scale(0.015625)"/>
      <path id="DejaVuSans-6e" d="M 3513 2113 
L 3513 0 
L 2938 0 
L 2938 2094 
Q 2938 2591 2744 2837 
Q 2550 3084 2163 3084 
Q 1697 3084 1428 2787 
Q 1159 2491 1159 1978 
L 1159 0 
L 581 0 
L 581 3500 
L 1159 3500 
L 1159 2956 
Q 1366 3272 1645 3428 
Q 1925 3584 2291 3584 
Q 2894 3584 3203 3211 
Q 3513 2838 3513 2113 
z
" transform="scale(0.015625)"/>
      <path id="DejaVuSans-73" d="M 2834 3397 
L 2834 2853 
Q 2591 2978 2328 3040 
Q 2066 3103 1784 3103 
Q 1356 3103 1142 2972 
Q 928 2841 928 2578 
Q 928 2378 1081 2264 
Q 1234 2150 1697 2047 
L 1894 2003 
Q 2506 1872 2764 1633 
Q 3022 1394 3022 966 
Q 3022 478 2636 193 
Q 2250 -91 1575 -91 
Q 1294 -91 989 -36 
Q 684 19 347 128 
L 347 722 
Q 666 556 975 473 
Q 1284 391 1588 391 
Q 1994 391 2212 530 
Q 2431 669 2431 922 
Q 2431 1156 2273 1281 
Q 2116 1406 1581 1522 
L 1381 1569 
Q 847 1681 609 1914 
Q 372 2147 372 2553 
Q 372 3047 722 3315 
Q 1072 3584 1716 3584 
Q 2034 3584 2315 3537 
Q 2597 3491 2834 3397 
z
" transform="scale(0.015625)"/>
      <path id="DejaVuSans-75" d="M 544 1381 
L 544 3500 
L 1119 3500 
L 1119 1403 
Q 1119 906 1312 657 
Q 1506 409 1894 409 
Q 2359 409 2629 706 
Q 2900 1003 2900 1516 
L 2900 3500 
L 3475 3500 
L 3475 0 
L 2900 0 
L 2900 538 
Q 2691 219 2414 64 
Q 2138 -91 1772 -91 
Q 1169 -91 856 284 
Q 544 659 544 1381 
z
M 1991 3584 
L 1991 3584 
z
" transform="scale(0.015625)"/>
      <path id="DejaVuSans-72" d="M 2631 2963 
Q 2534 3019 2420 3045 
Q 2306 3072 2169 3072 
Q 1681 3072 1420 2755 
Q 1159 2438 1159 1844 
L 1159 0 
L 581 0 
L 581 3500 
L 1159 3500 
L 1159 2956 
Q 1341 3275 1631 3429 
Q 1922 3584 2338 3584 
Q 2397 3584 2469 3576 
Q 2541 3569 2628 3553 
L 2631 2963 
z
" transform="scale(0.015625)"/>
     </defs>
     <use xlink:href="#DejaVuSans-43"/>
     <use xlink:href="#DejaVuSans-6f" x="69.824219"/>
     <use xlink:href="#DejaVuSans-6e" x="131.005859"/>
     <use xlink:href="#DejaVuSans-73" x="194.384766"/>
     <use xlink:href="#DejaVuSans-75" x="246.484375"/>
     <use xlink:href="#DejaVuSans-6d" x="309.863281"/>
     <use xlink:href="#DejaVuSans-65" x="407.275391"/>
     <use xlink:href="#DejaVuSans-72" x="468.798828"/>
     <use xlink:href="#DejaVuSans-73" x="509.912109"/>
    </g>
   </g>
   <g id="Line3DCollection_2">
    <path d="M 177.760459 81.314578 
L 183.054699 90.638329 
L 185.197823 254.537554 
" style="fill: none; stroke: #b0b0b0; stroke-width: 0.8"/>
    <path d="M 212.49078 80.842665 
L 214.819147 90.206678 
L 217.011525 254.104563 
" style="fill: none; stroke: #b0b0b0; stroke-width: 0.8"/>
    <path d="M 247.220792 80.370756 
L 246.583335 89.775031 
L 248.824967 253.671576 
" style="fill: none; stroke: #b0b0b0; stroke-width: 0.8"/>
    <path d="M 281.950493 79.898852 
L 278.347265 89.343387 
L 280.638148 253.238592 
" style="fill: none; stroke: #b0b0b0; stroke-width: 0.8"/>
    <path d="M 316.679883 79.426952 
L 310.110934 88.911746 
L 312.451069 252.805612 
" style="fill: none; stroke: #b0b0b0; stroke-width: 0.8"/>
   </g>
   <g id="xtick_9">
    <g id="line2d_11">
     <path d="M 185.180652 253.224343 
L 185.232167 257.164074 
" style="fill: none; stroke: #000000; stroke-width: 0.8; stroke-linecap: square"/>
    </g>
    <g id="text_11">
     <!-- 2 -->
     <g transform="translate(182.577936 275.210644)scale(0.1 -0.1)">
      <use xlink:href="#DejaVuSans-32"/>
     </g>
    </g>
   </g>
   <g id="xtick_10">
    <g id="line2d_12">
     <path d="M 216.993959 252.791363 
L 217.046659 256.731062 
" style="fill: none; stroke: #000000; stroke-width: 0.8; stroke-linecap: square"/>
    </g>
    <g id="text_12">
     <!-- 4 -->
     <g transform="translate(214.171496 274.780596)scale(0.1 -0.1)">
      <defs>
       <path id="DejaVuSans-34" d="M 2419 4116 
L 825 1625 
L 2419 1625 
L 2419 4116 
z
M 2253 4666 
L 3047 4666 
L 3047 1625 
L 3713 1625 
L 3713 1100 
L 3047 1100 
L 3047 0 
L 2419 0 
L 2419 1100 
L 313 1100 
L 313 1709 
L 2253 4666 
z
" transform="scale(0.015625)"/>
      </defs>
      <use xlink:href="#DejaVuSans-34"/>
     </g>
    </g>
   </g>
   <g id="xtick_11">
    <g id="line2d_13">
     <path d="M 248.807006 252.358386 
L 248.86089 256.298053 
" style="fill: none; stroke: #000000; stroke-width: 0.8; stroke-linecap: square"/>
    </g>
    <g id="text_13">
     <!-- 6 -->
     <g transform="translate(245.764798 274.350551)scale(0.1 -0.1)">
      <defs>
       <path id="DejaVuSans-36" d="M 2113 2584 
Q 1688 2584 1439 2293 
Q 1191 2003 1191 1497 
Q 1191 994 1439 701 
Q 1688 409 2113 409 
Q 2538 409 2786 701 
Q 3034 994 3034 1497 
Q 3034 2003 2786 2293 
Q 2538 2584 2113 2584 
z
M 3366 4563 
L 3366 3988 
Q 3128 4100 2886 4159 
Q 2644 4219 2406 4219 
Q 1781 4219 1451 3797 
Q 1122 3375 1075 2522 
Q 1259 2794 1537 2939 
Q 1816 3084 2150 3084 
Q 2853 3084 3261 2657 
Q 3669 2231 3669 1497 
Q 3669 778 3244 343 
Q 2819 -91 2113 -91 
Q 1303 -91 875 529 
Q 447 1150 447 2328 
Q 447 3434 972 4092 
Q 1497 4750 2381 4750 
Q 2619 4750 2861 4703 
Q 3103 4656 3366 4563 
z
" transform="scale(0.015625)"/>
      </defs>
      <use xlink:href="#DejaVuSans-36"/>
     </g>
    </g>
   </g>
   <g id="xtick_12">
    <g id="line2d_14">
     <path d="M 280.619793 251.925413 
L 280.67486 255.865047 
" style="fill: none; stroke: #000000; stroke-width: 0.8; stroke-linecap: square"/>
    </g>
    <g id="text_14">
     <!-- 8 -->
     <g transform="translate(277.357844 273.92051)scale(0.1 -0.1)">
      <defs>
       <path id="DejaVuSans-38" d="M 2034 2216 
Q 1584 2216 1326 1975 
Q 1069 1734 1069 1313 
Q 1069 891 1326 650 
Q 1584 409 2034 409 
Q 2484 409 2743 651 
Q 3003 894 3003 1313 
Q 3003 1734 2745 1975 
Q 2488 2216 2034 2216 
z
M 1403 2484 
Q 997 2584 770 2862 
Q 544 3141 544 3541 
Q 544 4100 942 4425 
Q 1341 4750 2034 4750 
Q 2731 4750 3128 4425 
Q 3525 4100 3525 3541 
Q 3525 3141 3298 2862 
Q 3072 2584 2669 2484 
Q 3125 2378 3379 2068 
Q 3634 1759 3634 1313 
Q 3634 634 3220 271 
Q 2806 -91 2034 -91 
Q 1263 -91 848 271 
Q 434 634 434 1313 
Q 434 1759 690 2068 
Q 947 2378 1403 2484 
z
M 1172 3481 
Q 1172 3119 1398 2916 
Q 1625 2713 2034 2713 
Q 2441 2713 2670 2916 
Q 2900 3119 2900 3481 
Q 2900 3844 2670 4047 
Q 2441 4250 2034 4250 
Q 1625 4250 1398 4047 
Q 1172 3844 1172 3481 
z
" transform="scale(0.015625)"/>
      </defs>
      <use xlink:href="#DejaVuSans-38"/>
     </g>
    </g>
   </g>
   <g id="xtick_13">
    <g id="line2d_15">
     <path d="M 312.43232 251.492444 
L 312.488571 255.432045 
" style="fill: none; stroke: #000000; stroke-width: 0.8; stroke-linecap: square"/>
    </g>
    <g id="text_15">
     <!-- 10 -->
     <g transform="translate(305.769383 273.490473)scale(0.1 -0.1)">
      <use xlink:href="#DejaVuSans-31"/>
      <use xlink:href="#DejaVuSans-30" x="63.623047"/>
     </g>
    </g>
   </g>
  </g>
  <g id="axis3d_3">
   <g id="line2d_16">
    <path d="M 322.889628 252.663541 
L 330.664861 258.477899 
" style="fill: none; stroke: #000000; stroke-width: 0.8; stroke-linecap: square"/>
   </g>
   <g id="text_16">
    <!-- Products -->
    <g transform="translate(339.027804 275.24273)rotate(-323.210677)scale(0.1 -0.1)">
     <defs>
      <path id="DejaVuSans-50" d="M 1259 4147 
L 1259 2394 
L 2053 2394 
Q 2494 2394 2734 2622 
Q 2975 2850 2975 3272 
Q 2975 3691 2734 3919 
Q 2494 4147 2053 4147 
L 1259 4147 
z
M 628 4666 
L 2053 4666 
Q 2838 4666 3239 4311 
Q 3641 3956 3641 3272 
Q 3641 2581 3239 2228 
Q 2838 1875 2053 1875 
L 1259 1875 
L 1259 0 
L 628 0 
L 628 4666 
z
" transform="scale(0.015625)"/>
      <path id="DejaVuSans-64" d="M 2906 2969 
L 2906 4863 
L 3481 4863 
L 3481 0 
L 2906 0 
L 2906 525 
Q 2725 213 2448 61 
Q 2172 -91 1784 -91 
Q 1150 -91 751 415 
Q 353 922 353 1747 
Q 353 2572 751 3078 
Q 1150 3584 1784 3584 
Q 2172 3584 2448 3432 
Q 2725 3281 2906 2969 
z
M 947 1747 
Q 947 1113 1208 752 
Q 1469 391 1925 391 
Q 2381 391 2643 752 
Q 2906 1113 2906 1747 
Q 2906 2381 2643 2742 
Q 2381 3103 1925 3103 
Q 1469 3103 1208 2742 
Q 947 2381 947 1747 
z
" transform="scale(0.015625)"/>
      <path id="DejaVuSans-63" d="M 3122 3366 
L 3122 2828 
Q 2878 2963 2633 3030 
Q 2388 3097 2138 3097 
Q 1578 3097 1268 2742 
Q 959 2388 959 1747 
Q 959 1106 1268 751 
Q 1578 397 2138 397 
Q 2388 397 2633 464 
Q 2878 531 3122 666 
L 3122 134 
Q 2881 22 2623 -34 
Q 2366 -91 2075 -91 
Q 1284 -91 818 406 
Q 353 903 353 1747 
Q 353 2603 823 3093 
Q 1294 3584 2113 3584 
Q 2378 3584 2631 3529 
Q 2884 3475 3122 3366 
z
" transform="scale(0.015625)"/>
      <path id="DejaVuSans-74" d="M 1172 4494 
L 1172 3500 
L 2356 3500 
L 2356 3053 
L 1172 3053 
L 1172 1153 
Q 1172 725 1289 603 
Q 1406 481 1766 481 
L 2356 481 
L 2356 0 
L 1766 0 
Q 1100 0 847 248 
Q 594 497 594 1153 
L 594 3053 
L 172 3053 
L 172 3500 
L 594 3500 
L 594 4494 
L 1172 4494 
z
" transform="scale(0.015625)"/>
     </defs>
     <use xlink:href="#DejaVuSans-50"/>
     <use xlink:href="#DejaVuSans-72" x="58.552734"/>
     <use xlink:href="#DejaVuSans-6f" x="97.416016"/>
     <use xlink:href="#DejaVuSans-64" x="158.597656"/>
     <use xlink:href="#DejaVuSans-75" x="222.074219"/>
     <use xlink:href="#DejaVuSans-63" x="285.453125"/>
     <use xlink:href="#DejaVuSans-74" x="340.433594"/>
     <use xlink:href="#DejaVuSans-73" x="379.642578"/>
    </g>
   </g>
   <g id="Line3DCollection_3">
    <path d="M 323.755504 253.311047 
L 321.37335 87.712249 
L 155.886349 89.96105 
" style="fill: none; stroke: #b0b0b0; stroke-width: 0.8"/>
    <path d="M 324.677658 254.000639 
L 322.267935 86.585664 
L 154.967055 88.85909 
" style="fill: none; stroke: #b0b0b0; stroke-width: 0.8"/>
    <path d="M 325.620284 254.705539 
L 323.182348 85.434109 
L 154.027384 87.732705 
" style="fill: none; stroke: #b0b0b0; stroke-width: 0.8"/>
    <path d="M 326.584071 255.426264 
L 324.117256 84.256745 
L 153.066653 86.581075 
" style="fill: none; stroke: #b0b0b0; stroke-width: 0.8"/>
    <path d="M 327.56974 256.163352 
L 325.073356 83.052693 
L 152.084144 85.40334 
" style="fill: none; stroke: #b0b0b0; stroke-width: 0.8"/>
    <path d="M 328.578044 256.917367 
L 326.051375 81.821037 
L 151.079109 84.198602 
" style="fill: none; stroke: #b0b0b0; stroke-width: 0.8"/>
    <path d="M 329.609773 257.688899 
L 327.052077 80.560815 
L 150.050764 82.965924 
" style="fill: none; stroke: #b0b0b0; stroke-width: 0.8"/>
   </g>
   <g id="xtick_14">
    <g id="line2d_17">
     <path d="M 323.736417 251.984198 
L 323.793679 255.964847 
" style="fill: none; stroke: #000000; stroke-width: 0.8; stroke-linecap: square"/>
    </g>
    <g id="text_17">
     <!-- 20 -->
     <g transform="translate(331.34486 274.485747)scale(0.1 -0.1)">
      <use xlink:href="#DejaVuSans-32"/>
      <use xlink:href="#DejaVuSans-30" x="63.623047"/>
     </g>
    </g>
   </g>
   <g id="xtick_15">
    <g id="line2d_18">
     <path d="M 324.65835 252.659214 
L 324.716276 256.68359 
" style="fill: none; stroke: #000000; stroke-width: 0.8; stroke-linecap: square"/>
    </g>
    <g id="text_18">
     <!-- 25 -->
     <g transform="translate(332.420318 275.324489)scale(0.1 -0.1)">
      <use xlink:href="#DejaVuSans-32"/>
      <use xlink:href="#DejaVuSans-35" x="63.623047"/>
     </g>
    </g>
   </g>
   <g id="xtick_16">
    <g id="line2d_19">
     <path d="M 325.600749 253.349216 
L 325.659354 257.41829 
" style="fill: none; stroke: #000000; stroke-width: 0.8; stroke-linecap: square"/>
    </g>
    <g id="text_19">
     <!-- 30 -->
     <g transform="translate(333.519655 276.181853)scale(0.1 -0.1)">
      <use xlink:href="#DejaVuSans-33"/>
      <use xlink:href="#DejaVuSans-30" x="63.623047"/>
     </g>
    </g>
   </g>
   <g id="xtick_17">
    <g id="line2d_20">
     <path d="M 326.564305 254.054708 
L 326.623605 258.169483 
" style="fill: none; stroke: #000000; stroke-width: 0.8; stroke-linecap: square"/>
    </g>
    <g id="text_20">
     <!-- 35 -->
     <g transform="translate(334.643674 277.058467)scale(0.1 -0.1)">
      <use xlink:href="#DejaVuSans-33"/>
      <use xlink:href="#DejaVuSans-35" x="63.623047"/>
     </g>
    </g>
   </g>
   <g id="xtick_18">
    <g id="line2d_21">
     <path d="M 327.549736 254.776216 
L 327.609748 258.937733 
" style="fill: none; stroke: #000000; stroke-width: 0.8; stroke-linecap: square"/>
    </g>
    <g id="text_21">
     <!-- 40 -->
     <g transform="translate(335.793216 277.954986)scale(0.1 -0.1)">
      <use xlink:href="#DejaVuSans-34"/>
      <use xlink:href="#DejaVuSans-30" x="63.623047"/>
     </g>
    </g>
   </g>
   <g id="xtick_19">
    <g id="line2d_22">
     <path d="M 328.557797 255.514294 
L 328.618539 259.723625 
" style="fill: none; stroke: #000000; stroke-width: 0.8; stroke-linecap: square"/>
    </g>
    <g id="text_22">
     <!-- 45 -->
     <g transform="translate(336.969161 278.872096)scale(0.1 -0.1)">
      <use xlink:href="#DejaVuSans-34"/>
      <use xlink:href="#DejaVuSans-35" x="63.623047"/>
     </g>
    </g>
   </g>
   <g id="xtick_20">
    <g id="line2d_23">
     <path d="M 329.589277 256.269518 
L 329.650765 260.527775 
" style="fill: none; stroke: #000000; stroke-width: 0.8; stroke-linecap: square"/>
    </g>
    <g id="text_23">
     <!-- 50 -->
     <g transform="translate(338.172428 279.810515)scale(0.1 -0.1)">
      <use xlink:href="#DejaVuSans-35"/>
      <use xlink:href="#DejaVuSans-30" x="63.623047"/>
     </g>
    </g>
   </g>
  </g>
  <g id="axes_1">
   <g id="Poly3DCollection_1">
    <path d="M 311.971092 210.576273 
L 296.043781 210.792961 
L 296.268917 226.727349 
z
" clip-path="url(#pd85e242f57)" style="fill: #440154"/>
    <path d="M 280.116405 211.009649 
L 296.268917 226.727349 
L 296.043781 210.792961 
z
" clip-path="url(#pd85e242f57)" style="fill: #440154"/>
    <path d="M 280.339142 226.944103 
L 280.116405 211.009649 
L 264.188963 211.226338 
z
" clip-path="url(#pd85e242f57)" style="fill: #440154"/>
    <path d="M 248.261456 211.443028 
L 248.479397 227.377612 
L 264.188963 211.226338 
z
" clip-path="url(#pd85e242f57)" style="fill: #440154"/>
    <path d="M 232.333883 211.659719 
L 248.479397 227.377612 
L 248.261456 211.443028 
z
" clip-path="url(#pd85e242f57)" style="fill: #440154"/>
    <path d="M 232.333883 211.659719 
L 216.406246 211.876411 
L 216.61939 227.811126 
z
" clip-path="url(#pd85e242f57)" style="fill: #440154"/>
    <path d="M 200.689289 228.027884 
L 216.406246 211.876411 
L 200.478543 212.093104 
z
" clip-path="url(#pd85e242f57)" style="fill: #440154"/>
    <path d="M 200.478543 212.093104 
L 184.550775 212.309798 
L 200.689289 228.027884 
z
" clip-path="url(#pd85e242f57)" style="fill: #440154"/>
    <path d="M 184.550775 212.309798 
L 168.622942 212.526492 
L 168.828891 228.461403 
z
" clip-path="url(#pd85e242f57)" style="fill: #440154"/>
    <path d="M 296.268917 226.727349 
L 312.198627 226.510596 
L 311.971092 210.576273 
z
" clip-path="url(#pd85e242f57)" style="fill: #440154"/>
    <path d="M 280.339142 226.944103 
L 296.268917 226.727349 
L 280.116405 211.009649 
z
" clip-path="url(#pd85e242f57)" style="fill: #440154"/>
    <path d="M 264.188963 211.226338 
L 264.409302 227.160857 
L 280.339142 226.944103 
z
" clip-path="url(#pd85e242f57)" style="fill: #440154"/>
    <path d="M 248.479397 227.377612 
L 264.409302 227.160857 
L 264.188963 211.226338 
z
" clip-path="url(#pd85e242f57)" style="fill: #440154"/>
    <path d="M 232.333883 211.659719 
L 232.549426 227.594369 
L 248.479397 227.377612 
z
" clip-path="url(#pd85e242f57)" style="fill: #440154"/>
    <path d="M 216.61939 227.811126 
L 232.549426 227.594369 
L 232.333883 211.659719 
z
" clip-path="url(#pd85e242f57)" style="fill: #440154"/>
    <path d="M 216.61939 227.811126 
L 216.406246 211.876411 
L 200.689289 228.027884 
z
" clip-path="url(#pd85e242f57)" style="fill: #440154"/>
    <path d="M 184.550775 212.309798 
L 184.759123 228.244643 
L 200.689289 228.027884 
z
" clip-path="url(#pd85e242f57)" style="fill: #440154"/>
    <path d="M 168.828891 228.461403 
L 184.759123 228.244643 
L 184.550775 212.309798 
z
" clip-path="url(#pd85e242f57)" style="fill: #440154"/>
    <path d="M 312.42623 242.449719 
L 312.198627 226.510596 
L 296.268917 226.727349 
z
" clip-path="url(#pd85e242f57)" style="fill: #440154"/>
    <path d="M 296.268917 226.727349 
L 280.339142 226.944103 
L 280.561947 242.883356 
z
" clip-path="url(#pd85e242f57)" style="fill: #440154"/>
    <path d="M 280.339142 226.944103 
L 264.409302 227.160857 
L 264.629708 243.100176 
z
" clip-path="url(#pd85e242f57)" style="fill: #440154"/>
    <path d="M 264.629708 243.100176 
L 264.409302 227.160857 
L 248.479397 227.377612 
z
" clip-path="url(#pd85e242f57)" style="fill: #440154"/>
    <path d="M 248.697404 243.316997 
L 248.479397 227.377612 
L 232.549426 227.594369 
z
" clip-path="url(#pd85e242f57)" style="fill: #440154"/>
    <path d="M 232.549426 227.594369 
L 216.61939 227.811126 
L 216.832599 243.750641 
z
" clip-path="url(#pd85e242f57)" style="fill: #440154"/>
    <path d="M 216.832599 243.750641 
L 216.61939 227.811126 
L 200.689289 228.027884 
z
" clip-path="url(#pd85e242f57)" style="fill: #440154"/>
    <path d="M 200.689289 228.027884 
L 184.759123 228.244643 
L 184.967533 244.184289 
z
" clip-path="url(#pd85e242f57)" style="fill: #440154"/>
    <path d="M 184.967533 244.184289 
L 184.759123 228.244643 
L 168.828891 228.461403 
z
" clip-path="url(#pd85e242f57)" style="fill: #440154"/>
    <path d="M 296.268917 226.727349 
L 296.494121 242.666537 
L 312.42623 242.449719 
z
" clip-path="url(#pd85e242f57)" style="fill: #440154"/>
    <path d="M 280.561947 242.883356 
L 296.494121 242.666537 
L 296.268917 226.727349 
z
" clip-path="url(#pd85e242f57)" style="fill: #440154"/>
    <path d="M 280.561947 242.883356 
L 280.339142 226.944103 
L 264.629708 243.100176 
z
" clip-path="url(#pd85e242f57)" style="fill: #440154"/>
    <path d="M 264.629708 243.100176 
L 248.479397 227.377612 
L 248.697404 243.316997 
z
" clip-path="url(#pd85e242f57)" style="fill: #440154"/>
    <path d="M 232.549426 227.594369 
L 232.765034 243.533818 
L 248.697404 243.316997 
z
" clip-path="url(#pd85e242f57)" style="fill: #440154"/>
    <path d="M 216.832599 243.750641 
L 232.765034 243.533818 
L 232.549426 227.594369 
z
" clip-path="url(#pd85e242f57)" style="fill: #440154"/>
    <path d="M 200.689289 228.027884 
L 200.900099 243.967464 
L 216.832599 243.750641 
z
" clip-path="url(#pd85e242f57)" style="fill: #440154"/>
    <path d="M 184.967533 244.184289 
L 200.900099 243.967464 
L 200.689289 228.027884 
z
" clip-path="url(#pd85e242f57)" style="fill: #440154"/>
    <path d="M 169.034902 244.401114 
L 184.967533 244.184289 
L 168.828891 228.461403 
z
" clip-path="url(#pd85e242f57)" style="fill: #440154"/>
    <path d="M 215.832798 196.029856 
L 216.406246 211.876411 
L 232.333883 211.659719 
z
" clip-path="url(#pd85e242f57)" style="fill: #48186a"/>
    <path d="M 296.775776 194.93793 
L 296.043781 210.792961 
L 311.971092 210.576273 
z
" clip-path="url(#pd85e242f57)" style="fill: #481b6d"/>
    <path d="M 200.478543 212.093104 
L 216.406246 211.876411 
L 199.593735 196.259871 
z
" clip-path="url(#pd85e242f57)" style="fill: #481b6d"/>
    <path d="M 199.593735 196.259871 
L 184.550775 212.309798 
L 200.478543 212.093104 
z
" clip-path="url(#pd85e242f57)" style="fill: #481b6d"/>
    <path d="M 280.596815 195.160293 
L 280.116405 211.009649 
L 296.043781 210.792961 
z
" clip-path="url(#pd85e242f57)" style="fill: #481b6d"/>
    <path d="M 280.596815 195.160293 
L 264.188963 211.226338 
L 280.116405 211.009649 
z
" clip-path="url(#pd85e242f57)" style="fill: #481b6d"/>
    <path d="M 264.188963 211.226338 
L 248.18875 195.601131 
L 248.261456 211.443028 
z
" clip-path="url(#pd85e242f57)" style="fill: #481b6d"/>
    <path d="M 248.261456 211.443028 
L 248.18875 195.601131 
L 232.333883 211.659719 
z
" clip-path="url(#pd85e242f57)" style="fill: #481b6d"/>
    <path d="M 183.371811 196.482819 
L 168.622942 212.526492 
L 184.550775 212.309798 
z
" clip-path="url(#pd85e242f57)" style="fill: #481b6d"/>
    <path d="M 232.333883 211.659719 
L 232.028609 195.791404 
L 215.832798 196.029856 
z
" clip-path="url(#pd85e242f57)" style="fill: #482878"/>
    <path d="M 248.18875 195.601131 
L 232.028609 195.791404 
L 232.333883 211.659719 
z
" clip-path="url(#pd85e242f57)" style="fill: #472c7a"/>
    <path d="M 296.775776 194.93793 
L 311.971092 210.576273 
L 312.780758 194.706551 
z
" clip-path="url(#pd85e242f57)" style="fill: #472e7c"/>
    <path d="M 199.593735 196.259871 
L 216.406246 211.876411 
L 215.832798 196.029856 
z
" clip-path="url(#pd85e242f57)" style="fill: #472f7d"/>
    <path d="M 167.294339 196.692389 
L 168.622942 212.526492 
L 183.371811 196.482819 
z
" clip-path="url(#pd85e242f57)" style="fill: #46307e"/>
    <path d="M 264.360492 195.374302 
L 264.188963 211.226338 
L 280.596815 195.160293 
z
" clip-path="url(#pd85e242f57)" style="fill: #46307e"/>
    <path d="M 264.188963 211.226338 
L 264.360492 195.374302 
L 248.18875 195.601131 
z
" clip-path="url(#pd85e242f57)" style="fill: #46307e"/>
    <path d="M 296.043781 210.792961 
L 296.775776 194.93793 
L 280.596815 195.160293 
z
" clip-path="url(#pd85e242f57)" style="fill: #46327e"/>
    <path d="M 199.593735 196.259871 
L 183.371811 196.482819 
L 184.550775 212.309798 
z
" clip-path="url(#pd85e242f57)" style="fill: #46327e"/>
    <path d="M 215.832798 196.029856 
L 232.028609 195.791404 
L 231.765451 179.617568 
z
" clip-path="url(#pd85e242f57)" style="fill: #423f85"/>
    <path d="M 231.765451 179.617568 
L 232.028609 195.791404 
L 248.18875 195.601131 
z
" clip-path="url(#pd85e242f57)" style="fill: #424186"/>
    <path d="M 296.571654 178.736162 
L 296.775776 194.93793 
L 312.780758 194.706551 
z
" clip-path="url(#pd85e242f57)" style="fill: #404588"/>
    <path d="M 312.780758 194.706551 
L 312.773036 178.515812 
L 296.571654 178.736162 
z
" clip-path="url(#pd85e242f57)" style="fill: #404588"/>
    <path d="M 215.832798 196.029856 
L 215.563732 179.837922 
L 199.593735 196.259871 
z
" clip-path="url(#pd85e242f57)" style="fill: #404688"/>
    <path d="M 231.765451 179.617568 
L 215.563732 179.837922 
L 215.832798 196.029856 
z
" clip-path="url(#pd85e242f57)" style="fill: #404688"/>
    <path d="M 183.16009 180.278633 
L 166.958168 180.49899 
L 167.294339 196.692389 
z
" clip-path="url(#pd85e242f57)" style="fill: #3f4788"/>
    <path d="M 167.294339 196.692389 
L 183.371811 196.482819 
L 183.16009 180.278633 
z
" clip-path="url(#pd85e242f57)" style="fill: #3f4788"/>
    <path d="M 264.360492 195.374302 
L 264.168688 179.176863 
L 247.967103 179.397215 
z
" clip-path="url(#pd85e242f57)" style="fill: #3f4788"/>
    <path d="M 264.168688 179.176863 
L 264.360492 195.374302 
L 280.596815 195.160293 
z
" clip-path="url(#pd85e242f57)" style="fill: #3f4788"/>
    <path d="M 247.967103 179.397215 
L 248.18875 195.601131 
L 264.360492 195.374302 
z
" clip-path="url(#pd85e242f57)" style="fill: #3f4788"/>
    <path d="M 215.563732 179.837922 
L 199.361945 180.058277 
L 199.593735 196.259871 
z
" clip-path="url(#pd85e242f57)" style="fill: #3f4889"/>
    <path d="M 183.16009 180.278633 
L 199.593735 196.259871 
L 199.361945 180.058277 
z
" clip-path="url(#pd85e242f57)" style="fill: #3f4889"/>
    <path d="M 296.571654 178.736162 
L 280.143664 162.757695 
L 280.370205 178.956512 
z
" clip-path="url(#pd85e242f57)" style="fill: #3e4989"/>
    <path d="M 280.143664 162.757695 
L 264.168688 179.176863 
L 280.370205 178.956512 
z
" clip-path="url(#pd85e242f57)" style="fill: #3e4989"/>
    <path d="M 296.775776 194.93793 
L 296.571654 178.736162 
L 280.596815 195.160293 
z
" clip-path="url(#pd85e242f57)" style="fill: #3f4889"/>
    <path d="M 215.347115 163.638835 
L 215.563732 179.837922 
L 231.765451 179.617568 
z
" clip-path="url(#pd85e242f57)" style="fill: #3e4989"/>
    <path d="M 199.361945 180.058277 
L 215.563732 179.837922 
L 215.347115 163.638835 
z
" clip-path="url(#pd85e242f57)" style="fill: #3e4989"/>
    <path d="M 166.748994 164.2997 
L 166.958168 180.49899 
L 183.16009 180.278633 
z
" clip-path="url(#pd85e242f57)" style="fill: #3e4989"/>
    <path d="M 183.371811 196.482819 
L 199.593735 196.259871 
L 183.16009 180.278633 
z
" clip-path="url(#pd85e242f57)" style="fill: #3f4889"/>
    <path d="M 280.596815 195.160293 
L 296.571654 178.736162 
L 280.370205 178.956512 
z
" clip-path="url(#pd85e242f57)" style="fill: #3e4989"/>
    <path d="M 280.370205 178.956512 
L 264.168688 179.176863 
L 280.596815 195.160293 
z
" clip-path="url(#pd85e242f57)" style="fill: #3e4989"/>
    <path d="M 199.361945 180.058277 
L 215.347115 163.638835 
L 199.130023 163.847456 
z
" clip-path="url(#pd85e242f57)" style="fill: #3e4989"/>
    <path d="M 231.765451 179.617568 
L 248.18875 195.601131 
L 247.967103 179.397215 
z
" clip-path="url(#pd85e242f57)" style="fill: #3e4989"/>
    <path d="M 296.571654 178.736162 
L 312.773036 178.515812 
L 312.573412 162.304788 
z
" clip-path="url(#pd85e242f57)" style="fill: #3e4989"/>
    <path d="M 183.16009 180.278633 
L 199.361945 180.058277 
L 199.130023 163.847456 
z
" clip-path="url(#pd85e242f57)" style="fill: #3e4989"/>
    <path d="M 182.898652 164.05626 
L 166.748994 164.2997 
L 183.16009 180.278633 
z
" clip-path="url(#pd85e242f57)" style="fill: #3e4989"/>
    <path d="M 247.967103 179.397215 
L 247.752526 163.174341 
L 231.765451 179.617568 
z
" clip-path="url(#pd85e242f57)" style="fill: #3e4989"/>
    <path d="M 231.535557 163.382939 
L 215.347115 163.638835 
L 231.765451 179.617568 
z
" clip-path="url(#pd85e242f57)" style="fill: #3e4a89"/>
    <path d="M 199.130023 163.847456 
L 182.898652 164.05626 
L 183.16009 180.278633 
z
" clip-path="url(#pd85e242f57)" style="fill: #3e4a89"/>
    <path d="M 280.143664 162.757695 
L 263.98706 162.929706 
L 264.168688 179.176863 
z
" clip-path="url(#pd85e242f57)" style="fill: #3e4a89"/>
    <path d="M 247.967103 179.397215 
L 264.168688 179.176863 
L 263.98706 162.929706 
z
" clip-path="url(#pd85e242f57)" style="fill: #3e4a89"/>
    <path d="M 231.765451 179.617568 
L 247.752526 163.174341 
L 231.535557 163.382939 
z
" clip-path="url(#pd85e242f57)" style="fill: #3e4c8a"/>
    <path d="M 296.49166 162.46378 
L 280.143664 162.757695 
L 296.571654 178.736162 
z
" clip-path="url(#pd85e242f57)" style="fill: #3e4c8a"/>
    <path d="M 263.98706 162.929706 
L 247.752526 163.174341 
L 247.967103 179.397215 
z
" clip-path="url(#pd85e242f57)" style="fill: #3e4c8a"/>
    <path d="M 296.571654 178.736162 
L 312.573412 162.304788 
L 296.49166 162.46378 
z
" clip-path="url(#pd85e242f57)" style="fill: #3d4d8a"/>
    <path d="M 165.102056 147.272902 
L 166.748994 164.2997 
L 182.898652 164.05626 
z
" clip-path="url(#pd85e242f57)" style="fill: #34608d"/>
    <path d="M 198.001617 146.686944 
L 182.898652 164.05626 
L 199.130023 163.847456 
z
" clip-path="url(#pd85e242f57)" style="fill: #32648e"/>
    <path d="M 263.98706 162.929706 
L 280.143664 162.757695 
L 264.289796 145.745895 
z
" clip-path="url(#pd85e242f57)" style="fill: #32658e"/>
    <path d="M 247.752526 163.174341 
L 263.98706 162.929706 
L 264.289796 145.745895 
z
" clip-path="url(#pd85e242f57)" style="fill: #31668e"/>
    <path d="M 199.130023 163.847456 
L 215.347115 163.638835 
L 214.466372 146.283547 
z
" clip-path="url(#pd85e242f57)" style="fill: #31678e"/>
    <path d="M 214.466372 146.283547 
L 215.347115 163.638835 
L 231.535557 163.382939 
z
" clip-path="url(#pd85e242f57)" style="fill: #31688e"/>
    <path d="M 297.71188 145.091545 
L 280.143664 162.757695 
L 296.49166 162.46378 
z
" clip-path="url(#pd85e242f57)" style="fill: #2f6b8e"/>
    <path d="M 231.535557 163.382939 
L 247.752526 163.174341 
L 247.747896 145.750779 
z
" clip-path="url(#pd85e242f57)" style="fill: #2f6b8e"/>
    <path d="M 296.49166 162.46378 
L 312.573412 162.304788 
L 297.71188 145.091545 
z
" clip-path="url(#pd85e242f57)" style="fill: #2f6b8e"/>
    <path d="M 182.898652 164.05626 
L 181.565153 147.00954 
L 165.102056 147.272902 
z
" clip-path="url(#pd85e242f57)" style="fill: #2b758e"/>
    <path d="M 198.001617 146.686944 
L 181.565153 147.00954 
L 182.898652 164.05626 
z
" clip-path="url(#pd85e242f57)" style="fill: #2a788e"/>
    <path d="M 264.289796 145.745895 
L 280.143664 162.757695 
L 280.87102 145.520451 
z
" clip-path="url(#pd85e242f57)" style="fill: #297b8e"/>
    <path d="M 214.466372 146.283547 
L 198.001617 146.686944 
L 199.130023 163.847456 
z
" clip-path="url(#pd85e242f57)" style="fill: #277e8e"/>
    <path d="M 280.87102 145.520451 
L 280.143664 162.757695 
L 297.71188 145.091545 
z
" clip-path="url(#pd85e242f57)" style="fill: #27808e"/>
    <path d="M 312.573412 162.304788 
L 314.066554 145.0492 
L 297.71188 145.091545 
z
" clip-path="url(#pd85e242f57)" style="fill: #26818e"/>
    <path d="M 264.289796 145.745895 
L 247.747896 145.750779 
L 247.752526 163.174341 
z
" clip-path="url(#pd85e242f57)" style="fill: #26818e"/>
    <path d="M 231.535557 163.382939 
L 231.092195 146.017402 
L 214.466372 146.283547 
z
" clip-path="url(#pd85e242f57)" style="fill: #25838e"/>
    <path d="M 247.747896 145.750779 
L 231.092195 146.017402 
L 231.535557 163.382939 
z
" clip-path="url(#pd85e242f57)" style="fill: #25858e"/>
    <path d="M 165.102056 147.272902 
L 181.565153 147.00954 
L 179.57541 128.665053 
z
" clip-path="url(#pd85e242f57)" style="fill: #21a585"/>
    <path d="M 179.57541 128.665053 
L 181.565153 147.00954 
L 198.001617 146.686944 
z
" clip-path="url(#pd85e242f57)" style="fill: #22a884"/>
    <path d="M 264.789512 127.333183 
L 264.289796 145.745895 
L 280.87102 145.520451 
z
" clip-path="url(#pd85e242f57)" style="fill: #28ae80"/>
    <path d="M 281.768495 127.246995 
L 280.87102 145.520451 
L 297.71188 145.091545 
z
" clip-path="url(#pd85e242f57)" style="fill: #2cb17e"/>
    <path d="M 196.485071 128.261713 
L 198.001617 146.686944 
L 214.466372 146.283547 
z
" clip-path="url(#pd85e242f57)" style="fill: #2cb17e"/>
    <path d="M 247.747896 145.750779 
L 264.289796 145.745895 
L 264.789512 127.333183 
z
" clip-path="url(#pd85e242f57)" style="fill: #2eb37c"/>
    <path d="M 297.71188 145.091545 
L 314.066554 145.0492 
L 316.052265 126.607313 
z
" clip-path="url(#pd85e242f57)" style="fill: #2fb47c"/>
    <path d="M 214.466372 146.283547 
L 231.092195 146.017402 
L 230.64585 127.855261 
z
" clip-path="url(#pd85e242f57)" style="fill: #31b57b"/>
    <path d="M 230.64585 127.855261 
L 231.092195 146.017402 
L 247.747896 145.750779 
z
" clip-path="url(#pd85e242f57)" style="fill: #34b679"/>
    <path d="M 179.57541 128.665053 
L 162.439443 128.811384 
L 165.102056 147.272902 
z
" clip-path="url(#pd85e242f57)" style="fill: #4ac16d"/>
    <path d="M 198.001617 146.686944 
L 196.485071 128.261713 
L 179.57541 128.665053 
z
" clip-path="url(#pd85e242f57)" style="fill: #54c568"/>
    <path d="M 264.789512 127.333183 
L 280.87102 145.520451 
L 281.768495 127.246995 
z
" clip-path="url(#pd85e242f57)" style="fill: #56c667"/>
    <path d="M 297.71188 145.091545 
L 298.859457 126.956891 
L 281.768495 127.246995 
z
" clip-path="url(#pd85e242f57)" style="fill: #5cc863"/>
    <path d="M 247.691542 127.739082 
L 230.64585 127.855261 
L 247.747896 145.750779 
z
" clip-path="url(#pd85e242f57)" style="fill: #5ec962"/>
    <path d="M 247.691542 127.739082 
L 247.747896 145.750779 
L 264.789512 127.333183 
z
" clip-path="url(#pd85e242f57)" style="fill: #60ca60"/>
    <path d="M 230.64585 127.855261 
L 213.561294 128.029579 
L 214.466372 146.283547 
z
" clip-path="url(#pd85e242f57)" style="fill: #60ca60"/>
    <path d="M 214.466372 146.283547 
L 213.561294 128.029579 
L 196.485071 128.261713 
z
" clip-path="url(#pd85e242f57)" style="fill: #63cb5f"/>
    <path d="M 297.71188 145.091545 
L 316.052265 126.607313 
L 298.859457 126.956891 
z
" clip-path="url(#pd85e242f57)" style="fill: #63cb5f"/>
    <path d="M 179.57541 128.665053 
L 196.485071 128.261713 
L 196.1189 110.939813 
z
" clip-path="url(#pd85e242f57)" style="fill: #a5db36"/>
    <path d="M 213.259956 110.74392 
L 213.561294 128.029579 
L 230.64585 127.855261 
z
" clip-path="url(#pd85e242f57)" style="fill: #aadc32"/>
    <path d="M 281.768495 127.246995 
L 298.859457 126.956891 
L 299.055214 109.317499 
z
" clip-path="url(#pd85e242f57)" style="fill: #aadc32"/>
    <path d="M 161.607861 111.14832 
L 162.439443 128.811384 
L 179.57541 128.665053 
z
" clip-path="url(#pd85e242f57)" style="fill: #aadc32"/>
    <path d="M 196.485071 128.261713 
L 213.561294 128.029579 
L 196.1189 110.939813 
z
" clip-path="url(#pd85e242f57)" style="fill: #addc30"/>
    <path d="M 281.768495 127.246995 
L 281.879095 109.550953 
L 264.789512 127.333183 
z
" clip-path="url(#pd85e242f57)" style="fill: #b0dd2f"/>
    <path d="M 213.561294 128.029579 
L 213.259956 110.74392 
L 196.1189 110.939813 
z
" clip-path="url(#pd85e242f57)" style="fill: #b5de2b"/>
    <path d="M 298.859457 126.956891 
L 316.052265 126.607313 
L 316.337903 108.970517 
z
" clip-path="url(#pd85e242f57)" style="fill: #b5de2b"/>
    <path d="M 230.64585 127.855261 
L 230.359007 110.325748 
L 213.259956 110.74392 
z
" clip-path="url(#pd85e242f57)" style="fill: #b8de29"/>
    <path d="M 247.56651 109.60482 
L 230.64585 127.855261 
L 247.691542 127.739082 
z
" clip-path="url(#pd85e242f57)" style="fill: #b8de29"/>
    <path d="M 264.789512 127.333183 
L 247.56651 109.60482 
L 247.691542 127.739082 
z
" clip-path="url(#pd85e242f57)" style="fill: #bade28"/>
    <path d="M 299.055214 109.317499 
L 281.879095 109.550953 
L 281.768495 127.246995 
z
" clip-path="url(#pd85e242f57)" style="fill: #c0df25"/>
    <path d="M 196.1189 110.939813 
L 178.508043 110.543441 
L 179.57541 128.665053 
z
" clip-path="url(#pd85e242f57)" style="fill: #c5e021"/>
    <path d="M 316.337903 108.970517 
L 299.055214 109.317499 
L 298.859457 126.956891 
z
" clip-path="url(#pd85e242f57)" style="fill: #c5e021"/>
    <path d="M 264.789512 127.333183 
L 281.879095 109.550953 
L 264.772575 109.558984 
z
" clip-path="url(#pd85e242f57)" style="fill: #cde11d"/>
    <path d="M 179.57541 128.665053 
L 178.508043 110.543441 
L 161.607861 111.14832 
z
" clip-path="url(#pd85e242f57)" style="fill: #cde11d"/>
    <path d="M 247.56651 109.60482 
L 230.359007 110.325748 
L 230.64585 127.855261 
z
" clip-path="url(#pd85e242f57)" style="fill: #cde11d"/>
    <path d="M 213.259956 110.74392 
L 230.359007 110.325748 
L 230.082317 92.726168 
z
" clip-path="url(#pd85e242f57)" style="fill: #d5e21a"/>
    <path d="M 196.1189 110.939813 
L 213.259956 110.74392 
L 212.756636 92.641319 
z
" clip-path="url(#pd85e242f57)" style="fill: #d8e219"/>
    <path d="M 264.772575 109.558984 
L 247.56651 109.60482 
L 264.789512 127.333183 
z
" clip-path="url(#pd85e242f57)" style="fill: #dae319"/>
    <path d="M 281.932304 91.701261 
L 281.879095 109.550953 
L 299.055214 109.317499 
z
" clip-path="url(#pd85e242f57)" style="fill: #e7e419"/>
    <path d="M 230.082317 92.726168 
L 212.756636 92.641319 
L 213.259956 110.74392 
z
" clip-path="url(#pd85e242f57)" style="fill: #eae51a"/>
    <path d="M 230.082317 92.726168 
L 230.359007 110.325748 
L 247.56651 109.60482 
z
" clip-path="url(#pd85e242f57)" style="fill: #eae51a"/>
    <path d="M 264.772575 109.558984 
L 281.879095 109.550953 
L 264.603663 92.074272 
z
" clip-path="url(#pd85e242f57)" style="fill: #ece51b"/>
    <path d="M 178.225856 93.2023 
L 178.508043 110.543441 
L 196.1189 110.939813 
z
" clip-path="url(#pd85e242f57)" style="fill: #ece51b"/>
    <path d="M 195.524545 93.01302 
L 178.225856 93.2023 
L 196.1189 110.939813 
z
" clip-path="url(#pd85e242f57)" style="fill: #ece51b"/>
    <path d="M 196.1189 110.939813 
L 212.756636 92.641319 
L 195.524545 93.01302 
z
" clip-path="url(#pd85e242f57)" style="fill: #efe51c"/>
    <path d="M 299.365326 91.234289 
L 299.055214 109.317499 
L 316.337903 108.970517 
z
" clip-path="url(#pd85e242f57)" style="fill: #f1e51d"/>
    <path d="M 161.607861 111.14832 
L 178.225856 93.2023 
L 161.057986 93.572872 
z
" clip-path="url(#pd85e242f57)" style="fill: #f1e51d"/>
    <path d="M 161.607861 111.14832 
L 178.508043 110.543441 
L 178.225856 93.2023 
z
" clip-path="url(#pd85e242f57)" style="fill: #f4e61e"/>
    <path d="M 264.603663 92.074272 
L 281.879095 109.550953 
L 281.932304 91.701261 
z
" clip-path="url(#pd85e242f57)" style="fill: #f6e620"/>
    <path d="M 264.603663 92.074272 
L 247.56651 109.60482 
L 264.772575 109.558984 
z
" clip-path="url(#pd85e242f57)" style="fill: #f8e621"/>
    <path d="M 316.23373 91.601001 
L 299.365326 91.234289 
L 316.337903 108.970517 
z
" clip-path="url(#pd85e242f57)" style="fill: #f8e621"/>
    <path d="M 247.56651 109.60482 
L 247.333998 92.308958 
L 230.082317 92.726168 
z
" clip-path="url(#pd85e242f57)" style="fill: #fbe723"/>
    <path d="M 247.333998 92.308958 
L 247.56651 109.60482 
L 264.603663 92.074272 
z
" clip-path="url(#pd85e242f57)" style="fill: #fde725"/>
    <path d="M 299.055214 109.317499 
L 299.365326 91.234289 
L 281.932304 91.701261 
z
" clip-path="url(#pd85e242f57)" style="fill: #fde725"/>
   </g>
  </g>
 </g>
 <defs>
  <clipPath id="pd85e242f57">
   <rect x="103.104" y="41.472" width="266.112" height="266.112"/>
  </clipPath>
 </defs>
</svg>
